<svg class="main-svg" xmlns="http://www.w3.org/2000/svg" xmlns:xlink="http://www.w3.org/1999/xlink" width="600" height="400" style=""><rect x="0" y="0" width="600" height="400" style="fill: rgb(255, 255, 255); fill-opacity: 1;"/><defs id="defs-f569f2"><g class="clips"><clipPath id="clipf569f2xyplot" class="plotclip"><rect width="556.5704286964129" height="325.4133858267717"/></clipPath><clipPath class="axesclip" id="clipf569f2x"><rect x="39.4925634295713" y="0" width="556.5704286964129" height="400"/></clipPath><clipPath class="axesclip" id="clipf569f2y"><rect x="0" y="41.04330708661415" width="600" height="325.4133858267717"/></clipPath><clipPath class="axesclip" id="clipf569f2xy"><rect x="39.4925634295713" y="41.04330708661415" width="556.5704286964129" height="325.4133858267717"/></clipPath></g><g class="gradients"/><g class="patterns"/></defs><g class="bglayer"/><g class="layer-below"><g class="imagelayer"/><g class="shapelayer"/></g><g class="cartesianlayer"><g class="subplot xy"><g class="layer-subplot"><g class="shapelayer"/><g class="imagelayer"/></g><g class="gridlayer"><g class="x"><path class="xgrid crisp" transform="translate(55.2425634295713,0)" d="M0,41.04330708661415v325.4133858267717" style="stroke: rgb(0, 0, 0); stroke-opacity: 0.1; stroke-width: 0.5px;"/><path class="xgrid crisp" transform="translate(158.1725634295713,0)" d="M0,41.04330708661415v325.4133858267717" style="stroke: rgb(0, 0, 0); stroke-opacity: 0.1; stroke-width: 0.5px;"/><path class="xgrid crisp" transform="translate(261.1125634295713,0)" d="M0,41.04330708661415v325.4133858267717" style="stroke: rgb(0, 0, 0); stroke-opacity: 0.1; stroke-width: 0.5px;"/><path class="xgrid crisp" transform="translate(364.0425634295713,0)" d="M0,41.04330708661415v325.4133858267717" style="stroke: rgb(0, 0, 0); stroke-opacity: 0.1; stroke-width: 0.5px;"/><path class="xgrid crisp" transform="translate(466.9725634295713,0)" d="M0,41.04330708661415v325.4133858267717" style="stroke: rgb(0, 0, 0); stroke-opacity: 0.1; stroke-width: 0.5px;"/><path class="xgrid crisp" transform="translate(569.9125634295713,0)" d="M0,41.04330708661415v325.4133858267717" style="stroke: rgb(0, 0, 0); stroke-opacity: 0.1; stroke-width: 0.5px;"/></g><g class="y"><path class="ygrid crisp" transform="translate(0,298.16330708661417)" d="M39.4925634295713,0h556.5704286964129" style="stroke: rgb(0, 0, 0); stroke-opacity: 0.1; stroke-width: 0.5px;"/><path class="ygrid crisp" transform="translate(0,213.52330708661412)" d="M39.4925634295713,0h556.5704286964129" style="stroke: rgb(0, 0, 0); stroke-opacity: 0.1; stroke-width: 0.5px;"/><path class="ygrid crisp" transform="translate(0,128.88330708661414)" d="M39.4925634295713,0h556.5704286964129" style="stroke: rgb(0, 0, 0); stroke-opacity: 0.1; stroke-width: 0.5px;"/><path class="ygrid crisp" transform="translate(0,44.23330708661415)" d="M39.4925634295713,0h556.5704286964129" style="stroke: rgb(0, 0, 0); stroke-opacity: 0.1; stroke-width: 0.5px;"/></g></g><g class="zerolinelayer"/><path class="xlines-below"/><path class="ylines-below"/><g class="overlines-below"/><g class="xaxislayer-below"/><g class="yaxislayer-below"/><g class="overaxes-below"/><g class="plot" transform="translate(39.4925634295713,41.04330708661415)" clip-path="url(#clipf569f2xyplot)"><g class="scatterlayer mlayer"><g class="trace scatter trace360461" style="stroke-miterlimit: 2; opacity: 1;"><g class="fills"/><g class="errorbars"/><g class="lines"><path class="js-line" d="M15.75,174.12L15.76,171.07L16.5,172.74L16.51,172.66L16.66,173.13L16.68,171.78L17.26,172.47L17.27,172.61L17.4,172.03L17.46,173.13L18.02,172.19L18.03,172.39L18.31,171.95L18.32,173.17L18.78,172.59L18.79,172.28L19.02,171.95L19.24,172.9L19.54,172.38L19.55,172.25L19.98,171.98L19.99,173.14L20.3,172.59L20.31,172.75L20.55,172.02L20.95,173.06L21.06,172.19L21.07,172.31L21.6,173.42L21.61,171.65L21.82,172.6L21.83,172.47L21.94,172.98L22.3,172.03L22.58,172.2L22.59,172.29L23.24,171.76L23.26,173.39L23.34,172.41L23.35,172.53L23.85,173.09L24.08,171.97L24.1,172.59L24.11,172.77L24.61,171.94L24.74,172.98L24.86,172.43L24.87,172.37L24.89,173.22L25.38,171.84L25.6,172.47L25.6,172.42L25.87,171.81L25.88,173L26.35,172.52L26.35,172.21L26.92,171.95L26.93,173.12L27.09,172.11L27.1,172.18L27.37,172.99L27.81,171.87L27.85,172.57L27.86,172.23L28.2,173.16L28.2,171.84L28.61,172.56L28.62,172.53L29.15,173.18L29.23,171.85L29.37,172.51L29.38,172.41L29.59,171.77L29.85,173.16L30.13,172.75L30.14,172.82L30.27,171.81L30.56,173.09L30.89,172.32L30.9,172.43L31.33,173.87L31.34,171.2L31.65,172.62L31.66,172.48L31.81,171.8L31.89,172.95L32.38,172.36L32.39,171.99L33.12,173.08L33.14,171.67L33.15,172.01L33.18,173.15L33.26,171.96L33.9,172.82L33.91,172.41L34.18,171.98L34.19,173.06L34.66,172.43L34.66,172.32L34.78,171.85L34.79,173.18L35.41,172.62L35.42,172.73L35.94,173.02L36.14,171.98L36.17,172.5L36.18,172.57L36.89,171.84L36.92,173.5L36.93,171.94L36.94,172L37.01,171.65L37.02,173.15L37.69,172.81L37.7,172.58L38.07,173.14L38.36,171.85L38.45,172.63L38.46,172.19L38.47,171.87L38.56,173.31L39.21,172.38L39.22,172.36L39.49,171.79L39.74,173.24L39.96,172.25L39.96,172.07L40.38,174.04L40.39,170.96L40.69,172.47L40.7,171.92L41.36,173.47L41.37,171.7L41.45,172.5L41.46,172.6L41.77,171.75L42.17,173.16L42.21,172.35L42.22,172.27L42.78,171.85L42.91,173.23L42.97,172.23L42.98,172.52L43.01,171.62L43.04,173.64L43.73,172.31L43.74,172.2L43.83,173.06L43.91,171.77L44.49,172.61L44.5,172.48L44.67,173.42L44.89,171.79L45.25,172.58L45.26,172.73L45.89,173.43L46.01,171.03L46.01,172.85L46.02,173.22L46.36,216.13L46.36,133.73L46.77,173.07L46.78,170.77L46.79,175.02L47.35,170.61L47.53,172.07L47.54,171.64L47.62,171.4L47.96,173.46L48.29,172.41L48.3,172.49L48.46,173.05L48.91,171.92L49.04,172.36L49.04,172.7L49.4,173.69L49.47,171.3L49.76,172.12L49.77,172.18L50.14,171.69L50.15,173.5L50.52,172.65L50.53,172.36L51.24,173.59L51.25,171.43L51.28,172.05L51.29,172.21L51.75,171.75L52.02,173.28L52.04,172.05L52.05,172.71L52.23,171.55L52.41,173.28L52.8,172.58L52.81,172.76L52.91,171.2L52.92,173.51L53.56,173.38L53.57,172.3L54.22,173.42L54.26,171.39L54.32,172.2L54.33,172.69L54.95,176.23L54.99,165.88L55.08,173.93L55.09,173.98L55.24,200.54L55.25,136.62L55.84,171.57L55.85,171.82L55.85,174.38L55.86,170.6L56.6,172.79L56.61,173.45L56.65,171.42L56.79,173.64L57.36,172.83L57.37,172.31L57.92,173.79L58.08,171.51L58.12,172.14L58.13,171.81L58.77,209.58L58.78,134.45L58.88,171.92L58.89,170.22L58.89,167.47L58.92,176.01L59.64,172.95L59.65,173.22L60.16,174.4L60.17,170.35L60.4,172.37L60.41,172.18L60.41,171.16L60.44,174.11L61.16,172.25L61.17,172.6L61.25,173.55L61.82,171.4L61.92,173.09L61.93,172.44L62.17,171.3L62.46,173.5L62.68,172.85L62.69,172.76L62.91,173.37L63.06,171.48L63.44,172.23L63.45,172.57L63.46,171.64L64.06,173.15L64.2,172.67L64.21,172.31L64.43,171.88L64.71,173.05L64.96,172.77L64.97,172.42L65.56,171.82L65.64,173.17L65.72,172.43L65.73,172.41L66.08,171.66L66.35,173.11L66.48,172.48L66.49,172.41L66.99,174.25L67,170.54L67.24,172.62L67.25,172.57L67.86,163.35L67.93,179.39L68,172.61L68.01,172.79L68.16,240.16L68.17,101.71L68.76,172.08L68.77,171.62L68.93,173.25L69.52,172.66L69.53,172.71L69.67,171.65L69.68,173.34L70.28,173.02L70.29,172.77L70.69,173.53L71.02,171.64L71.04,172.43L71.05,172.46L71.35,173.47L71.45,171.25L71.8,172.19L71.81,172.51L72.55,173.48L72.56,171.64L72.56,172.78L72.57,173.16L72.76,173.35L73.23,171.64L73.32,172.85L73.33,172.9L74.06,170.93L74.07,174.07L74.08,171.64L74.09,172.61L74.31,170.96L74.54,173.6L74.84,172.98L74.85,172.57L75.58,174.84L75.59,169.63L75.6,170.03L75.61,169.75L75.88,280.77L75.94,61.96L76.36,174.52L76.37,173.43L76.43,167.76L76.59,177.54L77.12,173.38L77.13,172.51L77.34,176.04L77.35,168.25L77.88,173.62L77.89,174.14L77.92,170.94L78.64,172.3L78.65,172.35L79.02,170.69L79.05,174L79.4,171.81L79.41,172.28L79.75,174.01L79.76,170.65L80.16,173.12L80.17,172.58L80.42,174.08L80.9,170.75L80.92,171.88L80.93,171.71L81.66,178.08L81.68,164.39L81.68,166.63L81.69,167.07L81.93,309.18L81.99,31.28L82.44,175.46L82.45,173.41L82.48,174.83L82.5,170.07L83.2,172.29L83.21,172.72L83.84,173.76L83.85,170.86L83.96,172.37L83.97,172.43L84.21,173.99L84.52,171.21L84.72,172.66L84.73,172.4L85.08,168.62L85.08,175.85L85.48,172.38L85.49,173.01L85.77,174.31L86.23,170.25L86.24,173.12L86.25,172.95L86.46,170.19L86.48,174.99L87,172.48L87.01,172.94L87.65,21.33L87.66,309.03L87.76,186.06L87.77,190.19L87.78,152.44L88.52,171.79L88.53,172.11L89.22,170.36L89.25,174.54L89.28,172.87L89.29,172.61L89.3,171.22L89.35,173.96L90.04,173.26L90.05,172.61L90.37,170.45L90.38,174.56L90.8,172.92L90.81,172.69L91.42,174.01L91.43,170.4L91.56,172.45L91.57,172.15L91.64,174.46L91.65,170.84L92.32,173.3L92.33,172.64L92.97,159.98L92.98,182.59L93.08,170.75L93.09,172.15L93.23,9.21L93.23,315.33L93.84,172.36L93.85,172.09L94.59,174.3L94.6,170.72L94.6,171.35L94.61,172.49L94.69,173.85L94.8,171.2L95.36,173.29L95.37,173.52L95.73,171.34L96.12,172.62L96.13,172.68L96.44,170.73L96.78,174.03L96.88,171.81L96.89,171.44L97.32,174.64L97.34,170.69L97.64,172.29L97.65,172.11L98.36,181.89L98.37,160.48L98.4,172.86L98.41,171.11L98.63,12.52L98.64,316.2L99.16,173.44L99.17,173.42L99.18,171.22L99.32,173.83L99.92,171.47L99.93,171.52L100.12,174.06L100.15,171.12L100.68,172.75L100.69,172.6L100.8,173.8L100.94,171.03L101.44,172.35L101.45,171.94L101.46,171.41L101.47,173.44L102.2,172.15L102.21,171.79L102.9,173.75L102.92,171.03L102.96,172.99L102.97,172.73L103.52,305.38L103.57,28.52L103.72,175.61L103.73,173.31L103.87,180.28L103.88,163.89L104.48,172.68L104.49,172.42L104.69,173.32L104.7,171.73L105.24,172.33L105.25,172.18L105.73,171.77L105.74,173.37L106,172.23L106.01,172.14L106.41,174.55L106.43,170.07L106.76,173.2L106.77,173.05L106.79,173.6L107.37,171.3L107.52,172.15L107.53,172.27L108.12,181.39L108.27,162.16L108.28,173.88L108.29,175.07L108.39,28.61L108.39,302.43L109.04,173.76L109.05,170.61L109.13,179.18L109.13,164.56L109.8,173.89L109.81,175.12L109.86,176.19L109.87,168.56L110.56,172.45L110.57,172.13L110.87,171.34L110.9,173.37L111.32,172.3L111.33,172.03L111.74,171.29L111.75,173.78L112.08,172.09L112.09,172.23L112.78,44.53L112.79,289.67L112.84,165.62L112.85,169.55L112.89,162.86L113.07,180.29L113.6,172.68L113.61,172.85L113.84,171.68L113.95,173.24L114.36,172.44L114.37,172.3L114.45,171.63L114.46,173.31L115.12,172.45L115.12,172.04L115.16,173.25L115.51,171.64L115.87,172.54L115.88,172.14L116.49,182.31L116.5,164.5L116.63,171.98L116.64,171.54L116.76,49.34L116.77,292.9L117.39,171.29L117.4,169.07L117.4,176.27L118.15,172.37L118.16,172.55L118.24,173.11L118.25,171.75L118.9,172.43L118.91,172.6L119.56,171.76L119.57,173.14L119.66,172.72L119.67,172.51L120.4,38.41L120.41,301.72L120.42,190.78L120.43,158.8L120.43,150.8L120.5,190L121.18,176.18L121.19,175.5L121.25,168.01L121.34,176.73L121.94,172.41L121.95,172.39L122.02,173.91L122.04,170.2L122.7,172.13L122.71,172.26L123.41,170.45L123.46,174.06L123.46,173.62L123.47,171.91L123.9,32.48L123.9,297.83L124.22,174.25L124.23,176.27L124.24,176.59L124.29,168.14L124.98,172.41L124.99,172.57L125.25,171.71L125.26,173.22L125.74,172.26L125.75,172.45L126.45,173.63L126.49,171.17L126.5,173.29L126.51,172.19L127.12,51.75L127.13,296.41L127.26,174.3L127.27,177.69L127.42,183.82L127.42,162.55L128.01,172.46L128.02,172.26L128.66,171.58L128.67,173.25L128.77,172.98L128.78,173.3L129.28,172.05L129.53,172.2L129.54,172.39L130.26,189.41L130.26,160.28L130.29,171.11L130.3,168.76L130.41,45.28L130.42,294.47L131.05,172.91L131.06,172.9L131.21,173.26L131.53,171.32L131.81,172.62L131.82,172.79L131.97,171.39L131.98,173.44L132.57,172.32L132.58,172.27L133.29,161.12L133.3,183.74L133.33,176.14L133.34,179.67L133.55,52L133.55,295.49L134.09,174.24L134.1,176.93L134.1,169.71L134.85,172.6L134.86,172.43L135.19,171.5L135.19,173.39L135.61,172.47L135.62,172.4L136.2,170.68L136.23,174.42L136.25,173.77L136.25,174.37L136.74,301.74L136.81,44.7L137,169.89L137.01,168.95L137.06,165.08L137.1,180.05L137.76,172.46L137.77,172.44L137.93,171.92L137.98,173.01L138.52,172.53L138.53,172.47L139.07,171.88L139.09,173.18L139.28,172.16L139.29,172.21L139.88,163.07L140.04,186.53L140.05,191.2L140.11,37.49L140.12,302.52L140.8,172.57L140.81,173.1L140.83,173.68L140.94,171.15L141.56,172.2L141.57,172.3L141.72,171.72L141.85,173.09L142.32,172.64L142.33,172.58L143.07,177.41L143.08,167.2L143.08,174.01L143.09,175.09L143.34,43.56L143.34,292.51L143.84,173.17L143.85,173.01L143.86,174.58L143.87,169.95L144.6,172.51L144.61,172.65L145.11,171.76L145.18,173.02L145.36,172.48L145.37,172.38L145.95,173.98L145.96,170.64L145.96,172.96L145.96,175.45L146.41,186.99L146.41,156.72L146.44,177L146.45,199.35L146.53,30.3L146.54,282.02L147.2,172.28L147.21,172.59L147.36,173.2L147.66,171.68L147.96,172.81L147.97,172.76L148.18,173.23L148.19,171.81L148.72,172.61L148.73,172.2L149.47,181.37L149.48,159.77L149.48,178.19L149.49,181.6L149.66,50.45L149.67,284.39L150.24,171.45L150.25,171.93L150.25,174.65L150.86,170.51L151,172.88L151.01,172.43L151.09,170.48L151.11,174.1L151.76,172.31L151.77,172.29L152.48,166.84L152.52,177.98L152.52,172.76L152.53,169.4L152.73,293.91L152.79,50.27L153.28,174.1L153.29,172.98L153.31,170.59L153.32,174.63L154.04,172.52L154.05,172.49L154.53,171.76L154.55,173.19L154.8,172.05L154.81,172.54L155.32,174L155.45,170.49L155.45,173.39L155.45,174.91L155.87,65.8L155.88,275.65L156.2,184.68L156.21,184.84L156.39,161.99L156.96,172.69L156.97,172.59L156.97,171.86L156.98,173.09L157.72,172.19L157.73,172.36L158.47,180.59L158.47,165.97L158.48,177.37L158.49,179.4L158.68,293.54L158.73,56.4L159.24,171.77L159.25,173.64L159.26,170.02L159.33,175.05L160,172.56L160.01,172.65L160.7,173.95L160.73,171.06L160.76,172.3L160.77,172.55L161.44,286.7L161.5,68.77L161.52,197.11L161.53,161.61L161.53,151.19L161.57,184.31L162.28,172.43L162.29,172.38L163.01,173.82L163.01,170.92L163.04,173.18L163.05,173.57L163.46,106.12L163.47,262.06L163.8,177.38L163.81,176.18L163.81,167.36L163.82,177.43L164.56,172.54L164.57,172.54L165.05,173.8L165.28,171.65L165.28,173.06L165.29,173.58L165.35,170.96L166.04,172.5L166.05,172.15L166.49,173.53L166.54,171.4L166.8,172.82L166.81,172.65L167.41,173.65L167.42,171.44L167.56,171.87L167.57,172.71L168.04,209L168.05,133.49L168.32,168.21L168.33,174.53L168.33,178.11L168.37,168.2L169.08,172.25L169.09,172.56L169.41,171.57L169.54,173.36L169.84,171.83L169.85,171.98L170,173.71L170.01,171.51L170.6,172.4L170.61,172.35L170.85,171.95L171.25,173.35L171.36,172.56L171.37,172.74L171.39,173.23L171.96,171.79L172.12,172.43L172.13,172.23L172.64,171.97L172.65,173.17L172.89,172.6L172.89,172.28L173.14,171.78L173.14,173.26L173.64,172.08L173.65,172.34L174.35,173.2L174.39,171.53L174.4,172.93L174.41,173.15L174.88,222.46L174.94,128.57L175.16,170.62L175.17,172.61L175.18,176.97L175.34,169.19L175.92,172.83L175.93,172.3L176.41,173.15L176.42,171.84L176.68,172.57L176.69,172.38L177.19,172.95L177.23,171.97L177.42,172.32L177.42,172.07L177.57,171.93L178.14,173.08L178.16,172.26L178.17,172.31L178.61,173.01L178.69,171.86L178.92,171.98L178.93,172.1L179.38,171.77L179.39,173.25L179.68,172.62L179.69,172.67L179.72,171.42L179.86,173.17L180.44,172.83L180.45,172.75L181.18,177.64L181.2,168.67L181.2,172.72L181.21,175.11L181.53,254.43L181.59,77.52L181.96,171.07L181.97,169.73L182.03,167.72L182.04,177.47L182.72,172.87L182.73,172.72L182.74,171.91L183.45,173.21L183.48,172.57L183.49,172.65L184.08,178.88L184.08,165.85L184.24,171.98L184.25,168.22L184.33,247.16L184.34,92.94L185,173.51L185.01,173.03L185.07,174.66L185.07,170.81L185.76,172.29L185.77,172.26L186.31,171.86L186.44,173.13L186.52,172.67L186.53,172.44L187.22,178.21L187.23,166.38L187.28,171.96L187.29,169.09L187.5,251.31L187.51,85.68L188.04,172.59L188.05,172.68L188.09,170.24L188.39,174.13L188.8,173.13L188.81,172.46L188.87,171.36L189.32,173.69L189.56,172.43L189.57,172.07L189.62,171.74L189.63,173.21L190.32,172.32L190.33,172.35L190.95,245.98L190.96,92.47L191.08,165.93L191.09,168.51L191.09,180.15L191.1,166.98L191.84,172.77L191.85,172.38L192,171.79L192.16,173.07L192.6,172.56L192.61,172.91L192.65,171.68L192.88,173.12L193.36,172.52L193.37,172.47L193.49,171.69L193.99,173.16L194.12,172.2L194.13,172.23L194.61,245.31L194.62,97.19L194.88,172.29L194.89,171.92L194.9,175.09L194.91,170L195.64,172.36L195.65,172.25L196.08,173.16L196.18,171.74L196.4,172.69L196.41,172.49L196.72,173.1L196.73,171.78L197.16,172.48L197.16,172.71L197.59,174.17L197.65,170.86L197.85,173.09L197.85,173.71L198.24,238.5L198.25,100.39L198.6,172.44L198.61,172.18L198.77,174.7L198.78,170.29L199.36,172.55L199.37,172.59L199.4,171.38L199.62,173.83L200.12,172.34L200.13,172.29L200.2,173.13L200.22,171.79L200.88,172.75L200.89,172.47L201.61,174.94L201.62,169.36L201.64,170.38L201.65,170.59L201.92,238.36L201.93,101.24L202.4,172.16L202.41,172.49L202.49,170.81L202.49,173.82L203.16,172.52L203.17,172.35L203.32,172.98L203.33,171.88L203.92,172.52L203.93,172.54L204.65,173.31L204.65,171.38L204.68,172.72L204.69,172.57L205.24,242.52L205.3,109.7L205.44,167.3L205.45,166.63L205.53,176.68L206.2,172.48L206.21,172.68L206.74,173.12L206.75,171.53L206.96,172.17L206.97,172.35L207.7,171.7L207.7,173.41L207.72,171.82L207.73,172.67L208.21,176.42L208.24,166.7L208.31,174.4L208.31,175.67L208.42,238.28L208.48,108.32L209.06,170.81L209.07,171.67L209.12,169.97L209.12,174.31L209.82,172.69L209.83,172.57L209.99,173.1L210.56,172.02L210.58,172.28L210.59,172.4L211.31,176.06L211.32,169.04L211.34,176.06L211.35,174.41L211.57,244.56L211.63,101.59L212.1,172.58L212.11,172.69L212.17,171.6L212.19,173.72L212.86,172.34L212.87,172.28L213.1,171.88L213.35,173.09L213.62,172.15L213.63,172.46L214.29,171.28L214.3,174.02L214.38,172.71L214.39,172.91L214.8,248.84L214.86,102.61L215.14,177.48L215.15,176.57L215.19,177.16L215.19,166.58L215.9,172.69L215.91,172.57L215.94,173.08L215.95,171.74L216.66,172.22L216.67,172.53L216.75,171.75L217.02,173.09L217.41,172.8L217.42,172.49L218.07,165.18L218.15,179.54L218.17,174.73L218.18,176.05L218.21,113.71L218.21,242.36L218.93,172.71L218.94,172.54L219.12,171.68L219.6,173.3L219.69,172.67L219.7,172.76L220.1,171.75L220.12,173.25L220.45,172.19L220.46,172.18L221.19,174.11L221.19,170.97L221.21,172.63L221.22,172.14L221.62,241.6L221.68,103.72L221.97,171.32L221.98,171.87L222,165.98L222.1,177.3L222.73,172.38L222.74,172.48L222.96,173.34L223.23,171.76L223.49,172.59L223.5,172.39L223.89,171.88L223.91,173.23L224.25,172.07L224.26,172.51L224.99,111.05L225,250.5L225.01,172.29L225.02,187.27L225.05,236.4L225.06,105.09L225.77,172.07L225.78,171.71L225.93,171.01L225.94,174.32L226.53,172.44L226.54,172.38L227.09,170.82L227.1,173.85L227.26,172.82L227.27,172.81L227.89,174.1L227.92,170.97L228.02,173.17L228.03,173.11L228.38,110.07L228.38,251.3L228.78,173.72L228.79,168.97L228.8,180.91L228.8,164.2L229.54,172.32L229.55,172.53L229.71,173.24L229.73,171.71L230.3,172.49L230.31,172.64L230.95,171.65L230.96,173.2L231.06,172.33L231.07,172.86L231.74,236.16L231.8,109.01L231.82,174.18L231.83,178.68L231.84,165.68L232.58,172.2L232.59,172.52L232.67,173.3L232.68,171.6L233.34,172.52L233.34,172.59L234.06,171.85L234.07,173.12L234.09,172.5L234.1,172.43L234.78,177.8L234.82,167.71L234.85,172.97L234.86,171.43L235.01,109.24L235.01,246.95L235.61,172.65L235.62,172.55L235.64,173.76L235.7,171.21L236.37,172.27L236.38,172.61L236.56,171.91L236.58,173.18L237.13,172.52L237.14,172.7L237.82,170.72L237.89,175.38L237.89,172.37L237.9,172.02L238.3,110.04L238.3,241.27L238.65,162.37L238.66,170.19L238.66,178.6L238.69,166.41L239.41,172.57L239.42,172.37L239.49,173.04L239.89,171.86L240.17,172.44L240.17,172.25L240.83,173.34L240.84,171.74L240.88,172.13L240.89,171.26L241.48,111.78L241.49,243.1L241.64,171.17L241.65,174.68L241.72,167.1L241.83,176.89L242.4,172.4L242.41,172.55L242.93,172.85L243.13,172.01L243.16,172.42L243.17,172.44L243.84,171.94L243.89,173.09L243.92,172.37L243.93,172.62L244.6,113.18L244.6,245.71L244.68,175.21L244.69,174.43L244.69,180.22L244.73,164.67L245.44,172.41L245.45,172.34L245.74,171.7L245.75,173.1L246.2,172.42L246.21,172.69L246.31,173.52L246.31,171.79L246.96,172.34L246.97,172.27L247.65,106.77L247.65,246.53L247.72,169.61L247.73,150.81L247.73,148.91L247.88,187.94L248.48,172.6L248.49,172.72L248.76,173.24L248.78,171.51L249.24,172.43L249.25,172.4L249.9,174.26L249.94,170.92L250,172.11L250.01,173.59L250.66,110.16L250.66,247.06L250.76,175.95L250.77,171.44L250.82,177.72L250.89,167.51L251.52,172.95L251.53,172.84L251.57,173.24L252.05,171.56L252.28,172L252.29,172.03L252.93,171.33L252.94,173.28L253.04,171.78L253.05,172.73L253.7,228.3L253.76,118.35L253.8,171.31L253.81,173.91L253.85,168.31L253.89,178.38L254.56,172.72L254.57,173.02L255.27,173.29L255.27,171.81L255.32,172.91L255.33,172.92L255.97,171.11L255.98,173.68L256.08,172.11L256.09,172.02L256.78,229.09L256.84,119L256.85,138.18L256.85,211.38L257.6,172.35L257.61,172.29L257.67,171.79L258.04,173.09L258.36,172.36L258.37,171.92L258.38,173.8L258.4,171.27L259.12,172.33L259.13,172.94L259.86,119.84L259.87,236.79L259.88,179.12L259.89,175.96L259.92,215.31L259.93,127.4L260.64,172.51L260.65,172.51L261.21,173.34L261.22,171.5L261.4,172.6L261.41,172.1L261.77,173.56L261.97,171.35L262.16,172.25L262.17,172.66L262.74,168.25L262.76,175.63L262.92,174.07L262.93,169.93L262.94,121.5L262.94,232.93L263.68,172.48L263.69,172.76L264.26,171.55L264.27,173.33L264.44,172.31L264.45,172.78L264.55,173.57L264.72,171.4L265.2,171.92L265.21,171.51L265.95,130.01L265.95,221.93L265.96,161.08L265.97,165.95L266.01,215.29L266.01,122.91L266.72,172.67L266.73,173.12L267.32,171.58L267.36,173.59L267.48,172.91L267.49,172.54L268.1,171.13L268.23,173.59L268.24,172.04L268.25,172.36L268.98,123.09L268.98,230.52L269,170.22L269.01,172.95L269.03,213.45L269.04,131.79L269.76,172.39L269.77,172.89L269.82,171.39L270.34,173.78L270.52,172.95L270.53,172.86L270.57,171.43L270.72,173.63L271.28,172.87L271.29,172.98L272.03,131.65L272.04,219.92L272.04,171.76L272.05,157.11L272.09,213.57L272.1,129.94L272.8,172.33L272.81,172.15L273.1,173.24L273.28,171.49L273.56,172.09L273.57,172.27L273.57,173.29L273.7,171.6L274.32,172.74L274.33,172.61L275.03,127.06L275.03,226.34L275.08,212.48L275.09,200.38L275.09,130.5L275.1,203.03L275.84,172.46L275.85,172.47L275.94,171.9L275.95,172.92L276.58,172.57L276.59,172.8L276.89,171.86L276.89,173.13L277.34,172.52L277.35,172.62L278.02,217.36L278.08,129.59L278.1,177.38L278.11,174.85L278.11,175.77L278.16,168.46L278.86,172.51L278.87,172.48L279.42,172L279.43,173.05L279.62,172.47L279.63,172.59L280.36,173.24L280.36,171.54L280.38,172.17L280.38,172.72L281.03,216.99L281.09,130.3L281.13,173.53L281.14,172.98L281.15,168.66L281.21,176.42L281.89,172.12L281.9,172.25L282.16,173.4L282.16,171.63L282.65,172.5L282.66,172.51L283.33,173.24L283.41,171.71L283.41,171.78L283.42,172.41L284.09,209.37L284.1,134.32L284.17,171.04L284.18,167.58L284.18,167.08L284.18,178.54L284.93,172.37L284.94,172.29L285.13,171.85L285.23,173.2L285.69,172.66L285.7,172.67L285.79,173L286.41,171.91L286.45,172.69L286.46,172.52L287.1,134.28L287.11,218.89L287.21,171.68L287.22,172.04L287.34,175.71L287.46,169.03L287.97,172.28L287.98,172.49L288.31,172.04L288.45,172.96L288.73,172.58L288.74,172.49L289.47,171.98L289.48,173.02L289.49,172.32L289.5,172.55L290.14,135.71L290.14,215.95L290.25,172.18L290.26,174.13L290.27,168.21L290.6,177.38L291.01,172.76L291.02,172.76L291.58,172.96L291.71,172.01L291.77,172.37L291.78,172.45L292.45,171.42L292.47,173.4L292.53,172.74L292.54,172.48L293.19,210.68L293.25,133.07L293.29,169.13L293.3,170.1L293.3,176.55L293.31,167.21L294.05,172.56L294.06,172.61L294.1,172.05L294.59,173.04L294.81,172.79L294.82,172.72L294.92,171.84L295.57,173.44L295.57,172.17L295.58,172.16L296.25,212.64L296.31,137.01L296.33,179.4L296.34,176.88L296.39,167.99L296.4,177.15L297.09,172.54L297.1,172.33L297.23,171.93L297.31,173.13L297.85,172.34L297.86,172.39L298.59,171.9L298.59,173.07L298.61,172.83L298.62,172.7L299.3,139.74L299.31,211.98L299.37,199.73L299.38,186.35L299.38,157.75L300.13,172.37L300.14,172.28L300.56,172.11L300.78,172.92L300.88,172.64L300.89,172.37L300.98,171.19L301.12,173.76L301.64,172.49L301.65,172.54L302.12,175.34L302.28,170.05L302.29,172.78L302.29,176.3L302.3,209.75L302.36,138.7L303.04,172.43L303.05,172.57L303.05,173.07L303.56,172.06L303.8,172.36L303.81,172.49L304.37,171.97L304.54,173.03L304.56,172.73L304.57,173.05L305.28,145.41L305.28,207.17L305.32,175.06L305.33,163.88L305.34,207.07L305.34,136.49L306.08,172.53L306.09,172.53L306.54,173.23L306.55,171.81L306.84,172.19L306.85,172.67L307.29,173.15L307.29,171.81L307.6,172.8L307.61,172.57L308.31,208.51L308.31,138.1L308.36,172.68L308.37,168.62L308.37,177.56L308.38,167.24L309.12,172.63L309.13,172.64L309.8,172.92L309.82,171.97L309.87,172.55L309.88,172.63L310.46,173.22L310.47,171.88L310.63,172.39L310.64,172.4L311.37,205.83L311.38,137.24L311.39,164.38L311.4,158.53L311.41,176.57L312.15,172.62L312.16,172.4L312.22,172.9L312.3,171.91L312.91,172.34L312.92,172.7L313.11,173.27L313.12,171.72L313.67,172.57L313.68,172.33L314.21,169.86L314.27,176.2L314.43,170.74L314.44,172.75L314.5,207.29L314.51,138.73L315.19,172.46L315.2,172.17L315.43,173.07L315.44,171.83L315.95,172.39L315.96,172.19L316.41,173.06L316.55,171.82L316.71,172.64L316.72,172.57L317.17,170.62L317.34,173.83L317.42,172.73L317.42,173.84L317.76,201.95L317.82,140.82L318.17,171.31L318.18,172.13L318.18,173.78L318.19,171.37L318.93,171.94L318.94,172.51L319.41,171.92L319.63,173.15L319.69,173.05L319.7,172.23L319.7,171.9L319.82,173.2L320.45,172.46L320.46,172.42L321.09,169.29L321.1,176.27L321.21,172.03L321.22,172.73L321.38,205.74L321.39,139.47L321.97,172.44L321.98,172.14L322.44,173.02L322.45,171.91L322.73,172.21L322.74,172.28L323.01,171.78L323.01,173.02L323.49,172.42L323.5,172.33L323.54,172.96L323.92,172.05L324.25,172.31L324.26,172.41L324.98,174.57L324.99,170.21L325.01,172.1L325.02,172.38L325.24,204.37L325.25,140.66L325.77,172.22L325.78,173.11L325.78,173.28L325.83,171.79L326.53,172.52L326.54,172.76L326.56,173.42L327.16,171.81L327.29,172.67L327.3,172.69L327.94,173.23L327.95,171.56L328.05,172.86L328.06,172.51L328.78,173.62L328.81,171.41L328.81,172.57L328.82,173.16L329.19,203.96L329.19,141.13L329.57,173.84L329.58,173.78L329.61,171.4L330.33,172.27L330.34,172.41L330.64,173.19L330.73,171.79L331.09,172.65L331.1,172.43L331.22,173.22L331.23,171.69L331.85,172.58L331.86,172.7L332.13,173.19L332.14,171.78L332.61,172.09L332.62,171.84L333.24,200.77L333.25,142.03L333.37,173.15L333.38,173.24L333.42,174.73L333.43,169.86L334.13,172.26L334.14,172.45L334.4,171.95L334.53,173.2L334.89,172.36L334.9,172.65L335.43,173.02L335.52,171.9L335.65,172.43L335.66,172.38L336.14,171.81L336.18,173.24L336.41,172.99L336.42,172.56L336.88,171.21L337.08,173.94L337.17,173.16L337.18,172.26L337.47,202.49L337.48,143.02L337.93,173.22L337.94,173.33L338.18,173.34L338.19,171.63L338.69,171.83L338.7,171.94L338.71,173L339.45,172.97L339.46,172.63L339.47,173.13L340.03,171.92L340.21,172.42L340.22,172.35L340.23,173L340.61,171.92L340.97,172.71L340.98,172.48L341.69,173.9L341.73,171.33L341.73,172.73L341.74,173.21L342.07,198.73L342.07,142.46L342.49,172.99L342.5,172.9L342.53,173.38L343.1,171.39L343.25,172.39L343.26,172.59L343.37,173.1L343.48,171.81L344.01,172.86L344.02,172.77L344.41,171.85L344.55,173.24L344.77,172.67L344.78,172.5L345.29,171.87L345.51,173.06L345.53,172.74L345.54,172.66L346.05,173.07L346.06,171.85L346.29,172.48L346.3,172.48L347.04,155.73L347.04,191.69L347.05,166.78L347.06,170.96L347.09,200.5L347.1,144.53L347.81,172.35L347.82,172.1L348.22,172.99L348.45,171.88L348.57,172.4L348.58,172.36L348.88,172.96L348.89,171.92L349.33,172.55L349.34,173.04L349.46,173.12L350.01,171.84L350.09,172.52L350.1,172.56L350.16,172.89L350.84,171.89L350.85,172.36L350.85,172.76L350.87,171.94L351,173.19L351.59,172.42L351.6,172.69L351.81,171.96L351.82,173.17L352.35,172.16L352.36,172.48L352.97,197.54L352.98,146.99L353.11,172.38L353.12,172.71L353.14,175.2L353.18,169.68L353.87,172.67L353.88,173.03L354.05,171.47L354.19,173.35L354.63,172.87L354.64,172.57L355.03,173.38L355.04,171.44L355.39,172.42L355.4,172.41L355.95,171.49L355.96,173.02L356.15,172.3L356.16,172.21L356.72,171.86L356.74,173.09L356.91,172.43L356.92,172.59L357.57,173.07L357.59,171.52L357.66,172.37L357.67,172.71L357.74,171.97L358.25,172.96L358.42,172.31L358.43,172.5L358.88,173.17L358.89,171.84L359.17,172.46L359.18,172.61L359.74,174.82L359.75,160.59L359.76,166.15L359.76,181.37L359.81,196.25L359.82,147.38L360.51,171.78L360.52,172.23L360.58,173.85L360.59,170.97L361.27,172.08L361.28,172.52L361.29,173.21L361.3,171.66L362.03,172.44L362.04,172.56L362.52,171.86L362.53,173.12L362.79,172.56L362.8,172.42L363.32,173.04L363.45,171.94L363.54,172.49L363.55,172.38L364.3,173.17L364.3,171.45L364.3,171.94L364.31,171.98L364.31,173.63L364.34,171.57L365.06,172.56L365.07,172.67L365.17,173.19L365.36,171.9L365.82,173.03L365.83,172.61L366.34,173.09L366.38,171.84L366.58,172.73L366.59,172.55L366.97,171.85L366.98,172.96L367.34,172.27L367.35,172.47L367.45,173.66L367.47,171.49L368.1,172.47L368.11,172.5L368.7,189.41L368.71,153.22L368.86,172.12L368.87,172.1L368.98,170.53L369.03,174.37L369.62,172.22L369.63,172.55L369.74,171.85L370.29,173.09L370.36,172.34L370.37,172.29L370.49,173.27L370.57,171.69L371.12,172.73L371.13,172.7L371.51,173.28L371.77,171.25L371.88,172.46L371.89,172.91L372.13,173.39L372.6,171.38L372.64,172.91L372.65,172.62L372.72,173.27L373.38,171.5L373.4,172.47L373.41,172.29L373.51,171.65L373.59,173.63L374.16,172.42L374.17,172.5L374.53,171.66L374.54,173.47L374.89,172.73L374.89,172.88L375.33,173.4L375.34,171.25L375.63,172.28L375.64,172.73L375.7,173.77L375.71,171.36L376.39,172.87L376.4,172.77L376.54,171.5L376.54,173.42L377.15,172.5L377.16,172.74L377.2,171.61L377.21,173.35L377.9,172.42L377.91,172.69L378.34,173.28L378.55,171.32L378.66,172.22L378.67,172.29L379.12,171.6L379.32,173.33L379.42,172.18L379.43,172.58L379.98,173.34L380.09,171.74L380.18,172.81L380.19,172.13L380.53,171.53L380.72,173.36L380.94,172.17L380.95,172.49L381.29,173.41L381.42,171.56L381.7,172.33L381.71,172.59L382.24,181.83L382.25,161.52L382.46,173.45L382.47,173.78L382.49,174.33L382.5,170.63L383.22,173.18L383.23,173L383.59,171.62L383.75,173.28L383.98,172.13L383.99,172.22L384.09,173.45L384.33,171.72L384.74,172.15L384.75,172.33L384.86,173.27L385.18,171.75L385.5,172.45L385.51,172.46L386.17,171.18L386.18,173.81L386.18,174.3L386.19,174.59L386.2,170.34L386.84,172.12L386.85,171.68L386.85,170.93L387.02,173.75L387.6,172.74L387.61,172.9L388.04,171.39L388.33,174.01L388.36,172.71L388.37,172.26L388.39,173.34L388.55,171.48L389.12,171.88L389.13,171.75L389.38,170.92L389.47,173.89L389.88,172.58L389.89,172.65L390.19,173.51L390.28,171.56L390.64,171.83L390.65,171.98L390.78,171.85L390.8,173.09L391.4,172.54L391.41,172.46L392.09,171.8L392.16,173.3L392.16,173.11L392.17,172.12L392.18,171.83L392.73,173.01L392.92,172.52L392.93,172.45L393.33,173.08L393.43,171.96L393.68,172.61L393.69,172.47L393.81,171.71L393.93,173.19L394.42,172.35L394.43,172.23L394.79,171.81L394.87,172.94L395.18,172.04L395.19,172.28L395.47,171.77L395.48,172.97L395.94,172.24L395.95,172.37L396.08,171.94L396.27,172.91L396.7,172.36L396.71,172.24L397.12,171.71L397.25,173.3L397.46,172.71L397.47,172.6L397.91,172.98L398.16,171.87L398.22,172.86L398.23,172.85L398.76,171.83L398.77,173.12L398.98,172.36L398.99,172.47L399.18,172L399.52,172.92L399.74,172.25L399.75,172.33L400.39,171.77L400.39,173.19L400.49,172.63L400.49,172.43L400.52,173.39L400.84,171.51L401.24,172.12L401.25,172.38L401.82,172.05L401.94,172.9L402,172.58L402.01,172.67L402.46,173.31L402.7,171.64L402.76,171.75L402.77,171.57L403.25,173.56L403.52,172.16L403.53,172.41L403.7,171.75L403.71,173.11L404.28,172.39L404.29,172.59L404.37,173.1L404.72,171.98L405.04,172.66L405.05,172.56L405.35,173.13L405.35,171.84L405.8,172.49L405.81,172.69L406.46,172.02L406.53,173.05L406.56,172.54L406.57,172.72L407,171.69L407.14,173.35L407.32,172.56L407.33,172.31L407.42,172.06L407.63,172.99L408.07,172.45L408.07,172.12L408.65,171.59L408.76,173.13L408.82,172.68L408.83,172.51L408.93,173.07L409.45,171.95L409.58,172.26L409.59,172.59L410.29,173.24L410.29,171.62L410.34,172.5L410.34,172.62L410.4,172.97L410.48,172.06L411.09,172.56L411.1,172.74L411.29,172.01L411.3,173.02L411.85,172.6L411.86,172.71L411.92,173.24L411.93,171.64L412.61,172.58L412.62,172.38L413.11,172.05L413.35,172.98L413.37,172.78L413.38,172.56L413.58,171.76L413.58,173.44L414.13,172.65L414.14,172.6L414.46,171.91L414.87,172.97L414.89,172.47L414.9,172.39L415.23,173.35L415.63,171.92L415.65,172.29L415.66,172.63L416.02,172.93L416.37,171.93L416.41,172.36L416.41,172.61L416.88,171.77L417.01,173.14L417.16,172.44L417.17,172.35L417.66,173.28L417.68,171.92L417.92,172.55L417.93,172.49L418.51,171.76L418.52,173.09L418.68,172.25L418.69,172.27L418.94,172.93L419.28,172L419.44,172.66L419.45,172.61L420.16,173.03L420.17,171.8L420.2,172.7L420.21,172.32L420.29,173L420.29,171.95L420.96,172.41L420.96,172.02L421.15,172.98L421.71,172.63L421.72,172.65L421.8,173.08L421.81,171.64L422.47,172.47L422.48,172.37L423.1,173.01L423.11,171.99L423.23,172.52L423.24,172.64L423.46,171.97L423.47,173.03L423.99,172.49L424,172.36L424.21,172.91L424.59,172.06L424.75,172.7L424.76,172.6L425.12,171.68L425.12,173.11L425.51,172.48L425.52,172.49L425.94,172.05L426.1,172.93L426.27,172.29L426.27,172.67L426.76,171.8L426.9,173.24L427.02,172.28L427.02,172.58L427.53,172.94L427.66,172.01L427.78,172.34L427.78,172.55L428.09,171.57L428.1,173.33L428.52,172.26L428.53,172.1L428.53,171.95L428.54,173.25L429.28,172.37L429.29,172.5L429.66,173.01L430.04,171.99L430.05,172.24L430.06,173.35L430.06,171.95L430.8,172.5L430.81,172.61L431.21,172.95L431.24,171.93L431.56,172.49L431.57,172.55L431.68,172.98L432.23,171.98L432.32,172.35L432.32,172.64L432.71,171.76L432.71,173.1L433.07,172.5L433.07,172.7L433.35,172.94L433.35,171.9L433.82,172.45L433.83,172.47L433.98,173L434.26,171.96L434.58,172.37L434.59,172.2L435,172.96L435,171.85L435.34,172.49L435.35,172.69L435.63,171.95L435.97,172.9L436.1,172.52L436.11,172.37L436.64,171.87L436.78,173.13L436.86,172.61L436.86,172.34L436.99,172.99L437.09,171.83L437.61,172.45L437.62,172.6L437.73,173.02L438.28,171.99L438.37,172.24L438.38,172.46L438.4,171.96L438.43,172.92L439.12,172.39L439.13,172.29L439.18,173.03L439.19,172.03L439.88,172.34L439.89,172.45L439.93,171.94L440.05,173.15L440.64,172.2L440.65,172.4L440.94,172.93L441,172.06L441.4,172.55L441.41,172.65L441.59,173.01L442.05,171.95L442.16,172.44L442.17,172.4L442.17,172.95L442.91,171.87L442.92,172.24L442.93,172.2L443.22,171.75L443.24,173.14L443.68,172.6L443.69,172.64L443.9,172.03L444.21,172.92L444.44,172.26L444.45,172.56L444.85,171.78L444.99,173.06L445.21,172.4L445.21,172.46L445.44,173.11L445.75,171.98L445.95,172.61L445.96,172.38L446,173.06L446.42,171.84L446.71,172.2L446.72,172.54L447,173.25L447.01,171.79L447.47,172.43L447.47,172.66L448.16,171.77L448.17,173.17L448.23,172.34L448.23,172.48L448.31,172.96L448.32,172.09L448.96,172.34L448.97,172.15L449.18,172.02L449.19,172.96L449.72,172.41L449.73,172.38L449.92,171.94L449.93,173.03L450.48,172.57L450.48,172.35L450.91,172.85L450.94,171.95L451.22,172.36L451.22,172.12L451.46,171.85L451.46,173.03L451.97,172.44L451.98,172.48L452.09,171.98L452.1,173.01L452.73,172.3L452.74,172.39L453.11,171.99L453.25,173.02L453.48,172.43L453.49,172.4L453.7,172.11L453.86,172.96L454.22,172.37L454.23,172.22L454.52,171.37L454.76,174.18L454.98,172.61L454.99,172.61L455.4,171.82L455.41,173.22L455.74,172.1L455.75,172.21L456.41,171.66L456.41,173.03L456.5,172.2L456.51,172.47L456.54,173.09L457.19,171.96L457.25,172.47L457.26,172.41L457.33,172.99L457.68,172.03L458.01,172.38L458.02,172.2L458.11,172.1L458.6,173.05L458.77,172.46L458.78,172.61L459.46,173L459.47,172.09L459.53,172.55L459.54,172.48L459.7,173.17L459.7,171.71L460.29,172.47L460.29,172.2L460.31,171.81L460.42,173.15L461.04,172.66L461.05,172.59L461.35,171.76L461.36,173.03L461.8,172.55L461.81,172.43L461.83,172.91L462.11,172.02L462.54,172.44L462.54,172.84L462.98,171.99L462.99,173.05L463.29,172.44L463.3,172.43L463.57,173.46L463.83,171.66L464.04,172.3L464.04,171.99L464.63,171.73L464.75,173.25L464.79,172.24L464.8,172.36L464.87,172.96L464.95,171.98L465.55,172.63L465.56,172.81L465.98,172.02L466.28,173.02L466.31,172.88L466.32,172.81L466.42,173.2L466.89,172L467.07,172.28L467.08,172.28L467.13,172.06L467.56,172.87L467.83,172.44L467.84,172.19L467.92,173.14L467.94,171.8L468.59,172.67L468.6,172.46L468.87,172.91L468.93,172.02L469.35,172.55L469.36,172.58L469.58,171.89L470.05,173.01L470.11,172.65L470.12,172.49L470.84,171.99L470.87,172.92L470.88,172.48L471.21,173.27L471.23,171.54L471.63,172.61L471.64,172.47L472.16,172.96L472.17,172.07L472.39,172.37L472.4,172.51L472.86,173.2L472.87,171.58L473.14,172.53L473.14,172.9L473.5,172.01L473.89,172.28L473.9,172.52L474.52,173.07L474.53,171.9L474.65,172.76L474.66,172.77L474.67,172.05L474.89,172.98L475.41,172.55L475.42,172.62L475.76,171.93L476.16,172.93L476.17,172.92L476.18,171.95L476.6,173.24L476.78,171.78L476.93,172.14L476.94,172.55L476.94,173.11L477.03,171.74L477.69,172.76L477.7,172.81L477.8,173.54L477.99,171.59L478.45,172.53L478.46,172.66L478.98,173.32L479.02,171.14L479.21,172.24L479.22,172.99L479.33,173.69L479.47,171.75L479.97,172.14L479.98,172.58L480.07,173.36L480.29,171.58L480.73,172.75L480.74,172.44L481.11,173.35L481.11,171.66L481.49,172.35L481.5,172.48L481.93,173.39L481.94,171.31L482.25,172.6L482.26,172.73L482.75,173.81L482.75,171.42L483.01,172.59L483.02,172.3L483.04,171.36L483.63,173.41L483.77,173.11L483.78,171.89L484.06,171.71L484.1,173.29L484.53,172.25L484.54,172.56L484.57,171.66L485.18,173.22L485.29,172.53L485.3,172.64L485.72,171.55L485.82,173.39L486.05,171.94L486.06,172.36L486.69,171.67L486.76,173.6L486.81,172.37L486.82,172.62L486.96,171.61L487.15,173.33L487.57,172.33L487.58,172.32L487.69,173.12L487.7,171.86L488.33,172.33L488.34,172.44L488.71,172L488.9,173.16L489.08,172.62L489.09,172.45L489.36,171.7L489.37,173.06L489.84,172.68L489.85,172.57L490.34,172.06L490.38,172.92L490.6,172.45L490.61,172.59L491.32,173.63L491.33,171.47L491.36,172.32L491.37,172.03L491.38,171.97L491.4,173.18L492.12,172.26L492.13,172.22L492.55,174.29L492.6,171.01L492.88,172.13L492.89,172.26L492.91,171.86L493.12,173.01L493.64,172.7L493.65,172.57L494.28,171.75L494.39,173.03L494.4,172.54L494.41,173.01L494.42,171.84L494.65,173.06L495.16,172.21L495.17,172.23L495.77,172.95L495.92,171.83L495.93,172.18L495.93,173.12L495.93,171.76L496.68,172.61L496.69,172.4L496.73,171.95L496.75,173.16L497.44,172.83L497.45,172.55L497.57,171.61L497.58,173.27L498.2,173.12L498.21,172.8L498.26,173.18L498.27,171.52L498.96,172.7L498.97,172.89L499.06,172.98L499.1,171.89L499.72,172.45L499.73,172.35L500.4,171.68L500.43,173.37L500.48,172.34L500.49,172.55L500.88,173.32L500.89,171.77L501.24,172.61L501.25,172.64L501.41,172.93L501.42,171.88L502,172.49L502.01,172.41L502.51,173.02L502.52,171.89L502.77,172.93L502.77,172.49L503.04,171.92L503.2,172.93L503.52,172.81L503.53,172.52L503.89,173.09L504.17,171.93L504.28,172.33L504.29,172.39L504.81,173.03L505.02,171.84L505.04,172.49L505.05,172.55L505.67,171.95L505.8,173.34L505.8,172.76L505.81,172.18L505.81,171.86L505.92,173.08L506.56,172.48L506.57,172.69L506.84,172.04L507.3,172.89L507.32,172.73L507.33,172.59L507.44,173.1L507.46,171.8L508.08,172.37L508.09,172.58L508.44,172.86L508.65,172.09L508.84,172.6L508.85,172.26L509.11,173.21L509.11,171.9L509.6,172.69L509.61,172.53L509.76,172.11L510.21,172.83L510.36,172.56L510.37,172.45L510.74,171.82L510.89,173.1L511.12,172.69L511.13,172.49L511.8,171.97L511.84,172.95L511.88,172.32L511.89,172.05L512.39,171.64L512.4,173.32L512.64,172.48L512.65,172.65L512.87,172.96L512.87,172L513.4,172.36L513.41,172.51L514.05,173.27L514.05,171.75L514.16,172.23L514.17,172.56L514.27,172.9L514.42,172.07L514.92,172.32L514.93,172.59L514.97,171.99L515.68,173L515.68,172.73L515.69,172.06L515.7,171.95L516.29,173.12L516.44,172.22L516.45,172.44L516.64,172L517.2,172.92L517.21,172.68L517.34,173.17L517.41,171.86L517.96,172.61L517.97,172.63L518.07,173L518.67,172.01L518.72,172.87L518.73,172.75L518.99,173.08L518.99,171.88L519.48,172.58L519.49,172.61L519.94,171.93L519.94,173.05L520.24,172.47L520.25,172.44L520.63,173.03L520.64,171.91L521,172.36L521.01,172.47L521.03,172.03L521.73,172.97L521.76,172.54L521.77,172.45L522.26,171.86L522.26,173.1L522.49,172.44L522.49,172.14L522.96,173.02L522.97,171.94L523.24,172.58L523.25,172.49L523.59,173.39L523.6,171.65L524,172.62L524.01,172.38L524.04,172.04L524.38,172.92L524.76,172.38L524.77,172.21L525.25,171.17L525.26,174.42L525.52,172.02L525.53,171.83L525.63,174.18L525.64,170.48L526.28,172.56L526.29,172.82L526.33,173L526.93,172.03L527.04,172.59L527.05,172.52L527.2,171.86L527.21,173.06L527.8,172.52L527.81,172.47L528.12,172.06L528.55,172.89L528.56,172.53L528.56,172.31L528.86,171.59L528.87,173.16L529.31,172.43L529.32,172.28L529.86,172.95L529.96,172.03L530.07,172.52L530.08,172.43L530.51,171.91L530.66,173.06L530.83,172.57L530.84,172.53L530.97,172.94L531.54,171.97L531.59,172.45L531.6,172.47L532.16,173.22L532.19,171.94L532.35,172.26L532.36,172.13L532.46,173.16L533.04,171.95L533.11,172.49L533.12,172.46L533.8,171.69L533.82,173.07L533.87,172.23L533.88,172.49L533.91,171.93L533.92,173.02L534.63,172.52L534.64,172.54L535.01,172.07L535.19,173.14L535.39,172.24L535.4,172.33L535.45,172.02L535.46,173.01L536.15,172.45L536.16,172.66L536.23,172.88L536.39,171.93L536.91,172.27L536.92,172.42L537.1,173.2L537.21,171.9L537.67,172.51L537.68,172.49L537.8,172.04L538.09,172.9L538.43,172.35L538.44,172.51L538.76,171.9L538.86,173.29L539.18,172.33L539.19,172.64L539.3,172.08L539.55,172.87L539.93,172.76L539.93,172.79L540.38,173.45L540.4,171.56L540.68,172.58L540.69,172.66L540.69,172.86L540.72,172.11L540.82,172.37" style="vector-effect: non-scaling-stroke; fill: none; stroke: rgb(0, 154, 250); stroke-opacity: 1; stroke-width: 1px; opacity: 1;"/></g><g class="points"/><g class="text"/></g></g></g><g class="overplot"/><path class="xlines-above crisp" d="M38.4925634295713,366.95669291338584H596.0629921259842" style="fill: none; stroke-width: 1px; stroke: rgb(0, 0, 0); stroke-opacity: 1;"/><path class="ylines-above crisp" d="M38.9925634295713,41.04330708661415V366.45669291338584" style="fill: none; stroke-width: 1px; stroke: rgb(0, 0, 0); stroke-opacity: 1;"/><g class="overlines-above"/><g class="xaxislayer-above"><path class="xtick ticks crisp" d="M0,366.45669291338584v-5" transform="translate(55.2425634295713,0)" style="stroke: rgb(0, 0, 0); stroke-opacity: 1; stroke-width: 1px;"/><path class="xtick ticks crisp" d="M0,366.45669291338584v-5" transform="translate(158.1725634295713,0)" style="stroke: rgb(0, 0, 0); stroke-opacity: 1; stroke-width: 1px;"/><path class="xtick ticks crisp" d="M0,366.45669291338584v-5" transform="translate(261.1125634295713,0)" style="stroke: rgb(0, 0, 0); stroke-opacity: 1; stroke-width: 1px;"/><path class="xtick ticks crisp" d="M0,366.45669291338584v-5" transform="translate(364.0425634295713,0)" style="stroke: rgb(0, 0, 0); stroke-opacity: 1; stroke-width: 1px;"/><path class="xtick ticks crisp" d="M0,366.45669291338584v-5" transform="translate(466.9725634295713,0)" style="stroke: rgb(0, 0, 0); stroke-opacity: 1; stroke-width: 1px;"/><path class="xtick ticks crisp" d="M0,366.45669291338584v-5" transform="translate(569.9125634295713,0)" style="stroke: rgb(0, 0, 0); stroke-opacity: 1; stroke-width: 1px;"/><g class="xtick"><text text-anchor="middle" x="0" y="380.6566929133858" transform="translate(55.2425634295713,0)" style="font-family: sans-serif; font-size: 11px; fill: rgb(0, 0, 0); fill-opacity: 1; white-space: pre; opacity: 1;">0</text></g><g class="xtick"><text text-anchor="middle" x="0" y="380.6566929133858" style="font-family: sans-serif; font-size: 11px; fill: rgb(0, 0, 0); fill-opacity: 1; white-space: pre; opacity: 1;" transform="translate(158.1725634295713,0)">1</text></g><g class="xtick"><text text-anchor="middle" x="0" y="380.6566929133858" style="font-family: sans-serif; font-size: 11px; fill: rgb(0, 0, 0); fill-opacity: 1; white-space: pre; opacity: 1;" transform="translate(261.1125634295713,0)">2</text></g><g class="xtick"><text text-anchor="middle" x="0" y="380.6566929133858" style="font-family: sans-serif; font-size: 11px; fill: rgb(0, 0, 0); fill-opacity: 1; white-space: pre; opacity: 1;" transform="translate(364.0425634295713,0)">3</text></g><g class="xtick"><text text-anchor="middle" x="0" y="380.6566929133858" style="font-family: sans-serif; font-size: 11px; fill: rgb(0, 0, 0); fill-opacity: 1; white-space: pre; opacity: 1;" transform="translate(466.9725634295713,0)">4</text></g><g class="xtick"><text text-anchor="middle" x="0" y="380.6566929133858" style="font-family: sans-serif; font-size: 11px; fill: rgb(0, 0, 0); fill-opacity: 1; white-space: pre; opacity: 1;" transform="translate(569.9125634295713,0)">5</text></g></g><g class="yaxislayer-above"><path class="ytick ticks crisp" d="M39.4925634295713,0h5" transform="translate(0,298.16330708661417)" style="stroke: rgb(0, 0, 0); stroke-opacity: 1; stroke-width: 1px;"/><path class="ytick ticks crisp" d="M39.4925634295713,0h5" transform="translate(0,213.52330708661412)" style="stroke: rgb(0, 0, 0); stroke-opacity: 1; stroke-width: 1px;"/><path class="ytick ticks crisp" d="M39.4925634295713,0h5" transform="translate(0,128.88330708661414)" style="stroke: rgb(0, 0, 0); stroke-opacity: 1; stroke-width: 1px;"/><path class="ytick ticks crisp" d="M39.4925634295713,0h5" transform="translate(0,44.23330708661415)" style="stroke: rgb(0, 0, 0); stroke-opacity: 1; stroke-width: 1px;"/><g class="ytick"><text text-anchor="end" x="36.292563429571295" y="3.8499999999999996" transform="translate(0,298.16330708661417)" style="font-family: sans-serif; font-size: 11px; fill: rgb(0, 0, 0); fill-opacity: 1; white-space: pre; opacity: 1;">−0.2</text></g><g class="ytick"><text text-anchor="end" x="36.292563429571295" y="3.8499999999999996" style="font-family: sans-serif; font-size: 11px; fill: rgb(0, 0, 0); fill-opacity: 1; white-space: pre; opacity: 1;" transform="translate(0,213.52330708661412)">0.0</text></g><g class="ytick"><text text-anchor="end" x="36.292563429571295" y="3.8499999999999996" style="font-family: sans-serif; font-size: 11px; fill: rgb(0, 0, 0); fill-opacity: 1; white-space: pre; opacity: 1;" transform="translate(0,128.88330708661414)">0.2</text></g><g class="ytick"><text text-anchor="end" x="36.292563429571295" y="3.8499999999999996" style="font-family: sans-serif; font-size: 11px; fill: rgb(0, 0, 0); fill-opacity: 1; white-space: pre; opacity: 1;" transform="translate(0,44.23330708661415)">0.4</text></g></g><g class="overaxes-above"/></g></g><g class="polarlayer"/><g class="ternarylayer"/><g class="geolayer"/><g class="funnelarealayer"/><g class="pielayer"/><g class="iciclelayer"/><g class="treemaplayer"/><g class="sunburstlayer"/><g class="glimages"/><defs id="topdefs-f569f2"><g class="clips"/><clipPath id="legendf569f2"><rect width="57" height="29" x="1" y="1"/></clipPath></defs><g class="layer-above"><g class="imagelayer"/><g class="shapelayer"/></g><g class="infolayer"><g class="legend" pointer-events="all" transform="translate(541,20)"><rect class="bg" shape-rendering="crispEdges" width="58" height="30" x="0.5" y="0.5" style="stroke: rgb(0, 0, 0); stroke-opacity: 1; fill: rgb(255, 255, 255); fill-opacity: 1; stroke-width: 1px;"/><g class="scrollbox" transform="" clip-path="url(#legendf569f2)"><g class="groups"><g class="traces" transform="translate(1,15.5)" style="opacity: 1;"><text class="legendtext" text-anchor="start" x="40" y="4.29" style="font-family: sans-serif; font-size: 11px; fill: rgb(0, 0, 0); fill-opacity: 1; white-space: pre;">y1</text><g class="layers" style="opacity: 1;"><g class="legendfill"/><g class="legendlines"><path class="js-line" d="M5,0h30" style="fill: none; stroke: rgb(0, 154, 250); stroke-opacity: 1; stroke-width: 1px;"/></g><g class="legendsymbols"><g class="legendpoints"/></g></g><rect class="legendtoggle" x="0" y="-9.5" width="51.625" height="19" style="fill: rgb(0, 0, 0); fill-opacity: 0;"/></g></g></g><rect class="scrollbar" rx="20" ry="3" width="0" height="0" x="0" y="0" style="fill: rgb(128, 139, 164); fill-opacity: 1;"/></g><g class="g-gtitle"/><g class="g-xtitle"/><g class="g-ytitle"/><g class="annotation" data-index="0" style="opacity: 1;"><g class="annotation-text-g" transform="rotate(0,317.7777777777777,33.500000000000014)"><g class="cursor-pointer" transform="translate(158,20)"><rect class="bg" x="0.5" y="0.5" width="319" height="26" style="stroke-width: 1px; stroke: rgb(0, 0, 0); stroke-opacity: 0; fill: rgb(0, 0, 0); fill-opacity: 0;"/><text class="annotation-text" text-anchor="middle" x="159.8671875" y="20" style="font-family: sans-serif; font-size: 20px; fill: rgb(0, 0, 0); fill-opacity: 1; white-space: pre;">Audio wave plot after highpass filter</text></g></g></g></g></svg>