<svg class="main-svg" xmlns="http://www.w3.org/2000/svg" xmlns:xlink="http://www.w3.org/1999/xlink" width="600" height="400" style=""><rect x="0" y="0" width="600" height="400" style="fill: rgb(255, 255, 255); fill-opacity: 1;"/><defs id="defs-cd5762"><g class="clips"><clipPath id="clipcd5762xyplot" class="plotclip"><rect width="556.5704286964129" height="311.6633858267717"/></clipPath><clipPath class="axesclip" id="clipcd5762x"><rect x="39.4925634295713" y="0" width="556.5704286964129" height="400"/></clipPath><clipPath class="axesclip" id="clipcd5762y"><rect x="0" y="41.04330708661415" width="600" height="311.6633858267717"/></clipPath><clipPath class="axesclip" id="clipcd5762xy"><rect x="39.4925634295713" y="41.04330708661415" width="556.5704286964129" height="311.6633858267717"/></clipPath></g><g class="gradients"/><g class="patterns"/></defs><g class="bglayer"/><g class="layer-below"><g class="imagelayer"/><g class="shapelayer"/></g><g class="cartesianlayer"><g class="subplot xy"><g class="layer-subplot"><g class="shapelayer"/><g class="imagelayer"/></g><g class="gridlayer"><g class="x"><path class="xgrid crisp" transform="translate(55.2125634295713,0)" d="M0,41.04330708661415v311.6633858267717" style="stroke: rgb(0, 0, 0); stroke-opacity: 0.1; stroke-width: 0.5px;"/><path class="xgrid crisp" transform="translate(158.1525634295713,0)" d="M0,41.04330708661415v311.6633858267717" style="stroke: rgb(0, 0, 0); stroke-opacity: 0.1; stroke-width: 0.5px;"/><path class="xgrid crisp" transform="translate(261.1025634295713,0)" d="M0,41.04330708661415v311.6633858267717" style="stroke: rgb(0, 0, 0); stroke-opacity: 0.1; stroke-width: 0.5px;"/><path class="xgrid crisp" transform="translate(364.0525634295713,0)" d="M0,41.04330708661415v311.6633858267717" style="stroke: rgb(0, 0, 0); stroke-opacity: 0.1; stroke-width: 0.5px;"/><path class="xgrid crisp" transform="translate(467.0025634295713,0)" d="M0,41.04330708661415v311.6633858267717" style="stroke: rgb(0, 0, 0); stroke-opacity: 0.1; stroke-width: 0.5px;"/><path class="xgrid crisp" transform="translate(569.9425634295714,0)" d="M0,41.04330708661415v311.6633858267717" style="stroke: rgb(0, 0, 0); stroke-opacity: 0.1; stroke-width: 0.5px;"/></g><g class="y"><path class="ygrid crisp" transform="translate(0,344.0933070866142)" d="M39.4925634295713,0h556.5704286964129" style="stroke: rgb(0, 0, 0); stroke-opacity: 0.1; stroke-width: 0.5px;"/><path class="ygrid crisp" transform="translate(0,289.95330708661413)" d="M39.4925634295713,0h556.5704286964129" style="stroke: rgb(0, 0, 0); stroke-opacity: 0.1; stroke-width: 0.5px;"/><path class="ygrid crisp" transform="translate(0,235.82330708661414)" d="M39.4925634295713,0h556.5704286964129" style="stroke: rgb(0, 0, 0); stroke-opacity: 0.1; stroke-width: 0.5px;"/><path class="ygrid crisp" transform="translate(0,181.69330708661414)" d="M39.4925634295713,0h556.5704286964129" style="stroke: rgb(0, 0, 0); stroke-opacity: 0.1; stroke-width: 0.5px;"/><path class="ygrid crisp" transform="translate(0,127.55330708661415)" d="M39.4925634295713,0h556.5704286964129" style="stroke: rgb(0, 0, 0); stroke-opacity: 0.1; stroke-width: 0.5px;"/><path class="ygrid crisp" transform="translate(0,73.42330708661416)" d="M39.4925634295713,0h556.5704286964129" style="stroke: rgb(0, 0, 0); stroke-opacity: 0.1; stroke-width: 0.5px;"/></g></g><g class="zerolinelayer"/><path class="xlines-below"/><path class="ylines-below"/><g class="overlines-below"/><g class="xaxislayer-below"/><g class="yaxislayer-below"/><g class="overaxes-below"/><g class="plot" transform="translate(39.4925634295713,41.04330708661415)" clip-path="url(#clipcd5762xyplot)"><g class="scatterlayer mlayer"><g class="trace scatter trace881042" style="stroke-miterlimit: 2; opacity: 1;"><g class="fills"/><g class="errorbars"/><g class="lines"><path class="js-line" d="M15.75,296.48L16.24,302.07L16.52,299.23L16.56,300.67L16.63,301.03L16.66,296.17L16.7,293.96L17.01,302.05L17.36,298.5L17.4,299.43L17.43,295.65L17.92,301.56L18.13,297.85L18.17,300.73L18.38,299.15L18.48,302.33L18.87,301.82L18.9,302.06L19.43,297.11L19.71,299.25L19.74,301.51L20.16,302.53L20.2,296.6L20.34,299.08L20.37,299.27L20.86,302.41L21.18,301.4L21.21,301.44L21.42,295.17L21.53,301.92L21.98,297.34L22.02,299.22L22.41,302.59L22.72,297.59L22.76,300.77L22.79,300.19L22.86,301.51L22.9,298.92L23.49,299.49L23.53,300.49L23.63,302.55L23.88,297.21L24.26,301.26L24.3,300.97L24.44,302.02L24.86,297.75L25,300.47L25.03,301.29L25.14,298.03L25.24,302.48L25.73,299.91L25.77,301.87L25.91,297.9L25.98,302.09L26.54,300.42L26.57,300.23L26.68,298.25L27.24,302.18L27.31,300.66L27.34,300.6L27.62,298.15L27.73,302.42L27.97,300.71L28.01,301.6L28.57,298.88L28.64,302.35L28.67,296.99L28.99,302.21L29.44,301.66L29.48,299.89L29.86,302.44L30.14,297.28L30.21,299.27L30.25,297.31L30.88,302.42L31.02,301.42L31.05,297.54L31.26,295.66L31.65,301.65L31.82,300.81L31.86,301.69L31.93,302.26L32.31,299.98L32.49,301.2L32.52,302.2L32.63,299.36L33.23,302.34L33.3,301.12L33.33,301.69L33.72,297.5L33.86,302.61L34.07,301.18L34.1,301.48L34.38,298.71L34.45,302.68L34.7,302L34.73,298.39L34.87,302.21L35.43,300.66L35.47,299.68L36.03,298.11L36.27,301.95L36.31,300.05L36.48,302.35L36.66,299.48L37.04,300.75L37.08,298.4L37.18,302.6L37.25,296.48L37.85,300.85L37.88,301.7L38.02,302.28L38.3,298.92L38.44,300.74L38.48,302.42L38.55,296.58L39.21,301.97L39.25,300.3L39.32,296.3L39.63,302.48L39.88,298.5L39.91,296.99L39.98,301.83L40.44,295.33L40.68,301.49L40.72,300.21L41.17,302.02L41.35,298.05L41.49,300.62L41.52,300.36L41.73,301.37L42.08,297.31L42.19,300.73L42.22,298.02L42.26,297.35L42.71,301.95L42.75,299.85L42.78,301.61L43.2,296.09L43.52,298.48L43.55,301.54L43.66,296.38L43.69,301.87L44.05,299.26L44.08,301.55L44.47,301.95L44.78,293.88L44.89,296.74L44.92,297.64L45.1,295.67L45.2,302.52L45.55,297.94L45.59,295.43L45.73,301.2L45.94,292.65L45.97,285.36L46.18,8.82L46.5,136.01L46.53,256.28L46.57,88.4L47.2,296.1L47.27,282.34L47.3,289.89L47.44,285.6L47.86,300.86L48.11,300.46L48.14,301.85L48.25,295.41L48.88,296.35L48.91,301.06L49.19,301.97L49.44,298.81L49.47,297.37L49.89,301.09L50.1,295.52L50.14,297.87L50.17,300.89L50.28,301.94L50.38,299.69L50.42,296.67L50.59,301.82L50.77,296.04L51.01,296.83L51.05,299.84L51.5,302.23L51.57,294.26L51.78,300.35L51.82,300.26L51.96,295.02L52.41,301.47L52.52,299.86L52.55,297.99L52.87,297.86L52.94,301.31L53.15,300.22L53.18,296.32L53.78,301.13L53.88,298.31L53.92,296.86L54.06,301.39L54.3,294.47L54.65,299.76L54.69,298.82L54.76,299.55L54.79,288.68L54.83,273.63L54.97,173.14L55.43,199.78L55.46,290.95L55.5,253.1L56.16,300.5L56.2,296.78L56.23,300.02L56.3,301.94L56.37,293.06L56.97,296.37L57,299.25L57.21,301.64L57.7,294.32L57.74,298.56L57.77,298.58L58.26,301.05L58.33,267.2L58.37,273.7L58.4,247.91L58.51,139.26L58.79,274.04L58.96,210.57L59,285.56L59.21,254.7L59.52,300.52L59.7,285.29L59.73,300.41L60.22,301.3L60.4,285.25L60.5,294.63L60.54,297.25L60.71,295.42L60.92,301.8L61.27,299.95L61.31,298.03L61.66,301.4L61.76,290.96L62.08,294.99L62.11,296.36L62.5,301.73L62.71,293.12L62.92,300.73L62.95,299.96L63.41,291.97L63.62,301.65L63.69,297.81L63.72,300.12L63.83,302.23L64.04,296.45L64.35,298.77L64.39,293.44L65.16,301.76L65.19,298.56L65.33,297.54L65.97,302.18L66,301.23L66.11,302.3L66.7,295.62L66.81,297.39L66.84,299.95L66.95,300.73L67.09,296.7L67.12,290.92L67.37,301.44L67.72,286.21L67.75,269.99L67.82,252.77L67.86,167.01L67.96,129.8L68.63,300.51L68.7,277.97L68.73,281.68L68.8,271.73L69.26,300.33L69.36,295.59L69.4,300.09L69.89,292.22L70.1,302.29L70.13,301.72L70.17,298.88L70.62,290.23L70.87,301.47L70.9,298.92L70.94,293.53L71.22,299.75L71.43,292.17L71.57,295.8L71.6,302.15L72.3,287.85L72.37,296.2L72.41,299.2L72.79,301.72L72.9,295.97L73.14,297.2L73.18,299.74L73.46,295.46L73.49,291.8L73.84,299.64L74.16,288.19L74.26,295L74.3,291.54L74.54,288.35L74.65,299.19L75,296.77L75.03,287.95L75.17,275.14L75.35,300.91L75.52,275.74L75.56,248.37L75.59,251.69L75.63,207.83L75.66,165.1L75.7,164.93L75.73,180.48L75.91,133.16L76.29,293.95L76.5,289.14L76.54,271.43L76.75,269.16L76.93,299.01L77.31,288.99L77.35,287.02L77.87,287.01L78.01,300.15L78.08,289.43L78.12,291.48L78.22,300.82L78.36,285.81L78.89,297.8L78.92,297.38L79.13,299.69L79.27,284.88L79.69,294.45L79.73,296.1L79.8,300.04L80.46,281.93L80.53,283.45L80.57,277.95L80.74,301.13L81.3,292.19L81.34,291.72L81.51,297.34L81.58,269.96L81.62,253.23L81.97,103.16L82.21,281.57L82.32,257.33L82.35,295.06L82.39,259.3L82.95,298.51L83.09,297.08L83.12,290.13L83.16,300.01L83.58,276.95L83.86,297.55L83.89,291.21L83.93,279.44L84.21,300.31L84.59,298.51L84.63,298.46L85.01,299.29L85.22,288.89L85.36,298.33L85.4,299.41L85.5,300.94L85.75,280.23L86.24,292.43L86.27,298.64L86.59,299.89L86.76,277.21L87.01,292.19L87.04,296.92L87.39,125.23L87.43,47.91L88.17,297.13L88.2,296.22L88.24,285.92L88.62,281.03L88.9,297.32L89.01,292.67L89.04,292.99L89.22,272.39L89.32,296.77L89.43,294.71L89.46,299.06L89.67,276.44L89.78,300.93L90.27,286.27L90.3,288.93L90.44,286.97L90.55,300.43L91.04,289.05L91.07,293.01L91.11,282.13L91.6,301.18L91.77,292.85L91.81,300.83L91.95,302.35L92.19,276.55L92.58,290.46L92.61,300.32L92.86,264.64L92.89,225.91L93.1,248.77L93.21,81.89L93.24,200.12L93.28,269.67L93.31,179.48L93.94,299.17L94.01,286.63L94.05,297.37L94.08,297.15L94.12,282.15L94.15,282.45L94.19,293.87L94.33,301.67L94.68,283.69L94.92,291.09L94.96,295.66L95.13,284.57L95.34,299.81L95.76,284.73L95.8,291.33L95.83,288.91L96.25,301.03L96.46,292.28L96.5,296.14L96.95,299.65L97.27,278.39L97.3,286.1L97.34,295.34L97.69,291.02L97.76,301.31L97.83,296.27L97.86,291.05L98.07,298.79L98.21,278.3L98.25,284.54L98.28,237.96L98.43,98.8L98.99,283.69L99.02,258.48L99.06,289.43L99.13,268.59L99.58,300.9L99.83,294L99.86,297.16L100,300.36L100.25,287L100.46,298.03L100.49,288.84L100.53,287.06L100.95,300.06L100.98,300.5L101.12,300.95L101.44,288.98L101.72,296.14L101.75,300.42L102.35,302.04L102.42,285.34L102.49,296.62L102.52,296.72L102.63,300.38L103.08,287.58L103.15,296.58L103.19,290.77L103.57,66.89L103.92,264L103.96,270.12L104.34,301.53L104.76,297.02L104.8,301.08L104.94,301.87L105.18,295.37L105.53,297.92L105.57,299.93L105.78,301.96L106.37,287.93L106.41,294.69L106.48,301.77L106.69,288.01L107.14,298.52L107.18,291.88L107.28,300.72L107.35,288.72L107.91,299.01L107.95,294.98L108.37,103.37L108.72,263.99L108.75,293.75L108.82,279.38L109.46,295.69L109.49,293.83L109.53,295.1L109.74,299.97L109.98,291.13L110.23,294.69L110.26,300.67L110.3,301.04L110.47,296.42L110.61,300.75L110.65,294.54L111.03,290.75L111.14,301.43L111.42,300.09L111.45,302.13L112.19,294.72L112.22,299.18L112.26,300.22L112.33,300.37L112.43,236.85L112.47,158.06L112.78,98.5L113.17,288.45L113.24,288.02L113.27,276.64L114.08,301.67L114.11,300.52L114.25,296.3L114.32,301.97L114.53,301.15L114.57,302.11L114.99,295.78L115.37,298.06L115.41,300.93L115.76,296.52L116.04,301.93L116.07,301.34L116.11,297.02L116.25,300.8L116.35,287.37L116.39,291.03L116.42,240.62L116.77,126.56L116.98,283.46L117.12,278.3L117.16,285.33L117.19,278.45L117.79,301.97L117.82,301.13L117.86,299.08L118.31,302.15L118.49,296.51L118.56,300.34L118.59,301.27L118.7,298.44L118.84,301.97L119.22,301.93L119.26,302.01L119.96,295.72L119.99,274.93L120.03,274.65L120.06,235.06L120.38,123.22L120.63,281.03L120.7,272.19L120.73,277.59L120.77,272.78L121.12,297.62L121.29,297.13L121.33,296.97L121.68,300.28L121.71,298.3L121.75,296.93L122.17,296.85L122.34,301.6L122.48,300.1L122.52,297.58L122.87,302.44L123.25,301.15L123.29,298.68L123.32,300.16L123.53,282.48L123.57,240.39L123.71,228.12L123.78,292.32L123.81,218.81L123.88,103.04L124.3,291.75L124.37,279.58L124.41,289.9L124.51,269.83L124.69,300.85L125.07,297.94L125.11,300.98L125.28,293.7L125.63,302.27L125.84,300.51L125.88,301.31L126.12,302.22L126.75,288.23L126.79,251.42L127,286.22L127.1,120.81L127.42,261.79L127.45,287.62L127.49,260.61L127.94,302.35L128.15,299.37L128.19,299.08L128.29,302.08L128.75,296L128.89,298.93L128.92,301.94L128.99,302.4L129.48,298.81L129.69,299.37L129.73,300.54L130.04,283.44L130.08,244.91L130.39,135.9L130.74,285.24L130.78,259.49L130.81,287.1L131.59,302.41L131.69,301.3L131.73,300.8L132.04,297L132.18,302.17L132.25,297.66L132.29,295.57L132.74,301.86L133.02,298.56L133.06,295.85L133.09,297.49L133.2,273.62L133.23,219.15L133.55,125.01L134,293.35L134.04,292.51L134.07,297.19L134.25,290.14L134.35,300.51L134.39,289.75L134.98,301.87L135.16,298.01L135.19,298.36L135.26,296.7L135.79,302.36L136,300.85L136.03,299.58L136.17,300.66L136.42,275.36L136.45,278.06L136.49,235.72L136.8,98.58L137.26,299.37L137.29,294.84L137.33,300.17L137.5,286.7L137.71,289.94L137.75,300.67L137.85,295.33L138.31,301.88L138.52,298.72L138.55,301.19L138.83,302.17L139.08,298.69L139.22,300.84L139.25,301.68L139.74,285.44L139.78,254.39L140.09,136.4L140.3,288.95L140.48,284.92L140.51,290.22L140.83,289.02L141.18,300.6L141.28,297.07L141.32,299.26L141.46,293.39L141.92,302.05L142.13,301.68L142.16,300.56L142.34,301.68L142.51,297.94L142.79,299.78L142.83,298.66L142.97,284.66L143,259.48L143.32,147.24L143.7,295.58L143.74,290.69L143.84,299.38L143.88,289.74L143.98,300.94L144.65,296.23L144.68,293.79L145.31,302.16L145.49,299.7L145.52,300.2L145.56,301.91L146.12,295.76L146.15,283.32L146.54,130.32L146.71,283.85L146.78,280.58L146.82,289.17L146.89,282.49L147.45,300.9L147.48,296.93L147.52,299.1L147.62,296.08L147.83,302.26L148.36,302.01L148.39,300.54L148.81,302.44L149.3,286.15L149.34,256.46L149.37,262.53L149.58,215.19L149.62,219.9L149.65,125.88L150.35,301.96L150.42,299.7L150.46,293.84L150.77,280.95L151.26,302.29L151.3,298.93L151.44,298.15L151.61,301.87L152.07,301L152.1,300.71L152.21,300.83L152.31,298.32L152.35,299.16L152.38,294.07L152.59,222.95L152.7,261.61L152.73,172.94L152.77,136.77L153.33,297.46L153.37,290L153.4,288.35L153.86,301.9L153.89,298.71L153.93,301.76L154.28,298.3L154.45,301.96L154.77,299.47L154.8,301.33L155.15,298.77L155.19,302.09L155.4,300.46L155.43,299.68L155.57,228.52L155.64,233.51L155.68,197.47L155.89,175.48L156.48,293.29L156.52,293.31L157.22,302.01L157.29,301.05L157.32,301.22L157.46,302.43L157.6,297.04L157.88,300.34L157.92,298.37L157.99,300.64L158.37,287.01L158.41,266.51L158.72,130.12L158.97,294.14L159.04,291.03L159.07,286.05L159.74,301L159.88,299.58L159.91,298.98L159.95,301.96L159.98,298.21L160.65,299.11L160.68,297.64L160.93,300.72L161.14,293.33L161.17,269.59L161.35,279.05L161.49,138.57L161.52,223.89L161.56,283.19L161.59,276.53L162.22,300.48L162.26,301.22L162.75,302.15L163.13,282.28L163.17,285.68L163.2,251.24L163.31,204.69L163.41,285.85L163.48,233.6L163.52,194.62L164.19,300.03L164.29,296.79L164.33,301.12L164.75,302.18L165.06,297.61L165.1,298.87L165.13,301.55L165.55,297.65L165.8,299.63L165.83,301.1L166.11,302.22L166.15,298.1L166.39,300.13L166.43,298.21L166.67,301.96L167.2,300.85L167.23,301.82L167.72,275.41L167.76,249.26L168.04,219.81L168.35,297.28L168.42,296.04L168.46,293.86L168.49,288.22L169.12,302.01L169.16,301.51L169.19,300.31L169.26,297.23L169.82,302.32L169.96,301.59L170,300.09L170.28,301.91L170.56,298.75L170.7,301.22L170.73,297.75L170.77,302.38L171.01,293.86L171.47,300.52L171.5,299.92L171.64,302.39L171.89,295.3L172.2,301.05L172.24,296.81L172.38,293.79L172.45,302.24L173.01,300.06L173.04,299.1L173.36,302.6L173.78,298.84L173.81,299.07L174.06,301.48L174.37,292.64L174.44,294.76L174.48,292.58L174.69,204.7L174.97,271.46L175.01,294.27L175.04,274.53L175.5,301.17L175.74,298.48L175.78,299.18L175.81,297.6L176.16,302.16L176.48,301.24L176.51,300.8L176.58,298.74L176.76,302.42L177.07,301.89L177.11,299.1L177.14,298.92L177.35,302.13L177.39,301.74L177.42,302.12L177.6,298.83L177.88,302.57L178.16,302.02L178.19,302.1L178.61,300.13L178.65,302.36L178.86,301.23L178.89,301.64L179.14,298.93L179.45,302.45L179.66,300.09L179.7,301.79L180.12,302.08L180.26,300.04L180.29,300.5L180.33,301.63L180.54,302.46L180.82,299.66L180.89,300.3L180.92,298.29L180.99,300.32L181.17,297.33L181.2,289.7L181.24,290.34L181.27,286.21L181.31,290.1L181.34,256.4L181.59,172.79L181.76,293.07L181.8,296.45L181.94,292.28L182.39,301.72L182.46,300.12L182.5,301.25L182.95,301.84L183.13,298.61L183.27,300.27L183.3,300.98L183.51,301.75L184.04,276.45L184.07,287.19L184.11,253.25L184.35,201.74L184.67,298.76L184.77,286.6L184.81,291.71L184.84,288.79L185.33,301.99L185.44,301.7L185.48,300.89L185.9,302.23L185.93,298.79L186.04,299.89L186.07,299.48L186.21,302.39L186.35,299.36L186.81,300.5L186.84,300.21L186.95,301.61L187.05,297.38L187.09,299.88L187.12,294.61L187.44,240.77L187.47,247.48L187.51,185.78L188.17,301.03L188.28,299.44L188.31,297.58L188.73,301.98L189.08,300.56L189.12,295.21L189.92,302.17L189.96,301.67L189.99,301.56L190.48,301.81L190.59,287.74L190.62,294.4L190.66,281.35L190.69,284.91L190.9,222.87L190.94,219.32L190.97,213.57L191.18,298.16L191.29,295.92L191.32,291.85L191.74,301.84L192.09,301L192.13,300.87L192.37,296.08L192.55,301.68L192.86,299.75L192.9,300.35L193.07,302.16L193.14,297.63L193.28,300.09L193.32,301.98L193.84,302.22L194.09,298.05L194.12,299.84L194.16,298.52L194.19,299.98L194.26,288.91L194.33,292.39L194.37,268.66L194.47,268.34L194.51,273.6L194.54,242.99L194.61,198.27L195.38,301.42L195.45,301.17L195.49,299.13L195.63,302.31L196.05,296.29L196.3,300.89L196.33,298.97L196.82,297.81L197.14,302.64L197.17,302.11L197.87,283.96L197.98,293.77L198.01,262.21L198.26,210.01L198.64,299.25L198.68,297.11L198.75,286.11L199.31,300.61L199.38,300.35L199.41,300.31L199.66,295.56L199.97,301.58L200.11,296.36L200.15,301.22L200.36,295.77L200.64,302.52L200.88,301.17L200.92,302.18L201.86,230.64L201.9,264.85L201.93,206L202.39,299.56L202.7,297.58L202.74,294.84L203.12,302.12L203.51,300.51L203.54,301.18L204.21,302.46L204.35,291.01L204.38,296.73L204.42,298.76L204.56,301.16L205.29,207.91L205.33,279.96L205.36,274.07L205.92,300.3L205.99,295.48L206.03,300.37L206.38,302.41L206.73,297.36L206.76,298.09L206.8,302.58L207.19,298.03L207.57,301.75L207.61,301.88L208.13,288.81L208.2,289.39L208.24,261.64L208.38,277.65L208.41,228.76L208.45,258.6L208.48,207.75L209.18,299.93L209.25,295.19L209.29,300.26L209.36,302.12L209.74,299.55L210.06,301.59L210.09,301.88L210.27,302.53L210.72,299.54L210.86,300.92L210.9,301.14L211.35,288.26L211.39,263.32L211.42,263.01L211.46,270.38L211.49,259.11L211.63,207.97L212.02,300.98L212.37,298.15L212.4,295.54L212.75,302.05L213.14,297.37L213.17,296.45L213.38,301.49L213.8,296L213.98,301.28L214.01,301.41L214.75,245.8L214.78,257.03L214.82,220.23L214.85,206.54L215.24,299.5L215.38,295.41L215.41,297.43L215.45,291.46L216.08,302.15L216.11,301.88L216.15,301.12L216.46,302.16L216.6,297.53L216.88,300.53L216.92,301.34L217.23,302.25L217.79,294.65L217.83,297.11L218.29,223.75L218.32,285.29L218.57,279.87L218.88,301.54L219.23,301.38L219.27,299.84L219.55,294.28L219.72,302.41L220,297.16L220.04,299.11L220.11,297.55L220.67,302.17L220.77,300.39L220.81,296.84L220.88,301.24L221.4,289.14L221.44,257.23L221.58,273.89L221.68,208.3L221.72,279.96L221.75,259.89L222.38,301.6L222.42,300.41L222.45,295.5L222.84,302.12L223.22,298.76L223.26,300.14L223.43,297.59L223.96,301.53L223.99,298.43L224.27,301.47L224.62,300.62L224.66,296.17L225.01,221.82L225.43,291.33L225.46,290.17L226.27,301.07L226.3,299.19L226.34,298.21L226.51,301.43L226.72,293.57L227.04,299.5L227.07,296.28L227.25,301.01L227.81,289.34L227.84,293.69L227.95,300.62L228.09,283.12L228.16,289.6L228.19,281.88L228.44,223.61L228.89,294.61L228.93,293.31L229.11,292.37L229.67,301.29L229.7,294.53L229.74,291.22L230.33,300.28L230.37,298.49L230.4,301.77L230.96,294.31L231.17,295.88L231.21,299.22L231.77,246.1L231.8,216.63L232.26,300.64L232.57,298.37L232.61,300.39L232.68,296.72L233.27,302.46L233.34,300.88L233.38,302.37L233.73,297.08L234.15,299.31L234.18,299.66L234.29,302.42L234.67,299.15L234.71,286.6L235.02,224.27L235.44,297.65L235.48,290.25L236.18,301.93L236.25,301.4L236.28,302.44L236.67,296.53L237.05,301.7L237.09,301.29L237.12,302.37L237.58,298.76L237.79,300.5L237.82,300.07L237.89,297.6L237.96,298.24L238,289.22L238.03,292.05L238.21,242.55L238.24,229.06L238.31,216.08L239.05,300.17L239.08,298.24L239.71,302.38L239.96,302.28L240,302.08L240.28,299.24L240.8,301.34L240.84,301.01L241.15,296.26L241.19,284.01L241.5,224.35L241.92,296.69L241.96,287.35L242.73,302.31L242.76,301.36L243.01,302.42L243.18,299.85L243.5,301.89L243.53,300.31L243.6,299.78L243.92,301.98L244.13,301.13L244.16,299.35L244.62,221.94L244.97,279.96L245,290.28L245.07,280.88L245.35,301.97L245.91,300.9L245.95,301.73L246.09,302.55L246.54,282.59L246.68,294.91L246.72,299.52L247.1,300.9L247.66,218.02L247.73,244.91L247.77,287.74L247.87,261.21L248.33,301.02L248.47,300.88L248.5,297.6L248.57,301.37L248.99,291.46L249.13,294.07L249.17,299.61L249.48,283.92L249.83,300.53L249.94,292.76L249.97,300.5L250.11,301.02L250.36,278.14L250.39,287.57L250.43,264.88L250.68,225.51L250.99,294.68L251.2,283.49L251.24,277.86L251.8,301.36L252.04,298.68L252.08,294.75L252.11,285.12L252.67,301.19L252.81,296.6L252.85,299.01L253.3,300.32L253.76,226.65L253.79,274.53L253.83,286.58L253.93,266.55L254.53,300.52L254.6,299.95L254.63,299.88L254.81,302.09L254.95,298.06L254.98,294.95L255.61,301.58L255.75,300.05L255.79,298.84L255.96,291.59L256.03,300.73L256.45,296.47L256.49,286.06L256.8,225.18L257.33,300.41L257.36,298.16L257.71,296.5L257.99,300.73L258.1,299.92L258.13,297.36L258.2,302.33L258.87,300.3L258.9,296.54L259.04,294.05L259.22,302.32L259.53,294.42L259.57,281.83L259.88,235.26L260.3,298.86L260.34,292.68L260.37,294.84L260.48,293.83L260.69,301.94L261.18,301.31L261.21,296.45L261.71,292.66L261.95,301.58L261.99,296.42L262.09,288.56L262.16,300.76L262.69,292.54L262.72,288.56L262.76,292.13L262.97,247.41L263,235.48L263.6,300.74L263.77,299.43L263.81,299.18L263.84,301.63L264.16,293.33L264.54,300.76L264.58,297.16L264.82,301.76L265.28,293.33L265.35,301.72L265.38,300.51L265.49,300.75L265.8,269.28L265.84,250.84L265.98,234.34L266.05,276.19L266.08,291.4L266.19,275.98L266.71,300.58L266.82,297L266.85,293.98L267.13,301.56L267.59,299.2L267.62,297.45L267.87,296.7L268.29,301.52L268.39,299.83L268.43,299.04L268.5,301.38L268.74,280.38L268.78,291.88L268.81,264.48L269.06,240.52L269.41,299.7L269.48,298.01L269.51,299.95L269.9,289.24L270.04,301.46L270.11,297.18L270.14,301.48L270.28,297.56L270.84,301.65L270.91,298.58L270.95,300.65L271.26,301.86L272.1,239.79L272.14,282.73L272.28,272.56L272.77,301.13L272.91,299.57L272.95,297.14L272.98,301.85L273.02,296.92L273.68,301.32L273.72,297.83L273.75,296.63L274.07,302.34L274.42,299.63L274.45,301.03L274.49,301.66L274.7,297.69L274.73,291.69L274.8,282.91L274.84,297.9L274.91,234.3L275.54,298.6L275.57,298.21L275.61,295.9L276.38,302.13L276.41,300.5L276.62,297L276.76,302.46L277.11,300.29L277.15,301.34L277.18,302.35L277.71,296.39L277.74,288.27L277.78,290.4L277.88,270L277.99,276.22L278.02,254.69L278.09,241.98L278.9,301L278.93,299.98L278.97,297.78L279.39,302.43L279.67,301.3L279.7,300.98L279.91,301.95L280.02,296.91L280.44,300.86L280.47,300.96L280.72,294.98L280.75,289.28L280.79,289.65L280.86,285.53L280.89,259.6L281.1,241.99L281.63,300.93L281.8,300.45L281.84,301.15L282.15,294.17L282.5,302.62L282.57,300.79L282.61,299.8L282.68,299.79L283.13,302.25L283.27,301.93L283.31,299.77L283.35,301.67L283.8,289.46L283.84,290.26L283.87,283.36L284.12,244.35L284.57,299.63L284.61,299.02L284.75,295.67L284.85,301.6L285.31,300.49L285.34,301.82L285.69,297.47L286.04,302.61L286.08,302.66L286.81,284.02L286.85,287.32L286.88,277.97L286.92,298.05L286.99,235.96L287.65,297.11L287.69,293.46L287.83,292.64L287.86,302.23L288.46,301.36L288.49,301.72L289.05,299.92L289.12,302.76L289.23,300.42L289.26,302.38L289.82,298.14L289.86,284.1L290.07,242.49L290.66,297.81L290.7,295.23L290.73,288.67L291.29,302.5L291.4,301.54L291.43,300.54L291.68,298.59L291.96,302.06L292.2,301.41L292.24,301.08L292.55,302.16L292.59,299.29L292.83,299.55L292.87,297.62L293.25,244.63L293.6,298.78L293.64,297.23L293.78,293L294.02,302.18L294.31,300.03L294.34,301.88L294.38,299.81L295.01,302.47L295.08,302.14L295.11,302.16L295.43,302.44L295.92,299.88L295.95,288.27L296.06,289.83L296.09,286.77L296.13,259.75L296.34,246.07L296.72,301.84L296.97,298.37L297,299.51L297.18,298.17L297.7,302.14L297.77,301.99L297.81,298.88L298.4,302.65L298.58,302L298.61,301.66L298.82,301.87L299,295.16L299.03,289.74L299.1,290.11L299.14,286.27L299.17,278.37L299.38,245.3L299.45,296.88L299.73,296.7L299.77,300.39L299.91,292.74L300.33,300.9L300.4,298.29L300.43,301.02L300.75,300.23L300.85,302.53L300.96,302.27L300.99,298.78L301.17,298.53L301.52,302.07L301.62,301.34L301.66,299.4L301.76,301.81L302.01,288.58L302.04,288.71L302.18,254.52L302.46,296.35L302.6,285.68L302.64,296.58L302.67,290.46L303.34,301.85L303.37,301.25L303.44,297.99L303.79,302.47L304.11,300.77L304.14,300.56L304.32,302.08L304.56,299.27L304.84,301.27L304.88,300.14L304.95,299.01L304.98,287.64L305.09,293L305.13,283.94L305.16,258.72L305.37,249.43L305.93,299.55L306,295.43L306.04,297.76L306.35,302.41L306.81,299.63L306.84,300.66L307.12,298L307.37,302.41L307.54,300.74L307.58,301.03L307.79,301.69L307.89,300.35L307.93,298.24L308.14,251.69L308.66,291.15L308.7,299.47L308.94,291.67L309.05,302.14L309.5,301.33L309.54,301.5L310.1,299.41L310.13,302.53L310.24,300.38L310.27,300.78L310.62,302.3L310.9,299.83L310.94,301.58L311.39,248.33L311.43,283.33L311.46,291.97L311.57,288.11L312.48,302.44L312.51,300.88L312.62,299.91L312.86,302.38L313.28,302.15L313.32,301.51L313.6,302.38L313.7,300.33L313.98,301.77L314.02,300.91L314.09,301.74L314.16,287.75L314.19,288.53L314.23,280.73L314.33,254.2L314.93,300.32L315,300.16L315.03,299.85L315.31,294.46L315.63,302.54L315.73,301.48L315.77,301.96L315.84,302.23L316.02,296.94L316.33,300.72L316.37,301.82L316.93,299L317,302.17L317.03,302.24L317.63,278.06L317.66,280.37L317.7,264.95L317.84,249.74L318.22,300.58L318.29,292.52L318.33,299.49L318.43,295.03L318.99,301.41L319.06,299.04L319.1,299.4L319.2,298.6L319.48,302.48L319.83,301.81L319.87,300.15L319.97,299.24L320.43,302.28L320.6,300.34L320.64,300.11L320.67,301.62L321.06,289.75L321.09,284.33L321.41,250.28L321.9,301.4L321.93,298.14L321.97,299.9L322.14,296.61L322.6,302.55L322.7,298.59L322.74,298.7L323.33,302.5L323.37,300.26L323.4,299.19L323.47,302.64L324.17,302.39L324.21,301.46L324.52,302.44L324.94,283.8L324.98,274.17L325.26,247.68L325.75,300.67L325.78,297.12L326.1,302.22L326.55,301.23L326.59,300.57L326.69,297.85L327.08,302.41L327.33,301.45L327.36,300.2L327.4,299.25L327.47,302.1L327.99,301.13L328.03,302.5L328.87,291.45L328.9,282.94L329.22,243.89L329.64,300.13L329.78,299.31L329.81,295.4L329.88,294.3L330.2,301.65L330.55,298.23L330.58,295.84L331.11,295.56L331.25,301.97L331.32,295.76L331.35,297.31L331.49,294.22L331.88,301.65L331.95,300.2L331.98,301.62L332.12,298.84L332.26,301.93L332.51,300.75L332.54,301.79L332.86,294.22L332.89,290.33L333.28,250.01L333.49,297.16L333.59,295.49L333.63,299.6L333.73,294.44L334.29,301.46L334.33,298.24L334.36,302.13L334.99,302.29L335.24,297.56L335.27,299.92L335.31,301.46L335.52,299.53L335.97,302.52L336.08,301.76L336.11,301.05L336.43,302.18L336.78,298.38L336.88,300.86L336.92,301.14L337.06,300.11L337.09,296.48L337.3,250.04L337.58,299.9L337.83,293.86L337.87,299.6L337.97,294.06L338.6,302.32L338.67,300.34L338.71,300.18L339.02,299.05L339.09,302.34L339.51,302.26L339.55,301.28L340.11,300.54L340.32,302.39L340.35,301.97L340.56,302.19L340.98,300.67L341.09,301.97L341.12,302.06L341.4,302.33L341.75,286.61L341.79,273.54L342.1,241.51L342.49,300.67L342.59,296.74L342.63,301L342.7,291.9L343.15,302.16L343.36,301.59L343.4,300.33L343.85,302.5L344.03,299.15L344.13,300.26L344.17,300.48L344.45,300.34L344.73,302.47L344.97,302.08L345.01,302.31L345.81,300.12L345.85,300.98L345.88,301.57L346.34,302.31L346.55,296.76L346.65,300.9L346.69,300.88L346.93,244.88L347.39,286.92L347.42,294.4L347.91,302.45L348.3,301.44L348.33,301.2L348.76,301.97L348.93,298.93L349.07,301.21L349.11,301.53L349.28,302.6L349.77,301.14L349.81,301.64L349.84,299.47L349.88,298.84L350.05,302.27L350.44,301.77L350.47,301.86L350.51,302.43L350.58,299.91L351.1,301.25L351.14,300.5L351.24,302.46L351.8,300.63L351.84,299.21L351.87,302.19L352.57,299.23L352.61,292.47L352.85,239.68L353.1,294.85L353.17,291.38L353.2,293.17L353.24,289.35L353.8,301.25L353.87,300.55L353.9,300.76L354.11,297.87L354.71,302.21L354.74,301.24L354.78,300.97L354.95,302.43L355.3,301.99L355.34,302.34L355.51,300.43L355.9,302.54L356.07,301.51L356.11,301.45L356.21,302.31L356.67,300.69L356.84,301.19L356.88,301.97L357.09,302.52L357.58,300.74L357.61,301.15L357.65,302.21L358.07,299.62L358.21,302.64L358.31,300.78L358.35,301.99L358.49,302.71L358.7,300.46L358.94,301.96L358.98,300.51L359.15,299.7L359.22,302.2L359.4,300.88L359.44,294.98L359.65,229.37L359.93,298.77L360.17,296.5L360.21,295.29L360.45,289.63L360.84,301.32L360.98,296.92L361.01,298.57L361.5,302.49L361.78,301.19L361.82,300.87L361.89,299.46L362.17,302.26L362.62,301.96L362.66,301.3L362.76,302.53L362.94,300.51L363.43,302.37L363.46,301.8L363.64,302.42L363.99,300.62L364.16,302.1L364.2,301.08L364.23,302.36L364.34,297.67L364.9,301.3L364.93,299.18L365.63,302.63L365.74,302.27L365.77,301.87L366.05,299.89L366.23,302.64L366.51,301.88L366.54,301.94L366.93,302.64L367,300.3L367.21,301.48L367.24,299.69L367.28,298.71L367.59,302.34L367.87,301.68L367.91,302.64L368.33,294.5L368.36,283.4L368.54,214.23L369.03,299.81L369.17,296.57L369.2,294.48L369.34,291.46L369.66,302.48L369.97,300.79L370.01,300.67L370.04,300.38L370.15,302.09L370.64,301.59L370.68,302.15L371.06,300.35L371.2,302.4L371.41,301.85L371.45,301.99L371.62,302.16L372.08,298.45L372.25,299.68L372.29,300.83L372.43,298.97L373.09,302.19L373.13,301.58L373.23,301.97L373.48,299.66L373.93,299.87L373.97,302.21L374.21,298.92L374.81,299.58L374.84,301.05L374.88,302.21L375.12,299.2L375.54,301.49L375.58,300.72L376.14,298.22L376.31,301.72L376.35,301.1L376.42,301.78L376.45,300.34L377.08,300.9L377.12,300.08L377.54,302.43L377.85,301.14L377.89,300.96L378.06,302.59L378.66,300.05L378.69,300.87L378.8,302.24L379.04,296.35L379.36,299.74L379.39,298.86L379.78,298.07L380.16,302.25L380.2,298.93L380.48,302.04L380.97,301.51L381,301.43L381.14,302.07L381.71,298.91L381.74,301.18L381.78,300.39L381.81,301.39L381.88,290.48L381.95,290.86L381.99,248.43L382.09,219.44L382.58,299.01L382.79,298.73L382.83,294.09L382.9,286.83L383.18,302.48L383.6,300.64L383.63,301.97L384.02,302.22L384.33,298.98L384.47,300L384.51,301.38L384.54,301.95L384.61,299.16L385.17,299.98L385.21,298.91L385.49,298.67L385.7,302.69L385.98,301.48L386.01,300.75L386.05,301.93L386.19,297.32L386.22,279.19L386.4,269.26L386.89,299.1L386.99,287.12L387.03,283.98L387.41,280.23L387.76,295.47L387.8,294.33L387.83,294.2L387.9,298.58L388.22,284.78L388.46,290.36L388.5,289.29L389.06,299.89L389.27,295.41L389.3,286.84L389.48,283.16L389.97,299.11L390.07,294.48L390.11,288L390.25,296.04L390.81,286.52L390.91,293.69L390.95,296.16L391.09,293.6L391.58,301.89L391.65,297.26L391.68,299.51L391.75,301.94L392.25,295.5L392.39,300.1L392.42,299.47L392.95,293.18L393.05,302.06L393.16,297.67L393.19,299.22L393.44,297.19L393.72,301.88L393.79,299.58L393.82,296.64L394.59,301.95L394.66,301.42L394.7,300.97L394.77,299.31L395.29,302.4L395.43,301.17L395.47,299.34L395.64,302.41L396.24,301.99L396.27,301.8L396.38,299.69L396.55,302.6L397.04,301.04L397.08,302.29L397.57,300.65L397.74,302.43L397.88,301.76L397.92,301.69L398.16,300.01L398.58,302.67L398.62,301.18L398.65,299.76L398.9,299.5L399.46,302.6L399.49,301.82L399.56,300.04L399.91,302.6L400.23,301.9L400.26,302.2L400.4,302.37L400.82,299.86L400.96,301.49L401,302.1L401.14,302.53L401.73,300.68L401.77,301.23L401.8,301.63L401.94,302.64L402.33,300.82L402.43,301.52L402.47,299.12L402.85,298.87L403.1,301.66L403.17,301.41L403.21,295.35L403.31,292.31L403.63,301.77L403.8,301.54L403.84,301.67L404.05,302.58L404.22,300.45L404.57,301.26L404.61,301.82L404.82,302.51L405.2,300.57L405.27,301.92L405.31,302.33L405.62,302.45L405.94,300.03L406.04,301.45L406.08,302.12L406.15,302.33L406.6,300.1L406.81,301.54L406.85,302.44L407.34,295.67L407.62,301.2L407.65,301.89L407.93,302.39L408.11,300.16L408.28,300.71L408.32,299.86L408.35,299.53L408.7,302.55L408.84,302.24L408.88,302.13L408.95,300.5L409.16,302.48L409.65,300.83L409.68,301.33L410,300.62L410.24,302.42L410.49,302.18L410.52,301.96L411.15,301.26L411.19,302.44L411.22,301.28L411.26,302.11L411.29,302.59L411.68,301.14L411.92,302.5L411.96,301.08L412.06,302.42L412.31,300.67L412.34,301L412.38,300.29L412.41,299.68L412.69,302.24L413.08,301.21L413.11,302.5L413.85,300.69L413.89,302.21L414.1,301.04L414.52,302.49L414.59,302.17L414.62,301.93L415.15,302.47L415.39,296.97L415.57,298.78L415.6,300.67L415.88,301.98L416.2,299.6L416.37,301.26L416.41,301.66L416.69,300.38L416.97,302.58L417.14,300.58L417.18,302.39L417.7,298.63L417.95,300.49L417.98,301.75L418.09,300.74L418.44,302.43L418.68,302.1L418.72,302.18L418.89,300.9L419,302.37L419.35,302.06L419.38,302.48L420.22,300.35L420.26,301.77L420.36,302.51L420.71,298.55L420.75,300.49L420.78,301.94L420.89,300.44L420.99,301.81L421.03,302.16L421.1,302.53L421.34,300.37L421.76,302.29L421.8,302.31L422.32,302.6L422.39,300.22L422.53,302.39L422.57,302.18L422.6,302.37L422.71,300.42L422.74,301.75L422.78,296.91L422.99,301.35L423.06,293.39L423.51,297.09L423.55,296.71L424.28,302.08L424.32,300.38L424.35,298.84L424.46,302.32L424.74,296.32L425.13,301.83L425.16,300.7L425.2,302.39L425.86,299.52L425.9,297.7L426.35,302.46L426.7,301.79L426.74,301.21L427.02,302.44L427.3,300.8L427.44,301.63L427.47,302.24L427.75,292.42L428.14,299.3L428.17,300.54L428.56,296.72L428.63,302.08L428.91,301.45L428.94,299.88L429.01,297.99L429.36,302.18L429.64,301.16L429.68,300.56L429.96,299.79L430.03,302.52L430.41,300.01L430.45,299.04L430.73,302.42L431.25,301.65L431.29,301.47L431.85,302.49L431.92,298.64L431.99,301.65L432.02,302.02L432.2,299.93L432.44,302.29L432.79,301.3L432.83,301.68L432.93,300.64L433.28,302.64L433.46,301.69L433.49,302.13L433.91,300.84L433.98,302.65L434.26,301.53L434.3,301.72L434.44,300.86L434.72,302.67L435.07,301.43L435.1,302.12L435.28,302.75L435.6,300.91L435.81,301.69L435.84,302.49L436.19,301.18L436.23,302.66L436.68,301.77L436.72,302.29L437.31,300.01L437.42,302.6L437.45,301.94L437.49,302.1L437.52,302.52L437.87,300.59L438.08,301.78L438.12,300.15L438.33,299.78L438.64,302.47L438.89,301.25L438.92,301.27L439.24,302.5L439.48,300.66L439.66,301.79L439.69,301.12L439.73,300.83L440.15,302.57L440.36,301.06L440.39,302.15L440.6,302.79L440.78,301.64L440.92,301.92L440.95,300.7L441.72,302.58L441.76,302.07L442.07,301.54L442.14,302.6L442.42,302.46L442.46,302.73L442.77,301.62L443.19,302.68L443.23,302.23L443.26,301.55L443.96,302.67L444,302.4L444.42,302.75L444.77,301.69L444.8,300.64L445.54,302.38L445.57,302.15L445.61,300.76L445.92,302.69L446.49,302.5L446.52,302.17L446.59,302.65L447.05,300.91L447.26,302.21L447.29,302L447.5,302.64L447.57,300.73L447.99,302.47L448.03,301.84L448.34,300.48L448.62,302.61L448.83,302.5L448.87,302.09L449.29,302.52L449.43,300.73L449.6,302.17L449.64,302.32L449.71,301.12L450.23,302.62L450.37,302.5L450.41,302.4L450.55,302.5L451.11,300.54L451.14,300.64L451.18,302.14L451.39,300.83L451.67,302.38L451.91,301.46L451.95,302.07L452.4,301.56L452.47,302.61L452.68,301.99L452.72,301.82L452.89,302.55L453.03,301.56L453.45,302.29L453.49,301.77L453.73,301.51L454.08,302.71L454.22,301.75L454.26,301.87L454.43,302.57L454.5,299.4L454.54,298.83L454.99,296.62L455.27,302.37L455.34,302.27L455.38,302.26L455.45,301.32L455.9,302.62L456.11,302.3L456.15,302.53L456.43,301.22L456.67,302.72L456.88,302.37L456.92,302.52L457.09,302.66L457.48,300.82L457.69,301.08L457.73,302.53L458.11,301.39L458.36,302.63L458.5,301.59L458.53,302.29L458.85,302.72L459.3,301.22L459.34,302.22L459.48,299.59L459.55,302.44L459.83,302.04L459.86,300.28L460.25,302.53L460.63,301.82L460.67,302.31L460.74,302.84L461.19,301.63L461.37,302.14L461.4,301.71L461.72,301.48L462.17,302.65L462.21,302.53L462.52,302.63L462.94,301.33L463.01,302.01L463.05,302.16L463.4,302.57L463.71,298.27L463.85,300.29L463.89,302.08L463.92,299.87L464.62,302.5L464.66,302.01L464.94,300.77L465.22,302.6L465.36,302.14L465.39,302.44L465.85,302.64L466.27,300.91L466.3,301.46L466.76,302.42L466.9,301.03L467.11,302.39L467.14,302.3L467.39,299.32L467.56,301.22L467.6,302.26L467.84,302.53L467.98,299.1L468.34,301.22L468.37,302.51L468.58,300.99L469.18,301.75L469.21,302.42L469.25,301.58L469.88,302.52L469.95,302.49L469.98,302.06L470.47,301.47L470.54,302.61L470.65,302.12L470.68,302.41L470.75,302.64L471.49,298.13L471.52,299.75L471.56,301.97L471.94,302.09L472.01,297.15L472.15,300.72L472.19,301.06L472.22,298.47L472.75,302.47L472.92,301.41L472.96,301.59L472.99,299.12L473.31,302.7L473.69,302.06L473.73,301.39L474.08,300.14L474.11,302.43L474.46,301.58L474.5,301.12L475.27,302.64L475.3,301.64L475.65,302.63L475.86,301.42L476.11,302.24L476.14,302.15L476.46,302.49L476.98,298.67L477.16,299.64L477.19,300.6L477.26,302.48L477.96,302.35L478,301.33L478.17,300.79L478.56,302.51L478.77,302.1L478.8,301.02L479.09,299.62L479.33,302.22L479.58,301.94L479.61,302.18L479.75,300.92L480.21,302.29L480.31,301.78L480.35,302.11L480.87,302.5L480.98,300.95L481.19,301.42L481.22,302.17L481.75,300.84L481.78,301.27L481.82,302.33L482.06,300.71L482.62,301.48L482.66,301.8L482.94,302.04L483.18,299.01L483.39,300.53L483.43,301.42L483.5,299.67L484.2,302.2L484.23,301.71L484.34,301.82L484.65,296.45L484.76,298.88L484.79,300.61L484.86,297.85L485.18,302.02L485.56,299L485.6,300.74L485.84,299.45L485.91,301.43L485.95,300.95L485.98,301.85L486.44,300.91L486.58,302.38L486.72,302.01L486.75,300.99L486.82,300.79L487.59,302.67L487.63,302.23L487.66,301.82L487.8,302.55L487.94,301.5L488.43,302.39L488.47,302.05L488.78,299.04L488.85,302.42L489.24,301.01L489.27,301.88L489.45,299.68L489.55,302.31L490.08,300.24L490.12,301.65L490.57,302.68L490.68,300.31L490.85,301.47L490.89,300.79L491.34,299.99L491.62,302.74L491.66,301.63L491.69,301.39L491.8,302.58L492.11,299.02L492.36,301.31L492.39,297.43L492.6,290.79L493.09,302.72L493.23,302.21L493.27,301.71L493.41,302.59L493.9,300.65L494,301.72L494.04,300.65L494.14,302.51L494.84,302.38L494.88,301.53L494.91,300.97L495.23,302.62L495.58,302.01L495.61,302.29L495.89,297.53L495.93,298.91L495.96,301.07L496.42,301.56L496.45,292.14L496.59,300.6L496.63,300.91L496.8,297.72L497.05,301.87L497.43,301.58L497.47,301.48L497.5,298.37L497.71,302.07L498.2,301.45L498.24,300.87L498.69,302.11L499.01,296.22L499.08,296.86L499.11,299.06L499.15,302.32L499.39,295.45L499.85,300.46L499.88,300.23L499.92,302.32L500.44,294.68L500.62,299.98L500.65,299.04L500.79,299.13L500.87,293.7L500.9,300.63L500.97,302.17L501.22,292.85L501.64,300.48L501.67,297.55L501.99,293.29L502.44,302.46L502.51,302.21L502.55,301.85L502.9,302.38L502.93,297.25L503.18,301.16L503.21,301.17L503.35,295.82L503.53,302.19L503.95,301.95L503.98,299.75L504.05,302.69L504.26,299.25L504.75,301.47L504.79,302.41L505.1,299.79L505.52,302.14L505.56,301.62L505.7,300L506.05,302.33L506.29,302.14L506.33,302.42L506.57,302.45L506.68,301.04L507.06,302.4L507.1,302.19L507.2,302.61L507.69,300.1L507.87,301.77L507.9,301.63L508.78,302.61L508.81,302.47L509.02,302.65L509.23,301.82L509.58,302.36L509.62,302.61L510.18,301.12L510.35,302.23L510.39,302.51L511.02,301.36L511.05,302.44L511.19,301.43L511.37,302.62L511.76,301.77L511.79,302.23L512,300.92L512.21,302.73L512.42,301.91L512.46,301.4L512.63,302.69L512.95,301.3L513.26,302.47L513.3,302.44L513.44,302.56L514,301.44L514.1,301.55L514.14,302.05L514.35,301.13L514.38,302.32L514.42,302.74L514.8,300.87L515.15,302.55L515.19,302.25L515.22,301.54L515.36,302.79L515.92,302.31L515.96,301.96L515.99,302.51L516.52,300.38L516.66,301.13L516.69,300.05L516.73,299.29L517.15,302.52L517.36,300.99L517.39,301.04L517.78,302.52L518.09,302.21L518.13,301.36L518.44,302.63L518.93,302.34L518.97,302.45L519.32,302.7L519.7,301.08L519.74,302.48L519.84,302.49L520.3,299.73L520.51,300.79L520.54,301.51L521,300.6L521.14,302.59L521.24,302.28L521.28,301.26L521.84,300.04L522.01,302.59L522.08,302.39L522.12,301.64L522.15,300.79L522.26,302.49L522.86,301.64L522.89,302.42L523.59,297.2L523.77,300.02L523.8,301.02L523.98,298.64L524.12,302.16L524.26,301.39L524.29,302.41L524.92,302.47L525.03,299.52L525.06,300.87L525.1,301.64L525.55,296.39L525.76,302.01L525.87,300.91L525.9,301.6L526.04,302.49L526.43,300.69L526.6,302.15L526.64,302.15L527.02,302.45L527.16,300.43L527.23,300.53L527.27,300.77L527.44,302.53L527.55,299.05L528,301.31L528.04,301.43L528.42,302.51L528.53,299.33L528.56,302.36L528.6,297.69L528.63,302.69L529.33,301.54L529.37,300.37L529.51,302.49L529.58,299.79L530.1,300.88L530.14,301.57L530.52,302.59L530.66,299.15L530.84,301.02L530.87,301.36L531.26,302.53L531.47,301.08L531.57,301.65L531.61,300.2L531.96,302.38L532.17,299.19L532.38,301.44L532.41,300.36L532.73,302.46L532.9,300.18L533.22,302.21L533.25,302.04L533.32,300.87L533.61,302.48L533.85,301.79L533.89,301.21L534.13,302.54L534.31,300.48L534.66,302.02L534.69,302.28L534.87,302.6L535.29,300.66L535.5,301.23L535.53,301.94L536.02,301.1L536.06,302.67L536.27,301.85L536.3,301.2L536.44,300.96L536.9,302.57L537.07,302.12L537.11,302.27L537.21,300.66L537.74,302.52L537.81,301.7L537.84,302.19L537.91,302.63L538.05,301.38L538.51,301.82L538.54,301.21L538.79,300.29L539.14,302.32L539.21,302.15L539.24,302.1L539.42,302.72L539.56,300.57L539.98,302.06L540.01,302.2L540.43,300.77L540.54,302.7L540.75,302L540.78,302.41L540.82,302.56" style="vector-effect: non-scaling-stroke; fill: none; stroke: rgb(0, 154, 250); stroke-opacity: 1; stroke-width: 1px; opacity: 1;"/></g><g class="points"/><g class="text"/></g></g></g><g class="overplot"/><path class="xlines-above crisp" d="M38.4925634295713,353.20669291338584H596.0629921259842" style="fill: none; stroke-width: 1px; stroke: rgb(0, 0, 0); stroke-opacity: 1;"/><path class="ylines-above crisp" d="M38.9925634295713,41.04330708661415V352.70669291338584" style="fill: none; stroke-width: 1px; stroke: rgb(0, 0, 0); stroke-opacity: 1;"/><g class="overlines-above"/><g class="xaxislayer-above"><path class="xtick ticks crisp" d="M0,352.70669291338584v-5" transform="translate(55.2125634295713,0)" style="stroke: rgb(0, 0, 0); stroke-opacity: 1; stroke-width: 1px;"/><path class="xtick ticks crisp" d="M0,352.70669291338584v-5" transform="translate(158.1525634295713,0)" style="stroke: rgb(0, 0, 0); stroke-opacity: 1; stroke-width: 1px;"/><path class="xtick ticks crisp" d="M0,352.70669291338584v-5" transform="translate(261.1025634295713,0)" style="stroke: rgb(0, 0, 0); stroke-opacity: 1; stroke-width: 1px;"/><path class="xtick ticks crisp" d="M0,352.70669291338584v-5" transform="translate(364.0525634295713,0)" style="stroke: rgb(0, 0, 0); stroke-opacity: 1; stroke-width: 1px;"/><path class="xtick ticks crisp" d="M0,352.70669291338584v-5" transform="translate(467.0025634295713,0)" style="stroke: rgb(0, 0, 0); stroke-opacity: 1; stroke-width: 1px;"/><path class="xtick ticks crisp" d="M0,352.70669291338584v-5" transform="translate(569.9425634295714,0)" style="stroke: rgb(0, 0, 0); stroke-opacity: 1; stroke-width: 1px;"/><g class="xtick"><text text-anchor="middle" x="0" y="366.9066929133858" transform="translate(55.2125634295713,0)" style="font-family: sans-serif; font-size: 11px; fill: rgb(0, 0, 0); fill-opacity: 1; white-space: pre; opacity: 1;">0</text></g><g class="xtick"><text text-anchor="middle" x="0" y="366.9066929133858" style="font-family: sans-serif; font-size: 11px; fill: rgb(0, 0, 0); fill-opacity: 1; white-space: pre; opacity: 1;" transform="translate(158.1525634295713,0)">1</text></g><g class="xtick"><text text-anchor="middle" x="0" y="366.9066929133858" style="font-family: sans-serif; font-size: 11px; fill: rgb(0, 0, 0); fill-opacity: 1; white-space: pre; opacity: 1;" transform="translate(261.1025634295713,0)">2</text></g><g class="xtick"><text text-anchor="middle" x="0" y="366.9066929133858" style="font-family: sans-serif; font-size: 11px; fill: rgb(0, 0, 0); fill-opacity: 1; white-space: pre; opacity: 1;" transform="translate(364.0525634295713,0)">3</text></g><g class="xtick"><text text-anchor="middle" x="0" y="366.9066929133858" style="font-family: sans-serif; font-size: 11px; fill: rgb(0, 0, 0); fill-opacity: 1; white-space: pre; opacity: 1;" transform="translate(467.0025634295713,0)">4</text></g><g class="xtick"><text text-anchor="middle" x="0" y="366.9066929133858" style="font-family: sans-serif; font-size: 11px; fill: rgb(0, 0, 0); fill-opacity: 1; white-space: pre; opacity: 1;" transform="translate(569.9425634295714,0)">5</text></g></g><g class="yaxislayer-above"><path class="ytick ticks crisp" d="M39.4925634295713,0h5" transform="translate(0,344.0933070866142)" style="stroke: rgb(0, 0, 0); stroke-opacity: 1; stroke-width: 1px;"/><path class="ytick ticks crisp" d="M39.4925634295713,0h5" transform="translate(0,289.95330708661413)" style="stroke: rgb(0, 0, 0); stroke-opacity: 1; stroke-width: 1px;"/><path class="ytick ticks crisp" d="M39.4925634295713,0h5" transform="translate(0,235.82330708661414)" style="stroke: rgb(0, 0, 0); stroke-opacity: 1; stroke-width: 1px;"/><path class="ytick ticks crisp" d="M39.4925634295713,0h5" transform="translate(0,181.69330708661414)" style="stroke: rgb(0, 0, 0); stroke-opacity: 1; stroke-width: 1px;"/><path class="ytick ticks crisp" d="M39.4925634295713,0h5" transform="translate(0,127.55330708661415)" style="stroke: rgb(0, 0, 0); stroke-opacity: 1; stroke-width: 1px;"/><path class="ytick ticks crisp" d="M39.4925634295713,0h5" transform="translate(0,73.42330708661416)" style="stroke: rgb(0, 0, 0); stroke-opacity: 1; stroke-width: 1px;"/><g class="ytick"><text text-anchor="end" x="36.292563429571295" y="3.8499999999999996" transform="translate(0,344.0933070866142)" style="font-family: sans-serif; font-size: 11px; fill: rgb(0, 0, 0); fill-opacity: 1; white-space: pre; opacity: 1;">0.00</text></g><g class="ytick"><text text-anchor="end" x="36.292563429571295" y="3.8499999999999996" style="font-family: sans-serif; font-size: 11px; fill: rgb(0, 0, 0); fill-opacity: 1; white-space: pre; opacity: 1;" transform="translate(0,289.95330708661413)">0.05</text></g><g class="ytick"><text text-anchor="end" x="36.292563429571295" y="3.8499999999999996" style="font-family: sans-serif; font-size: 11px; fill: rgb(0, 0, 0); fill-opacity: 1; white-space: pre; opacity: 1;" transform="translate(0,235.82330708661414)">0.10</text></g><g class="ytick"><text text-anchor="end" x="36.292563429571295" y="3.8499999999999996" style="font-family: sans-serif; font-size: 11px; fill: rgb(0, 0, 0); fill-opacity: 1; white-space: pre; opacity: 1;" transform="translate(0,181.69330708661414)">0.15</text></g><g class="ytick"><text text-anchor="end" x="36.292563429571295" y="3.8499999999999996" style="font-family: sans-serif; font-size: 11px; fill: rgb(0, 0, 0); fill-opacity: 1; white-space: pre; opacity: 1;" transform="translate(0,127.55330708661415)">0.20</text></g><g class="ytick"><text text-anchor="end" x="36.292563429571295" y="3.8499999999999996" style="font-family: sans-serif; font-size: 11px; fill: rgb(0, 0, 0); fill-opacity: 1; white-space: pre; opacity: 1;" transform="translate(0,73.42330708661416)">0.25</text></g></g><g class="overaxes-above"/></g></g><g class="polarlayer"/><g class="ternarylayer"/><g class="geolayer"/><g class="funnelarealayer"/><g class="pielayer"/><g class="iciclelayer"/><g class="treemaplayer"/><g class="sunburstlayer"/><g class="glimages"/><defs id="topdefs-cd5762"><g class="clips"/><clipPath id="legendcd5762"><rect width="57" height="29" x="1" y="1"/></clipPath></defs><g class="layer-above"><g class="imagelayer"/><g class="shapelayer"/></g><g class="infolayer"><g class="legend" pointer-events="all" transform="translate(541,20)"><rect class="bg" shape-rendering="crispEdges" width="58" height="30" x="0.5" y="0.5" style="stroke: rgb(0, 0, 0); stroke-opacity: 1; fill: rgb(255, 255, 255); fill-opacity: 1; stroke-width: 1px;"/><g class="scrollbox" transform="" clip-path="url(#legendcd5762)"><g class="groups"><g class="traces" transform="translate(1,15.5)" style="opacity: 1;"><text class="legendtext" text-anchor="start" x="40" y="4.29" style="font-family: sans-serif; font-size: 11px; fill: rgb(0, 0, 0); fill-opacity: 1; white-space: pre;">y1</text><g class="layers" style="opacity: 1;"><g class="legendfill"/><g class="legendlines"><path class="js-line" d="M5,0h30" style="fill: none; stroke: rgb(0, 154, 250); stroke-opacity: 1; stroke-width: 1px;"/></g><g class="legendsymbols"><g class="legendpoints"/></g></g><rect class="legendtoggle" x="0" y="-9.5" width="51.625" height="19" style="fill: rgb(0, 0, 0); fill-opacity: 0;"/></g></g></g><rect class="scrollbar" rx="20" ry="3" width="0" height="0" x="0" y="0" style="fill: rgb(128, 139, 164); fill-opacity: 1;"/></g><g class="g-gtitle"/><g class="g-xtitle" transform="translate(0,-10.706692913385837)"><text class="xtitle" x="317.77777777777777" y="407.70669291338584" text-anchor="middle" style="font-family: sans-serif; font-size: 15px; fill: rgb(0, 0, 0); opacity: 1; font-weight: normal; white-space: pre;">s</text></g><g class="g-ytitle"/><g class="annotation" data-index="0" style="opacity: 1;"><g class="annotation-text-g" transform="rotate(0,317.7777777777777,33.50000000000001)"><g class="cursor-pointer" transform="translate(196,20)"><rect class="bg" x="0.5" y="0.5" width="243" height="26" style="stroke-width: 1px; stroke: rgb(0, 0, 0); stroke-opacity: 0; fill: rgb(0, 0, 0); fill-opacity: 0;"/><text class="annotation-text" text-anchor="middle" x="122.0703125" y="20" style="font-family: sans-serif; font-size: 20px; fill: rgb(0, 0, 0); fill-opacity: 1; white-space: pre;">Window standard deviation</text></g></g></g></g></svg>