<svg class="main-svg" xmlns="http://www.w3.org/2000/svg" xmlns:xlink="http://www.w3.org/1999/xlink" width="600" height="400" style=""><rect x="0" y="0" width="600" height="400" style="fill: rgb(255, 255, 255); fill-opacity: 1;"/><defs id="defs-5709c4"><g class="clips"><clipPath id="clip5709c4xyplot" class="plotclip"><rect width="547.681539807524" height="325.4133858267717"/></clipPath><clipPath class="axesclip" id="clip5709c4x"><rect x="48.381452318460184" y="0" width="547.681539807524" height="400"/></clipPath><clipPath class="axesclip" id="clip5709c4y"><rect x="0" y="41.04330708661415" width="600" height="325.4133858267717"/></clipPath><clipPath class="axesclip" id="clip5709c4xy"><rect x="48.381452318460184" y="41.04330708661415" width="547.681539807524" height="325.4133858267717"/></clipPath></g><g class="gradients"/><g class="patterns"/></defs><g class="bglayer"/><g class="layer-below"><g class="imagelayer"/><g class="shapelayer"/></g><g class="cartesianlayer"><g class="subplot xy"><g class="layer-subplot"><g class="shapelayer"/><g class="imagelayer"/></g><g class="gridlayer"><g class="x"><path class="xgrid crisp" transform="translate(63.881452318460184,0)" d="M0,41.04330708661415v325.4133858267717" style="stroke: rgb(0, 0, 0); stroke-opacity: 0.1; stroke-width: 0.5px;"/><path class="xgrid crisp" transform="translate(165.17145231846018,0)" d="M0,41.04330708661415v325.4133858267717" style="stroke: rgb(0, 0, 0); stroke-opacity: 0.1; stroke-width: 0.5px;"/><path class="xgrid crisp" transform="translate(266.4614523184602,0)" d="M0,41.04330708661415v325.4133858267717" style="stroke: rgb(0, 0, 0); stroke-opacity: 0.1; stroke-width: 0.5px;"/><path class="xgrid crisp" transform="translate(367.75145231846017,0)" d="M0,41.04330708661415v325.4133858267717" style="stroke: rgb(0, 0, 0); stroke-opacity: 0.1; stroke-width: 0.5px;"/><path class="xgrid crisp" transform="translate(469.0414523184602,0)" d="M0,41.04330708661415v325.4133858267717" style="stroke: rgb(0, 0, 0); stroke-opacity: 0.1; stroke-width: 0.5px;"/><path class="xgrid crisp" transform="translate(570.3314523184603,0)" d="M0,41.04330708661415v325.4133858267717" style="stroke: rgb(0, 0, 0); stroke-opacity: 0.1; stroke-width: 0.5px;"/></g><g class="y"><path class="ygrid crisp" transform="translate(0,315.61330708661416)" d="M48.381452318460184,0h547.681539807524" style="stroke: rgb(0, 0, 0); stroke-opacity: 0.1; stroke-width: 0.5px;"/><path class="ygrid crisp" transform="translate(0,255.20330708661413)" d="M48.381452318460184,0h547.681539807524" style="stroke: rgb(0, 0, 0); stroke-opacity: 0.1; stroke-width: 0.5px;"/><path class="ygrid crisp" transform="translate(0,194.78330708661417)" d="M48.381452318460184,0h547.681539807524" style="stroke: rgb(0, 0, 0); stroke-opacity: 0.1; stroke-width: 0.5px;"/><path class="ygrid crisp" transform="translate(0,134.37330708661415)" d="M48.381452318460184,0h547.681539807524" style="stroke: rgb(0, 0, 0); stroke-opacity: 0.1; stroke-width: 0.5px;"/><path class="ygrid crisp" transform="translate(0,73.96330708661415)" d="M48.381452318460184,0h547.681539807524" style="stroke: rgb(0, 0, 0); stroke-opacity: 0.1; stroke-width: 0.5px;"/></g></g><g class="zerolinelayer"/><path class="xlines-below"/><path class="ylines-below"/><g class="overlines-below"/><g class="xaxislayer-below"/><g class="yaxislayer-below"/><g class="overaxes-below"/><g class="plot" transform="translate(48.381452318460184,41.04330708661415)" clip-path="url(#clip5709c4xyplot)"><g class="scatterlayer mlayer"><g class="trace scatter traced320b0" style="stroke-miterlimit: 2; opacity: 1;"><g class="fills"/><g class="errorbars"/><g class="lines"><path class="js-line" d="M15.5,155.74L15.54,151.12L16.13,156.91L16.25,152.95L16.26,152.89L16.64,157.27L16.87,150.12L17.01,155.81L17.02,156.13L17.08,157.5L17.76,151.26L17.77,152.39L17.78,152.7L17.82,152.11L17.86,157.3L18.53,154.3L18.54,154.33L18.99,151.98L19.16,155.69L19.29,154.39L19.3,154.45L19.53,156.57L19.96,150.5L20.05,151.73L20.06,151.82L20.06,151.66L20.22,156.02L20.81,154.05L20.82,153.88L21.09,156.65L21.43,151.12L21.57,155.72L21.58,156.07L21.67,156.7L21.93,151.63L22.33,154.93L22.34,154.97L22.46,150.77L22.65,156.85L23.09,155.27L23.1,155.37L23.48,157.02L23.6,150.62L23.85,154.21L23.86,153.95L24.32,151.37L24.49,156.31L24.61,153.25L24.62,152.88L24.92,155.82L25.15,150.22L25.37,152.98L25.38,153.06L25.49,156.71L25.57,151.42L26.13,154.83L26.14,154.24L26.24,155.98L26.64,151.65L26.89,152.91L26.9,153.06L27.06,150.88L27.52,156.3L27.65,153.56L27.66,153.6L27.92,156.52L28.22,151.04L28.41,156.18L28.42,156.03L28.47,156.98L28.54,151.82L29.17,153.7L29.18,153.58L29.66,157.05L29.75,151.09L29.93,153.26L29.94,153.13L30.1,156.02L30.58,150.26L30.69,153.57L30.7,153.48L30.77,151.26L30.82,156.99L31.45,153.43L31.46,153.32L31.74,151.07L32.16,155.44L32.19,153.55L32.2,153.52L32.4,156.07L32.79,151.43L32.95,153.26L32.96,153.12L33.1,156.18L33.22,150.35L33.71,155.67L33.72,155.56L33.82,156.57L33.95,151.37L34.47,153.03L34.48,153.11L34.78,156.95L34.97,151.34L35.21,152.78L35.22,152.5L35.27,155.48L35.49,151.05L35.97,154.11L35.98,154.05L36.42,156.38L36.64,150.49L36.73,152.87L36.74,153.06L37.04,156.15L37.2,150.93L37.49,152.15L37.5,152.34L37.96,151.24L38.21,156.29L38.25,153.43L38.26,153.63L38.54,156.99L38.72,151.06L39.01,154.27L39.02,154.18L39.17,156.42L39.67,150.48L39.77,155.49L39.78,155.76L39.78,156.21L39.82,150.5L40.53,154.93L40.54,154.96L40.64,151.46L41.2,155.66L41.29,152.85L41.3,152.86L41.41,156.82L42.05,150.97L42.06,151.04L42.19,155.56L42.32,148.96L42.78,152.61L42.78,152.44L42.97,150.97L43.32,156.69L43.37,152.28L43.38,152.14L44.05,156.15L44.1,149.04L44.13,154L44.14,154.01L44.25,149.86L44.89,157.45L44.9,157.44L45.45,316.2L45.55,15.96L45.65,198.36L45.66,192.45L45.8,9.21L45.91,255.27L46.41,166.93L46.42,168.54L46.47,180.9L46.58,139.5L47.17,151.84L47.18,152.44L47.28,159.02L47.65,148.37L47.93,151.83L47.94,151.88L48.04,158.28L48.66,150.15L48.69,154.83L48.7,154.41L48.72,150.56L49.34,159.14L49.45,153.97L49.46,154.01L50.01,149.13L50.18,156.71L50.21,149.96L50.22,149.88L50.78,157.37L50.97,150.14L50.98,150.12L51.16,155.68L51.5,149.19L51.73,154.45L51.74,154.88L51.75,156.5L52.36,150.35L52.49,155.08L52.5,155.14L52.62,156.38L52.71,149.76L53.25,151.74L53.26,151.45L53.94,160.6L54.01,138.92L54.02,135.02L54.13,252.76L54.5,64.37L54.77,137.02L54.78,139.3L54.83,175.85L55,130.78L55.53,149.35L55.54,149.27L55.87,157.84L56.1,148.69L56.29,153.23L56.3,153.24L56.37,149.91L56.77,158.68L57.05,152.29L57.06,152.08L57.61,264.25L57.71,68.25L57.81,175.34L57.82,184.25L57.86,231.03L57.98,43.78L58.57,157.02L58.58,156.91L58.64,163.4L58.8,143.99L59.33,149.41L59.34,150.15L59.46,159.99L59.56,148.79L60.09,153.67L60.1,153.5L60.55,149.58L60.8,157.22L60.85,154.09L60.86,154.12L61.05,148.68L61.3,158.75L61.61,152.75L61.62,152.58L62.19,157.23L62.37,150.01L62.38,149.83L62.39,149.04L63.03,158.53L63.13,154.02L63.14,153.67L63.34,158.35L63.4,150.67L63.89,152.36L63.9,151.97L64.29,158.2L64.64,154.13L64.65,154.07L64.78,157.84L65.17,151.49L65.39,153.65L65.39,153.39L65.9,156.81L66.05,150.29L66.07,155.33L66.07,155.87L66.76,107.67L66.79,201.8L66.82,164.43L66.83,173.05L66.85,265.09L67.22,57.77L67.58,147.3L67.59,147.54L67.67,179.87L67.75,138.87L68.34,152.77L68.35,152.58L68.67,149.8L68.75,158.94L69.1,153.32L69.11,153.01L69.52,150.54L69.83,159.12L69.86,152.91L69.87,152.49L70.02,158.85L70.3,147.11L70.62,155.22L70.63,155.06L70.87,159.83L71.14,149.48L71.38,151.55L71.39,150.96L71.74,157.93L71.78,149.63L72.14,153.86L72.15,154.07L72.36,148.58L72.77,158.14L72.9,156.43L72.91,156.38L72.97,159.07L73.36,149.15L73.66,158.28L73.67,158.94L74.4,108.71L74.42,184.14L74.43,191.79L74.5,264.68L74.66,69.08L75.18,141.37L75.19,140.93L75.21,133.82L75.3,176.91L75.94,154.38L75.95,154.27L76.1,145.42L76.19,158.95L76.7,152.98L76.71,152.33L77.06,147.47L77.1,160.93L77.46,150.53L77.47,150.48L77.77,162.77L78,146.15L78.22,155.87L78.23,156.38L78.27,146.79L78.5,161.38L78.98,159.55L78.99,159.47L79.41,161.55L79.59,140.17L79.74,160.13L79.75,159.46L80.45,262.34L80.5,89.3L80.5,95.52L80.51,102.95L80.67,62.77L80.74,223.9L81.26,157.02L81.27,156.57L81.36,166.44L81.45,139.53L82.02,157.44L82.03,157.5L82.23,146.75L82.26,166.66L82.78,155.86L82.79,155.21L82.93,145.85L83.03,162.03L83.54,149.13L83.55,149.59L83.6,163.16L83.95,148.63L84.3,155.53L84.31,156.41L84.36,144.2L84.39,163.17L85.06,146.05L85.07,145.36L85.4,162.02L85.62,143.31L85.82,160.21L85.83,163.34L86.02,254.31L86.24,45.37L86.58,173.42L86.59,170.06L86.61,185.14L86.7,137.95L87.34,152.34L87.35,153.6L87.81,166.88L88.1,146.35L88.11,146L88.23,164.59L88.83,143.14L88.86,154.44L88.87,153.41L88.92,147.05L89.52,163.49L89.62,154.61L89.63,154.88L89.75,145.22L90,161.77L90.38,155.54L90.39,155.47L90.71,144.13L90.75,159.45L91.14,149.83L91.15,150.08L91.51,252.17L91.72,45.32L91.9,138.85L91.91,140.25L91.94,194.98L92.01,132.02L92.66,152.44L92.67,153.86L92.68,161.41L93.19,145.54L93.42,148.59L93.43,148.43L93.52,161.74L93.61,147.26L93.61,147.18L93.93,160.98L94.36,150.37L94.37,150.67L95.06,145.31L95.09,159.2L95.12,153.6L95.13,153.22L95.2,142.72L95.7,168.48L95.88,159.93L95.89,159.43L96.14,143.26L96.64,164.88L96.65,164.55L96.83,255.28L97.04,43.31L97.4,171.14L97.41,170.62L97.42,176.14L97.49,137.19L98.16,149.04L98.17,149.22L98.35,144.37L98.68,169.44L98.92,150.59L98.93,151.78L99.21,142.23L99.62,161.92L99.68,154.49L99.69,154.87L99.75,161.98L100.31,146.82L100.44,158.35L100.45,158.78L100.77,161.02L101.1,148.77L101.2,150.23L101.21,150.09L101.7,235.34L101.91,52.13L101.96,188.57L101.97,189.47L101.99,203.68L102.06,103.74L102.72,149.94L102.73,149.03L102.73,148.58L102.82,157.54L103.48,151.85L103.49,151.83L103.85,158.17L104.24,150.9L104.25,150.98L104.32,149.15L104.98,159.83L105,152.75L105.01,151.52L105.24,148.54L105.63,162.02L105.76,151.31L105.77,151.52L106.34,103.37L106.43,233.77L106.52,147.49L106.53,145.41L106.65,44.88L106.65,203.88L107.28,153.36L107.29,156.75L107.44,146.24L107.63,161.08L108.04,153.12L108.05,152.19L108.24,146.35L108.61,159.28L108.8,153.12L108.81,152.93L109.25,147.87L109.33,159.24L109.56,153.29L109.57,153.09L109.6,150.86L109.77,157.04L110.32,153.48L110.33,153.34L110.76,224.22L110.97,46.16L111.08,170.13L111.09,161.97L111.13,102.9L111.19,189.29L111.84,154.94L111.85,154.73L112.02,159.23L112.08,148.68L112.6,154.78L112.61,154.55L112.62,156.12L113.01,150.8L113.36,154.44L113.37,154.33L113.48,156.43L113.92,150.02L114.12,154.48L114.13,154.5L114.68,220.91L114.84,89.56L114.88,107.1L114.89,56.71L114.89,49.79L114.9,196.61L115.64,155.27L115.65,155.05L115.69,148.64L116.03,157.33L116.4,152.27L116.41,152.05L116.42,151.23L116.58,158.09L117.16,153.71L117.17,153.69L117.75,148.82L117.85,156.13L117.92,151.71L117.93,150.93L118.26,222.96L118.46,52.98L118.68,178.57L118.69,181.33L118.7,189.17L118.78,131.43L119.44,153.31L119.45,153.85L119.53,156.94L119.79,150.87L120.2,155.74L120.21,155.74L120.52,156.43L120.58,150.42L120.96,156.07L120.97,155.9L121.6,114.35L121.7,211.38L121.72,146.74L121.73,138.16L121.85,212.26L121.91,44.68L122.48,163.13L122.49,164.44L122.5,166.55L122.55,141.02L123.24,153.23L123.25,153.01L123.26,149.55L123.32,157.88L124,152.11L124.01,151.91L124.6,157.17L124.76,134.26L124.77,125.76L124.87,219.57L125.08,57.67L125.52,160.05L125.53,157.34L125.58,138.73L125.65,162.18L126.28,153.22L126.29,153.2L126.66,150.1L126.91,156.23L127.01,153.18L127.02,153.1L127.46,150.82L127.58,156.53L127.77,154.19L127.78,154.75L128.11,216.49L128.32,61.59L128.53,142.92L128.54,143.4L128.58,187.66L128.66,130.96L129.29,154.3L129.3,154.57L129.34,150.98L129.38,155.77L130.05,153.93L130.06,153.95L130.16,156.61L130.26,150.56L130.81,153.9L130.82,153.85L131.2,214.08L131.42,71.16L131.57,137.21L131.58,146.16L131.6,123.96L131.66,177.37L132.33,155.5L132.34,155.89L132.36,158.82L132.96,150L133.09,155.22L133.1,154.66L133.35,151.35L133.85,157.01L133.86,156.6L134.4,209.03L134.61,64.48L134.61,186.57L134.62,220.47L134.62,73.61L135.37,152.4L135.38,152.05L135.47,148.24L135.69,159L136.13,154.5L136.14,154.37L136.16,150.9L136.28,156.15L136.89,153.2L136.9,153.48L137.56,126.09L137.65,202.65L137.66,206.7L137.87,65.41L137.87,213.53L138.41,157.36L138.42,156.35L138.45,144.48L138.55,161.67L139.17,152.75L139.18,152.57L139.23,157.72L139.44,151.21L139.93,154.95L139.94,154.69L140.65,156.91L140.68,141.33L140.69,145.9L140.7,147.75L141.04,70.13L141.04,210.77L141.45,150.96L141.46,151.48L141.47,144.6L141.55,161.29L142.21,156.27L142.22,156.11L142.35,156.97L142.52,151.21L142.97,153.27L142.98,153.28L143.55,151.15L143.72,156.93L143.73,154.86L143.74,155.48L144.18,68.96L144.19,224.57L144.49,151.64L144.5,150.88L144.5,164.2L144.61,142.5L145.25,155.77L145.26,155.34L145.36,156.94L145.76,150.9L146.01,155.1L146.02,155.12L146.71,149.86L146.74,156.61L146.77,155.04L146.78,153.81L147.26,75.33L147.27,210.83L147.53,152.29L147.54,155.11L147.58,170.73L147.65,138.45L148.29,158.71L148.3,158.8L148.37,145.08L148.68,160.45L149.05,153.76L149.06,153.88L149.57,156.32L149.68,151.6L149.72,153.16L149.73,152.47L150.34,70.61L150.34,207.09L150.48,148.71L150.49,148.44L150.66,164.99L150.73,140.71L151.24,151.88L151.25,151.82L151.27,149.58L151.4,156.46L152,152.27L152.01,152.25L152.64,155.99L152.71,151.88L152.76,152.53L152.77,153.13L153.32,72.09L153.38,203.65L153.52,149.61L153.53,142.47L153.68,180.01L153.76,139.58L154.28,154.04L154.29,154.3L154.43,157.19L154.56,152.27L155.04,153.47L155.05,153.51L155.74,148.62L155.76,155.31L155.8,151.43L155.81,153.14L156.19,77.6L156.2,212.51L156.56,148.49L156.57,148.44L156.58,143.53L156.78,158.35L157.32,152.84L157.33,152.84L157.41,150.31L157.46,155.88L158.08,154.02L158.09,153.88L158.7,195.61L158.74,131.85L158.84,141.75L158.85,147.38L158.86,77.28L158.92,211.42L159.6,153.23L159.61,153.44L159.78,150.28L159.95,156.83L160.36,151.46L160.37,151.66L160.69,215.12L160.9,88.53L161.12,150.26L161.13,155.16L161.21,169.72L161.28,142.25L161.88,152.71L161.89,152.86L162.18,150.56L162.6,156.37L162.64,152.8L162.65,152.45L162.92,150.89L163.12,156.29L163.4,154.98L163.41,154.88L163.89,155.95L163.98,151.29L164.16,155.67L164.17,155.74L164.27,151.6L164.87,156.06L164.92,153.28L164.93,151.49L165.14,216.52L165.33,113.1L165.68,162.62L165.69,160.29L165.78,143.18L165.95,162.95L166.44,155.42L166.45,155.47L166.49,156.96L166.6,150.64L167.2,153.97L167.21,153.97L167.29,152.23L167.81,157.04L167.96,154.57L167.97,154.48L168.09,158.34L168.26,151.63L168.72,156.39L168.73,155.91L169.06,157.08L169.37,151.12L169.48,155.14L169.49,154.75L169.59,151.68L169.64,158.88L170.24,155.45L170.25,155.71L170.77,152.33L170.93,156.77L171,154.65L171.01,154.35L171.61,158.42L171.76,145.48L171.77,144.57L171.92,212.34L172.11,113.59L172.52,149.29L172.53,148.15L172.57,138.19L172.73,161.23L173.28,156.46L173.29,156.38L173.44,151.68L174.04,154.02L174.05,154.2L174.37,156.57L174.74,152.3L174.8,155.52L174.81,155.49L174.81,155.73L174.91,152.79L175.56,153.88L175.57,153.69L175.94,152L176.09,155.42L176.32,153.09L176.33,152.98L176.49,155.6L177.04,152.41L177.08,153.41L177.09,153.44L177.53,152.66L177.74,156.01L177.83,153.69L177.83,153.6L178.47,189.55L178.58,132.16L178.58,140.39L178.59,139.1L178.63,89.44L178.68,200.52L179.34,154.62L179.35,154.27L179.4,151.38L180.09,156.19L180.1,154.72L180.11,154.45L180.51,156.38L180.86,150.41L180.86,151.44L180.87,152.1L181.39,102.8L181.39,194.99L181.62,151.67L181.63,153.82L181.68,164.02L181.82,144.07L182.38,153.69L182.39,153.86L182.98,151.99L183.09,155.82L183.14,154.06L183.15,154.19L183.38,151.94L183.84,155.49L183.9,152.95L183.91,152.95L184.21,141.96L184.27,160.3L184.28,164.36L184.5,100.23L184.51,194.34L185.03,154.57L185.04,154.66L185.11,156.37L185.36,150.87L185.79,153.92L185.8,153.62L185.91,150.59L186.11,156.45L186.55,151.7L186.56,151.71L187.2,156.62L187.24,150.79L187.31,153.93L187.32,154.18L187.84,189.25L187.9,101.96L188.07,149.19L188.08,148.95L188.23,162.49L188.36,148.17L188.83,152.93L188.84,153.19L189.32,157.29L189.56,151.55L189.59,154.43L189.6,154.54L189.84,150.8L190.04,155.73L190.35,153.6L190.36,153.54L190.92,150.82L191.07,156.49L191.11,153.23L191.12,152.72L191.45,187.73L191.5,102.65L191.87,153.88L191.88,153.95L191.94,148.64L192.11,158.43L192.63,154.93L192.64,154.75L192.89,149.27L193.02,156.01L193.39,154.07L193.4,154.47L193.56,155.78L193.69,151.41L194.15,154.71L194.16,154.98L194.73,144.24L194.86,180.76L194.91,162.32L194.92,166.61L195.01,185.23L195.07,104.74L195.67,160.53L195.68,161.27L195.84,148.09L196.43,152.74L196.44,152.56L196.9,156.86L197.01,150.68L197.19,154.35L197.2,154.35L197.28,157.03L197.57,151.57L197.83,155.24L197.83,155.47L198.39,143.85L198.42,157.13L198.46,155.76L198.46,157.46L198.69,104.35L198.7,186.5L199.21,151.07L199.22,151.8L199.3,158.03L199.49,149.07L199.97,154.48L199.98,154.24L200.18,151.57L200.48,155.86L200.73,154.33L200.74,154.69L201.06,149.33L201.2,158.09L201.49,153.2L201.5,153.59L202.01,106.31L202.01,187.5L202.25,150.41L202.26,149.91L202.33,162.71L202.51,147.16L203.01,153.89L203.02,153.96L203.44,150.81L203.56,155.19L203.77,153.44L203.78,153.93L204.35,156.95L204.5,150.74L204.53,152.49L204.54,151.8L205.14,105.81L205.15,188.19L205.29,153.32L205.3,155.62L205.37,144.13L205.46,164.92L206.05,153.13L206.06,153.21L206.36,155.64L206.47,151.8L206.81,153.57L206.82,153.55L207.34,152.02L207.44,155.78L207.54,153.98L207.54,154.47L208.19,190.23L208.24,107.84L208.29,143.93L208.3,147.12L208.3,146.52L208.55,165.86L209.05,153.81L209.06,153.96L209.48,156.27L209.59,149.91L209.81,153.64L209.82,153.67L210.31,155.91L210.45,151.38L210.53,154.36L210.53,154.57L210.78,150.82L210.81,156.86L211.06,151.71L211.06,150.86L211.36,188.24L211.42,109.69L211.81,156.12L211.82,154.69L211.94,146.4L212.03,159.66L212.57,152.86L212.58,152.89L212.77,150.93L213.15,156.23L213.33,153.37L213.34,153.31L213.64,152.26L213.99,156.55L214.09,153.35L214.1,152.86L214.57,185.85L214.77,111.88L214.85,156.6L214.86,160.53L215,144.79L215.08,167.05L215.61,151.43L215.62,151.46L216.01,157.3L216.1,150.4L216.37,152.22L216.38,151.98L216.41,157.08L216.46,151.42L217.13,155L217.14,154.85L217.79,144.5L217.89,159.43L217.9,162.2L218.07,190.87L218.12,107.16L218.65,149.44L218.66,151.87L218.69,149.08L218.74,159.49L219.41,151.61L219.42,151.57L219.54,150.21L220.08,156.1L220.17,154.39L220.18,154.39L220.62,155.71L220.91,150.95L220.93,153.09L220.94,152.33L221.45,107.51L221.46,186.3L221.69,151.99L221.7,152.25L221.78,166.38L221.98,145.58L222.45,153.88L222.46,153.48L223.09,148.74L223.14,157.25L223.21,154.87L223.22,154.33L223.23,149.39L223.94,159.21L223.97,152.58L223.98,152.61L224.64,183.39L224.73,113.24L224.73,114.55L224.74,163.77L224.78,114.02L224.79,180L225.49,154.21L225.5,153.67L225.57,149.1L225.96,157.05L226.25,154.02L226.26,154.31L226.29,151.18L226.48,156.23L227.01,154.29L227.02,154.55L227.64,158.01L227.75,145.78L227.77,149.09L227.78,148.62L228.03,185.22L228.04,105.84L228.53,153.26L228.54,152.87L228.62,146.22L228.71,158.21L229.29,156.04L229.3,156.1L229.96,151.79L230.03,154.8L230.04,154.97L230.06,155.91L230.71,151.85L230.79,153.38L230.8,154.04L231.26,102.51L231.32,180.91L231.55,151.6L231.56,152.13L231.58,144.94L231.62,166.42L232.31,153.96L232.32,153.78L232.73,151.57L232.9,155.71L233.07,153.78L233.08,153.86L233.77,152.17L233.8,155.44L233.83,153.17L233.84,153.09L234.49,187.6L234.49,98.18L234.59,144.36L234.6,144.26L234.61,143.14L234.86,169.07L235.35,153.75L235.36,153.61L235.39,151.68L235.68,155.93L236.11,154.4L236.12,154.53L236.4,155.88L236.77,151.66L236.87,152.75L236.88,152.52L237.62,181.82L237.63,101.65L237.63,135.37L237.64,137.19L237.68,112.98L237.69,178.12L238.39,153.02L238.4,152.86L238.54,151.37L238.8,155.86L239.15,153.19L239.16,153.3L239.27,155.73L239.71,151.15L239.91,153.41L239.92,153.64L240.61,181.17L240.65,136.21L240.67,151.06L240.68,155.56L240.69,106.51L240.75,179.66L241.43,156.92L241.44,157.15L241.76,150.03L242.09,154.31L242.09,154.66L242.49,150.29L242.58,161.5L242.6,152.05L242.6,151.12L242.85,160.08L242.89,148.48L243.35,153.33L243.36,153.43L243.69,103.22L243.75,181.63L244.11,154.2L244.12,155.95L244.29,145.16L244.43,159.19L244.87,154.06L244.88,154.3L245.01,160.06L245.22,147.95L245.63,156.84L245.64,157.32L245.93,159.24L246.36,142.22L246.39,146.82L246.4,145.43L246.5,183.37L246.71,114.38L247.15,151.17L247.16,150.26L247.19,160.96L247.27,141.37L247.91,156.13L247.92,156.67L248.05,159.44L248.09,148.62L248.67,154.76L248.68,155.03L249.39,140.73L249.43,162.66L249.43,160.08L249.44,159.24L249.64,187.48L249.64,108.09L250.19,151.74L250.2,151.57L250.26,143.84L250.35,159.94L250.95,152.89L250.96,152.89L250.99,156.83L251.61,150.81L251.71,154.25L251.72,153.89L251.82,150.73L252.31,158.56L252.33,152.26L252.34,152.1L252.67,188.98L252.68,117.66L253.09,158.46L253.1,157.51L253.26,148.97L253.38,158.74L253.85,154.16L253.86,154.2L253.96,156.74L254.26,151.04L254.61,153.75L254.62,153.96L255.24,157.31L255.36,150.62L255.37,152.77L255.38,151.81L255.56,182.64L255.71,118.82L256.13,155.79L256.14,155.66L256.37,145.51L256.59,157.67L256.89,154.01L256.9,153.92L257.23,151.11L257.5,158.16L257.65,153.72L257.66,154.14L257.88,159.09L258.26,148.87L258.41,152.15L258.42,152.64L258.73,184.24L258.79,117.57L259.17,159.9L259.18,159.29L259.18,159.33L259.37,148.95L259.93,154.99L259.94,154.75L260.03,148.83L260.67,155.01L260.69,152.02L260.7,151.73L260.94,156.36L261.42,142.1L261.45,142.78L261.46,143.84L261.7,184.07L261.75,112.38L262.21,154.65L262.22,152.77L262.36,147.33L262.57,156.98L262.97,154.66L262.98,155.06L263.32,150.43L263.55,156.32L263.73,151.1L263.74,151.32L264.43,142.38L264.47,163.07L264.49,156.5L264.5,156.85L264.53,180.46L264.73,120.31L265.25,151.85L265.26,151.71L265.31,147.37L265.54,157.95L266.01,154.75L266.02,154.38L266.16,150.18L266.47,155.97L266.77,152.98L266.78,153.16L266.97,156.12L267.4,142.61L267.46,155.99L267.46,157.99L267.68,182.19L267.74,117.16L268.21,152.65L268.22,151.77L268.34,148.85L268.55,157.53L268.97,154.78L268.98,154.75L269.31,151.26L269.48,156.09L269.74,153.12L269.74,153.24L270.35,144L270.48,179.17L270.49,174.12L270.5,171.29L270.63,179.03L270.69,120.64L271.25,151.91L271.26,152.24L271.3,148.78L271.74,156.69L272.01,154.83L272.02,154.99L272.17,156.65L272.22,152.38L272.77,154.86L272.78,154.97L273.1,152.92L273.26,156.83L273.27,153.54L273.27,151.67L273.42,180.93L273.63,122.1L273.92,160.1L273.92,161.93L273.94,165.65L274.25,148.48L274.67,154.24L274.68,154.38L275.22,157.25L275.3,151.5L275.43,155.87L275.44,155.87L275.51,157.81L276.04,152.2L276.1,154.97L276.1,152.89L276.38,179.49L276.54,129.1L276.58,139.56L276.59,120.33L276.6,170.66L277.34,153.28L277.35,153.57L277.4,157.76L277.62,149.86L278.1,154.11L278.11,153.85L278.4,156.04L278.64,152.56L278.82,153.91L278.82,154.08L279.49,179.75L279.55,121.14L279.57,159.3L279.58,157.72L279.63,140.59L279.86,165.09L280.33,156.11L280.34,156.4L280.36,158.16L280.43,151.03L281.09,151.65L281.1,151.7L281.1,151.45L281.26,156.26L281.85,154.14L281.86,154.03L282.37,180.61L282.57,121.64L282.61,152.67L282.62,150.72L282.74,165.83L282.78,142.98L283.37,157.64L283.38,157.74L283.7,152.03L284.15,154.08L284.15,154.28L284.3,155.83L284.41,152.46L284.94,153.34L284.95,153.35L285.36,181.15L285.56,121.88L285.7,157.14L285.71,157.49L285.73,164.72L285.76,144.22L286.46,153.48L286.47,153.93L286.89,156.6L286.98,151.52L287.22,153.34L287.23,153.65L287.85,155.59L287.95,151.69L287.98,154.16L287.99,154.33L288.35,178.5L288.55,122.75L288.74,148.73L288.75,146.91L288.76,142.58L288.86,163.01L289.5,155.41L289.51,155.65L289.71,152.33L290.26,154.21L290.27,153.93L290.37,154.62L290.5,152.49L290.84,153.47L290.84,152.67L291.37,176.55L291.57,124.17L291.59,160.12L291.6,154.69L291.78,141.57L291.88,165.76L292.35,153.68L292.36,153.9L292.4,157.47L292.74,152.31L293.11,152.97L293.12,152.89L293.32,155.67L293.66,152.37L293.87,155.15L293.88,154.52L294.37,175.15L294.58,121.51L294.63,147.02L294.64,145.4L294.65,143.04L294.89,165.08L295.39,156.84L295.4,157.05L295.4,157.47L295.73,151.74L296.15,152.95L296.16,152.73L296.19,151.63L296.33,155.95L296.91,152.71L296.92,152.68L297.32,175.29L297.52,125.56L297.67,156.79L297.68,157.23L297.74,145.67L297.84,162.67L298.43,153.2L298.44,153.64L298.63,150.87L299.01,155.67L299.19,152.16L299.2,152.07L299.66,151.82L299.94,155.74L299.95,154.86L299.96,155.07L300.25,176.47L300.46,127.19L300.71,156.22L300.72,154.86L300.77,163.01L301.08,146.77L301.47,152.55L301.48,152.44L302.02,150.56L302.22,155.67L302.23,155.33L302.24,155L302.29,156.6L302.99,151.7L303,151.63L303.32,177.09L303.38,125.61L303.75,156.29L303.76,156.58L303.82,158.42L304.01,146.54L304.51,150.64L304.52,150.61L305.11,156.62L305.35,153.4L305.36,153.21L305.54,155.17L306.1,141.29L306.11,152.47L306.12,153.07L306.34,178.24L306.39,126.8L306.87,151.26L306.88,150.97L306.95,157.81L307.02,145.99L307.63,153.56L307.64,153.46L307.89,156.82L308.3,151.87L308.39,154.73L308.4,154.93L308.89,151.24L309.02,155.23L309.11,155.12L309.11,155.42L309.27,177.94L309.48,125.77L309.86,155.16L309.87,156.21L310.11,148.29L310.29,158.2L310.62,152.06L310.63,151.95L310.94,151.77L310.96,155.43L311.42,153.32L311.42,152.99L312.07,156.21L312.1,151.43L312.1,150.94L312.52,176.02L312.73,126.84L312.85,146.11L312.86,148.14L312.93,144.03L313.05,162.24L313.61,151.04L313.62,151.12L313.74,156.55L314.37,154.07L314.38,154L314.43,151.43L314.98,155.28L315.13,153.01L315.14,153.09L315.5,155.55L315.89,147.72L315.9,145.81L316.04,177.73L316.24,126.05L316.65,158.28L316.66,157.49L316.89,149.08L317.41,153.02L317.42,152.98L317.62,155.4L317.94,151.47L318.09,154.1L318.09,154.37L318.11,155.2L318.2,152.17L318.8,153.49L318.8,153.39L319.22,155.2L319.5,151.07L319.55,152.64L319.56,152.32L319.84,179.53L320.04,125.92L320.31,157.24L320.32,158.54L320.36,160.84L320.69,148.57L321.07,154.25L321.08,154.63L321.19,151.66L321.43,155.81L321.83,153.77L321.84,153.81L321.94,155.02L322.13,152.36L322.59,153.27L322.6,153.56L323.02,155.27L323.31,152.38L323.35,154.18L323.36,154.16L323.72,179.25L323.92,125.42L324.11,149.47L324.12,147.79L324.12,146.18L324.21,162.45L324.87,155.12L324.88,155.3L324.92,156.18L325.05,149.91L325.59,154.27L325.6,153.73L326.09,150.54L326.19,156.73L326.35,153.51L326.36,153.71L326.52,152.29L326.62,155.57L327.11,154.52L327.12,154.54L327.62,139.18L327.72,179.49L327.87,163.59L327.88,161.1L327.92,127.01L327.93,168.86L328.63,150.51L328.64,150.72L328.73,156.83L329.39,153.76L329.4,154.1L329.84,155.89L330.15,151.95L330.16,151.85L330.8,155.03L330.91,153.8L330.92,153.72L331.29,155.61L331.49,152.1L331.67,153.62L331.68,152.65L331.88,180L332.08,126.15L332.43,154.63L332.44,154.68L332.49,158.48L332.72,148.52L333.19,153.74L333.2,153.78L333.27,151.38L333.59,155.79L333.95,154.1L333.96,154.29L334.17,152.44L334.6,154.96L334.66,153.51L334.66,153.21L334.69,152.67L334.78,154.92L335.34,154.55L335.34,154.66L335.39,154.97L336.03,152.48L336.09,153.73L336.1,153.89L336.4,181.44L336.6,121.53L336.85,154.75L336.86,155.09L336.88,165.59L337.23,148.84L337.61,154.25L337.62,154.51L337.76,151.54L338.11,155.27L338.37,153.57L338.38,153.39L338.62,155.2L339,152.09L339.13,154.11L339.14,154.35L339.22,152.42L339.57,154.88L339.89,153.84L339.9,153.81L340.1,154.83L340.63,152.02L340.65,153.06L340.66,152.71L341.25,137.95L341.35,180.67L341.41,163.85L341.42,167.81L341.43,174.49L341.55,123.42L342.17,148.32L342.18,147.79L342.18,146.63L342.51,156.1L342.93,154.4L342.94,154.52L343.03,156.12L343.36,152.39L343.69,153.62L343.7,153.62L343.89,152.2L344.24,155.31L344.25,155.45L344.28,152.61L345,153.61L345.01,153.45L345.08,155.13L345.49,152.47L345.76,153.71L345.77,153.8L345.95,154.92L346.18,152.31L346.52,154.76L346.53,155.01L347.13,180.34L347.17,135.97L347.28,159.38L347.29,160.53L347.33,123.71L347.35,164.5L348.04,152.27L348.05,152.36L348.05,151.05L348.42,156.48L348.8,153.28L348.81,153.29L348.93,155.08L349.54,152.79L349.56,154.47L349.57,154.46L349.92,152.77L350.26,155.35L350.32,153.36L350.33,153.6L350.4,152.56L350.98,155L351.08,153.45L351.09,153.68L351.52,152.61L351.62,154.7L351.84,153.99L351.85,154.3L351.88,155.08L352.01,152.5L352.6,154.1L352.61,154.16L353.01,152.41L353.24,154.92L353.34,153.85L353.35,153.74L353.86,181.2L354.06,120.88L354.1,166.71L354.11,165.75L354.2,141.1L354.86,152.78L354.87,152.51L355.11,158.58L355.21,149.91L355.62,153.51L355.63,153.51L355.85,152.16L356.07,155.83L356.38,153.38L356.39,153.26L356.45,152.35L356.74,155.12L357.1,152.97L357.1,152.84L357.14,154.64L357.87,154.15L357.87,154.1L358.49,155.35L358.54,151.03L358.64,153.06L358.64,153.33L358.81,155.07L359.31,151.49L359.39,154.38L359.4,154.47L359.45,151.72L359.91,154.86L360.15,152.63L360.16,152.56L360.26,155.24L360.91,153.48L360.92,153.45L361.38,152.11L361.41,155.14L361.66,153.42L361.67,153.45L361.77,152.46L361.97,154.61L362.37,153.6L362.38,153.84L362.61,183.85L362.81,123.16L363.13,158.95L363.14,158.65L363.16,160.76L363.48,148.25L363.89,154.04L363.9,154.1L363.91,155.47L364.65,150.85L364.66,150.76L365.39,154.43L365.41,153.73L365.42,153.65L366.01,151.16L366.12,155.52L366.17,153.93L366.18,153.38L366.21,151.27L366.31,155.48L366.93,153.12L366.94,153.1L367.47,151.8L367.59,154.39L367.69,152.16L367.7,152.38L368.22,155.66L368.35,151.53L368.45,153.58L368.46,153.94L369.09,156.41L369.21,151.39L369.21,151.87L369.22,152.37L369.26,151.8L369.32,155.01L369.97,153.13L369.98,153.03L370.09,155.22L370.66,151.92L370.73,153.29L370.74,153.29L371.06,152.18L371.38,154.99L371.49,152.95L371.5,153L371.83,151.92L372.18,154.86L372.25,153.01L372.26,153.17L372.9,156.85L372.94,151.51L373.01,152.95L373.02,152.64L373.08,156.76L373.14,150.75L373.77,153.68L373.78,153.8L374.06,152.36L374.12,155.71L374.53,154.78L374.54,154.36L374.57,155.81L375.13,152.1L375.29,154.89L375.3,154.61L375.94,184.62L375.97,130.93L376.05,156.77L376.06,156.29L376.14,128.13L376.19,170.95L376.81,147.55L376.82,147.86L376.98,157.75L377.57,153.96L377.58,154.03L377.95,151.38L378.27,156.67L378.33,152.92L378.34,152.84L378.45,152.22L378.97,155.5L379.09,153.65L379.1,153.71L379.13,152.46L379.46,156.09L379.75,154.87L379.75,155L380.18,164.64L380.2,144.63L380.5,150.28L380.51,149.77L380.82,161.81L381.15,147.13L381.26,148.89L381.27,148.36L381.27,148L381.88,159.62L382.02,152.26L382.03,151.17L382.06,160.79L382.16,148.85L382.78,155.83L382.79,155.65L383.24,160.17L383.33,148.02L383.54,156.7L383.55,156.52L383.93,148.73L383.95,160.53L384.3,156.95L384.31,157.79L384.34,149.24L384.55,158.88L385.06,152.95L385.07,153.11L385.67,156.47L385.76,151.24L385.82,152.53L385.83,152.76L386.15,156.46L386.17,150.81L386.58,151.8L386.59,151.64L386.62,157.39L386.84,151.6L387.34,153.48L387.35,153.87L387.52,151.73L388.02,156.07L388.1,155.34L388.11,155.29L388.33,155.63L388.53,151.77L388.86,153.44L388.87,153.74L389.04,152.02L389.15,155.45L389.62,153.94L389.63,154.04L389.65,155.7L390.1,152.84L390.38,153.87L390.39,154.02L390.65,154.89L391,152.66L391.14,153.97L391.15,154.02L391.17,152.51L391.76,155.23L391.9,153.27L391.91,153.19L392.24,155.22L392.5,152.09L392.55,154.21L392.55,154.37L392.68,156.18L392.87,152.19L393.26,153.61L393.26,153.42L393.27,152.86L393.31,154.82L394.01,153.43L394.02,153.54L394.12,152.02L394.38,155.39L394.77,153.54L394.78,153.35L395,152.21L395.36,154.99L395.53,154.21L395.54,154.39L395.95,155.2L396.01,151.53L396.29,153.55L396.3,153.45L396.77,150.68L396.85,158L397.05,153.87L397.06,153.8L397.4,152.39L397.72,155.44L397.81,153.45L397.82,153.43L397.9,155.51L398.53,152.67L398.57,153.63L398.58,153.63L398.63,152.39L398.82,154.67L399.33,153.59L399.34,153.37L399.43,155.51L400.07,151.97L400.09,153.9L400.1,154.04L400.12,154.55L400.17,151.67L400.77,154.53L400.77,155.02L400.78,156.02L400.81,151.61L401.45,153.6L401.46,153.54L401.77,155.04L401.81,152.59L402.21,153.41L402.22,153.62L402.37,152.42L402.48,154.6L402.97,153.37L402.98,153.18L403.07,154.69L403.44,152.39L403.73,154.69L403.74,154.98L404.17,152.59L404.49,153.88L404.5,153.71L404.62,152.82L405.1,154.79L405.25,153.57L405.26,153.56L405.36,155.31L405.78,152.12L406.01,153.68L406.02,153.92L406.03,154.85L406.29,152.64L406.77,153.62L406.78,153.48L406.86,154.96L407.17,152.97L407.53,153.06L407.54,153.05L408.04,154.83L408.22,152.81L408.29,153.64L408.3,153.53L408.64,155.59L408.71,150.98L409.05,153.71L409.06,153.27L409.39,152.45L409.53,155.08L409.81,154.35L409.82,154.4L410.11,154.84L410.35,152.05L410.57,154.57L410.58,154.49L411.02,155.63L411.07,152.15L411.33,153.68L411.34,153.82L411.38,151.9L411.6,154.34L411.82,154.28L411.82,154.5L411.85,154.83L411.96,152.19L412.5,153.34L412.5,153.28L412.95,152.82L413.19,154.85L413.25,153.48L413.26,153.57L413.85,155.57L413.88,151.58L414.01,154.35L414.02,154.47L414.51,154.75L414.71,152.47L414.77,153.28L414.78,153.45L415.07,154.83L415.28,152.5L415.48,153.19L415.48,153.03L416.01,156.71L416.04,152.5L416.04,152.34L416.25,157.26L416.67,150.42L416.68,150.39L416.68,149.94L416.73,155.96L417.43,154.19L417.44,154.21L417.94,151.43L418.15,155.76L418.19,152.77L418.2,152.68L418.2,152.42L418.77,156.04L418.95,154.66L418.96,154.36L419.36,156.53L419.41,150.94L419.71,154.18L419.72,154.18L419.94,154.88L420.05,152.2L420.47,153.54L420.48,153.43L420.82,150.52L420.9,157.05L421.23,151.82L421.24,151.74L421.58,156.35L421.67,150.18L421.99,154.63L422,154.47L422.09,151.58L422.12,156.97L422.75,153.34L422.76,153.27L422.88,151.97L423.48,155.09L423.51,152.59L423.52,152.56L423.59,152.39L424.02,155.25L424.27,153.45L424.28,153.5L424.96,151.94L425.01,155.47L425.03,154.38L425.04,154.22L425.13,152.67L425.74,155.39L425.79,154.45L425.8,154.47L425.85,152.39L425.98,155.19L426.55,153.04L426.56,152.98L426.56,152.56L427.31,154.69L427.31,154.4L427.32,154.17L427.49,152.36L428.03,154.8L428.07,153.62L428.08,153.4L428.45,152.49L428.5,154.75L428.83,153.96L428.84,153.9L429.02,154.37L429.2,152.98L429.59,153.34L429.6,153.61L429.76,152.48L430.11,155.28L430.35,154.59L430.36,154.51L430.64,155.31L430.84,152.56L431.11,154.07L431.12,154.07L431.15,155.17L431.27,152.54L431.83,154.16L431.84,154.11L432.42,154.65L432.51,152.92L432.59,154.22L432.6,154.34L432.78,154.91L432.96,153.08L433.35,154.07L433.36,154.04L433.39,154.56L434.09,152.56L434.11,153.18L434.12,153.29L434.46,152.51L434.83,154.41L434.88,154.18L434.88,153.9L435.01,154.87L435.43,152.89L435.64,153.5L435.65,153.71L435.67,152.96L435.83,154.54L436.4,154.17L436.41,154.23L436.52,154.86L437.02,153.09L437.16,153.49L437.17,153.62L437.67,154.78L437.77,152.8L437.92,153.25L437.93,153.54L438.44,153.03L438.55,154.83L438.68,153.96L438.69,153.77L439,153.15L439.39,154.72L439.4,153.4L439.41,153.31L439.63,152.59L439.85,154.43L440.16,153.61L440.17,153.45L440.37,152.65L440.73,154.55L440.92,153.87L440.93,153.84L441.01,154.94L441.08,152.61L441.66,153.65L441.67,153.61L442.15,154.66L442.23,152.44L442.42,153.93L442.43,153.77L442.77,152.61L442.86,154.63L443.19,153.16L443.2,153.1L443.2,152.72L443.38,154.47L443.95,153.69L443.96,153.98L444.25,155.22L444.38,152.68L444.71,154.04L444.72,153.93L444.81,154.35L445.15,152.67L445.47,153.78L445.48,153.76L445.48,154.07L445.74,152.72L446.23,153.4L446.24,153.48L446.56,154.58L446.91,153.01L446.95,153.1L446.95,152.99L447.21,151.77L447.24,155.45L447.61,151.97L447.61,151.85L447.67,151.36L447.7,155.14L448.36,154.09L448.37,153.99L448.47,153.03L449.11,154.8L449.12,153.85L449.13,153.76L449.26,153.06L449.7,154.61L449.88,154.14L449.89,154.3L450.13,154.86L450.33,152.9L450.62,154.38L450.63,154.16L450.74,154.38L451.24,152.7L451.38,153.42L451.39,153.46L451.57,152.89L452.11,155.1L452.17,154.4L452.18,154.33L452.48,152.38L452.63,154.91L452.88,154.3L452.89,154.28L452.95,153.03L453.03,154.89L453.64,153.74L453.65,153.73L453.98,154.85L454.17,152.96L454.42,154.22L454.43,154.14L454.51,154.75L454.93,153.35L455.18,154.13L455.19,154.24L455.44,154.6L455.7,152.26L455.94,153.94L455.95,153.97L456.13,152.08L456.25,155.76L456.7,153.31L456.71,153.4L456.94,154.3L457.33,152.25L457.46,153.9L457.47,153.79L457.48,152.49L458.04,154.63L458.22,154.55L458.23,154.48L458.97,152.4L459.05,153.42L459.06,153.43L459.39,152.84L459.78,154.83L459.81,153.84L459.82,153.54L459.99,152.16L460.46,155.48L460.57,153.51L460.58,153.49L460.68,155.44L461.22,152.6L461.33,153.53L461.34,153.51L461.51,154.68L461.71,152.77L462.09,153.93L462.1,153.96L462.54,152.97L462.8,154.29L462.85,153.6L462.86,153.6L462.91,152.85L463.39,154.83L463.61,154.64L463.62,154.81L464.09,156.06L464.14,151.99L464.37,154.19L464.38,154.23L464.44,151.43L464.66,155.62L465.13,153.43L465.14,153.36L465.38,155.17L465.45,152.43L465.89,154.28L465.9,154.15L466.21,152.69L466.4,155L466.55,153.36L466.55,153.26L466.75,152.48L467.18,154.77L467.32,154.11L467.33,153.93L467.52,154.41L468.08,152.79L468.08,152.95L468.09,153.21L468.12,152.58L468.85,154.38L468.86,153.86L468.87,154.04L469.23,151.15L469.48,154.84L469.57,152.81L469.57,152.74L470.18,154.65L470.24,152.16L470.31,152.71L470.31,152.31L470.36,151.9L470.97,154.49L471.03,152.78L471.04,152.77L471.32,154.86L471.39,151.33L471.79,153.4L471.8,154.01L471.81,154.3L472.07,152.3L472.55,154.09L472.56,153.84L472.94,152.58L473.25,154.46L473.31,153.73L473.32,153.65L473.94,152.37L474.02,155.06L474.07,153.59L474.08,153.61L474.35,152.6L474.66,155.04L474.83,154.06L474.84,154.22L475.42,151.97L475.45,155.01L475.59,152.64L475.6,152.87L475.74,151.77L476.07,154.58L476.35,154.32L476.36,154.41L476.89,156.31L476.97,151.24L477.11,154.08L477.12,154.11L477.14,151.88L477.69,155.22L477.87,153.29L477.88,153.2L477.96,155.08L478.05,152.13L478.63,153.76L478.64,153.78L478.72,152.47L479.01,154.78L479.39,153.47L479.4,153.56L479.63,152.7L479.92,155.19L480.15,154.04L480.16,154.04L480.72,155.83L480.91,153.19L480.92,153.23L480.97,152.95L481.28,155.71L481.67,154.56L481.68,154.66L481.78,153.11L482.09,155.81L482.43,155.12L482.44,155.06L482.62,155.7L482.99,153.37L483.2,154.38L483.2,154.52L483.46,155.71L483.95,153.37L483.96,154.03L483.96,154.19L484.49,156.28L484.55,152.4L484.63,155.31L484.64,155.41L484.68,150.17L484.7,157.89L485.39,154.25L485.4,154.02L485.62,153.15L485.98,155.14L486.15,154.43L486.16,154.47L486.36,155.06L486.73,152.76L486.91,154.07L486.92,154.1L487.03,152.91L487.11,154.45L487.67,153.73L487.68,153.71L488.19,149.44L488.37,158.46L488.43,155.97L488.44,155.97L488.51,162.87L488.85,149.91L489.19,153.83L489.2,153.54L489.46,151.88L489.53,155.56L489.95,154.83L489.96,154.58L490.25,150.11L490.55,159.53L490.71,158.01L490.72,157.89L490.72,158.21L491.02,146.12L491.47,157.54L491.48,157.75L491.66,152.71L491.98,160.18L492.04,153.02L492.04,152.79L492.14,157.72L492.28,149.3L492.79,155.79L492.8,156.28L493.15,148.34L493.43,158.42L493.55,155.84L493.56,155.66L493.95,160.25L494.29,150.17L494.31,151.54L494.32,151.67L494.88,159.09L495.07,154.99L495.08,155.03L495.14,157.17L495.48,147.5L495.83,155.14L495.84,155.13L496,157.19L496.3,152.17L496.59,154.51L496.6,154.38L496.73,156.46L497.28,150.8L497.35,151.62L497.36,151.52L497.74,154.75L498.15,153.93L498.16,153.8L498.3,152.72L498.65,154.93L498.91,154.46L498.92,154.42L498.98,154.91L499.51,151.46L499.67,153.34L499.68,153.4L499.75,152.45L500.43,154.73L500.43,154.45L500.44,154.27L500.97,154.49L501.05,153.1L501.19,153.97L501.2,154.1L501.2,154.28L501.7,152.32L501.95,153.85L501.96,153.69L502,152.85L502.58,155.12L502.71,153.31L502.72,153.65L502.89,155.56L503.44,152.47L503.47,153.03L503.48,153.03L503.5,152.36L503.76,154.63L504.23,153.75L504.24,153.68L504.26,152.86L504.78,155.06L504.99,154.35L505,154.33L505.35,154.76L505.64,153.23L505.75,153.34L505.76,153.31L505.86,152.65L506.42,154.7L506.51,153.39L506.52,153.4L506.53,152.87L506.56,154.74L507.27,153.54L507.28,153.5L507.46,154.31L507.6,152.78L508.03,153.92L508.04,154.07L508.38,154.81L508.41,152.44L508.79,153.82L508.8,153.57L508.87,154.78L509.32,152.81L509.55,153.17L509.56,152.98L509.62,152.28L509.82,154.8L510.31,152.85L510.32,152.7L510.7,155.3L511.09,153.24L511.09,153.14L511.22,151.55L511.63,156.64L511.84,154.02L511.85,154L511.92,150.67L512.32,154.78L512.6,153.14L512.61,153.29L512.87,156.71L513.18,151.12L513.36,151.96L513.37,151.96L513.74,157.72L514.09,150.78L514.12,152.42L514.13,152.4L514.24,151.3L514.79,157.53L514.88,156.13L514.89,156.12L515.19,148.37L515.61,155.92L515.61,156.26L515.76,158.09L516.05,151.43L516.05,151.12L516.25,150.69L516.61,154.36L516.61,154.97L516.86,158.68L517.34,147.93L517.36,149.18L517.37,149.24L517.37,149.04L517.77,159.25L518.12,151.73L518.13,151.77L518.4,150.42L518.86,159.57L519.02,156.43L519.02,156.29L519.25,149.04L519.73,156.1L519.73,156.35L519.8,159.14L520.27,149.95L520.48,150.93L520.49,150.82L520.53,149.63L520.94,159L521.24,150.8L521.25,150.81L521.48,149.56L521.97,160.39L522,160.2L522.01,160.29L522.05,160.56L522.39,148.68L522.84,153.85L522.85,153.95L523.05,157.9L523.58,150.3L523.6,151.81L523.61,151.83L523.72,148.73L524.35,157.53L524.36,156.78L524.37,156.49L524.98,151.06L525.12,151.99L525.13,152.08L525.13,151.72L525.59,157.29L525.88,152.06L525.89,152.02L525.9,151.67L526.61,153.76L526.64,153.38L526.65,153.56L526.87,156.6L527.27,152.03L527.4,153.6L527.41,153.58L527.81,151.91L528.1,155.66L528.16,155.06L528.17,154.95L528.21,155.95L528.67,151.74L528.92,153.06L528.93,153.19L529.17,152.7L529.66,155.48L529.68,155.17L529.69,155.11L529.73,155.17L530.26,151.57L530.44,153.45L530.45,153.4L530.47,152.76L530.88,155.03L531.2,153.75L531.21,153.74L531.75,152.82L531.77,154.6L531.96,153.2L531.97,153.35L532.02,152.84L532.18,154.61L532.18,154.52" style="vector-effect: non-scaling-stroke; fill: none; stroke: rgb(0, 154, 250); stroke-opacity: 1; stroke-width: 1px; opacity: 1;"/></g><g class="points"/><g class="text"/></g></g></g><g class="overplot"/><path class="xlines-above crisp" d="M47.381452318460184,366.95669291338584H596.0629921259842" style="fill: none; stroke-width: 1px; stroke: rgb(0, 0, 0); stroke-opacity: 1;"/><path class="ylines-above crisp" d="M47.881452318460184,41.04330708661415V366.45669291338584" style="fill: none; stroke-width: 1px; stroke: rgb(0, 0, 0); stroke-opacity: 1;"/><g class="overlines-above"/><g class="xaxislayer-above"><path class="xtick ticks crisp" d="M0,366.45669291338584v-5" transform="translate(63.881452318460184,0)" style="stroke: rgb(0, 0, 0); stroke-opacity: 1; stroke-width: 1px;"/><path class="xtick ticks crisp" d="M0,366.45669291338584v-5" transform="translate(165.17145231846018,0)" style="stroke: rgb(0, 0, 0); stroke-opacity: 1; stroke-width: 1px;"/><path class="xtick ticks crisp" d="M0,366.45669291338584v-5" transform="translate(266.4614523184602,0)" style="stroke: rgb(0, 0, 0); stroke-opacity: 1; stroke-width: 1px;"/><path class="xtick ticks crisp" d="M0,366.45669291338584v-5" transform="translate(367.75145231846017,0)" style="stroke: rgb(0, 0, 0); stroke-opacity: 1; stroke-width: 1px;"/><path class="xtick ticks crisp" d="M0,366.45669291338584v-5" transform="translate(469.0414523184602,0)" style="stroke: rgb(0, 0, 0); stroke-opacity: 1; stroke-width: 1px;"/><path class="xtick ticks crisp" d="M0,366.45669291338584v-5" transform="translate(570.3314523184603,0)" style="stroke: rgb(0, 0, 0); stroke-opacity: 1; stroke-width: 1px;"/><g class="xtick"><text text-anchor="middle" x="0" y="380.6566929133858" transform="translate(63.881452318460184,0)" style="font-family: sans-serif; font-size: 11px; fill: rgb(0, 0, 0); fill-opacity: 1; white-space: pre; opacity: 1;">0</text></g><g class="xtick"><text text-anchor="middle" x="0" y="380.6566929133858" style="font-family: sans-serif; font-size: 11px; fill: rgb(0, 0, 0); fill-opacity: 1; white-space: pre; opacity: 1;" transform="translate(165.17145231846018,0)">1</text></g><g class="xtick"><text text-anchor="middle" x="0" y="380.6566929133858" style="font-family: sans-serif; font-size: 11px; fill: rgb(0, 0, 0); fill-opacity: 1; white-space: pre; opacity: 1;" transform="translate(266.4614523184602,0)">2</text></g><g class="xtick"><text text-anchor="middle" x="0" y="380.6566929133858" style="font-family: sans-serif; font-size: 11px; fill: rgb(0, 0, 0); fill-opacity: 1; white-space: pre; opacity: 1;" transform="translate(367.75145231846017,0)">3</text></g><g class="xtick"><text text-anchor="middle" x="0" y="380.6566929133858" style="font-family: sans-serif; font-size: 11px; fill: rgb(0, 0, 0); fill-opacity: 1; white-space: pre; opacity: 1;" transform="translate(469.0414523184602,0)">4</text></g><g class="xtick"><text text-anchor="middle" x="0" y="380.6566929133858" style="font-family: sans-serif; font-size: 11px; fill: rgb(0, 0, 0); fill-opacity: 1; white-space: pre; opacity: 1;" transform="translate(570.3314523184603,0)">5</text></g></g><g class="yaxislayer-above"><path class="ytick ticks crisp" d="M48.381452318460184,0h5" transform="translate(0,315.61330708661416)" style="stroke: rgb(0, 0, 0); stroke-opacity: 1; stroke-width: 1px;"/><path class="ytick ticks crisp" d="M48.381452318460184,0h5" transform="translate(0,255.20330708661413)" style="stroke: rgb(0, 0, 0); stroke-opacity: 1; stroke-width: 1px;"/><path class="ytick ticks crisp" d="M48.381452318460184,0h5" transform="translate(0,194.78330708661417)" style="stroke: rgb(0, 0, 0); stroke-opacity: 1; stroke-width: 1px;"/><path class="ytick ticks crisp" d="M48.381452318460184,0h5" transform="translate(0,134.37330708661415)" style="stroke: rgb(0, 0, 0); stroke-opacity: 1; stroke-width: 1px;"/><path class="ytick ticks crisp" d="M48.381452318460184,0h5" transform="translate(0,73.96330708661415)" style="stroke: rgb(0, 0, 0); stroke-opacity: 1; stroke-width: 1px;"/><g class="ytick"><text text-anchor="end" x="45.18145231846018" y="3.8499999999999996" transform="translate(0,315.61330708661416)" style="font-family: sans-serif; font-size: 11px; fill: rgb(0, 0, 0); fill-opacity: 1; white-space: pre; opacity: 1;">−0.50</text></g><g class="ytick"><text text-anchor="end" x="45.18145231846018" y="3.8499999999999996" style="font-family: sans-serif; font-size: 11px; fill: rgb(0, 0, 0); fill-opacity: 1; white-space: pre; opacity: 1;" transform="translate(0,255.20330708661413)">−0.25</text></g><g class="ytick"><text text-anchor="end" x="45.18145231846018" y="3.8499999999999996" style="font-family: sans-serif; font-size: 11px; fill: rgb(0, 0, 0); fill-opacity: 1; white-space: pre; opacity: 1;" transform="translate(0,194.78330708661417)">0.00</text></g><g class="ytick"><text text-anchor="end" x="45.18145231846018" y="3.8499999999999996" style="font-family: sans-serif; font-size: 11px; fill: rgb(0, 0, 0); fill-opacity: 1; white-space: pre; opacity: 1;" transform="translate(0,134.37330708661415)">0.25</text></g><g class="ytick"><text text-anchor="end" x="45.18145231846018" y="3.8499999999999996" style="font-family: sans-serif; font-size: 11px; fill: rgb(0, 0, 0); fill-opacity: 1; white-space: pre; opacity: 1;" transform="translate(0,73.96330708661415)">0.50</text></g></g><g class="overaxes-above"/></g></g><g class="polarlayer"/><g class="ternarylayer"/><g class="geolayer"/><g class="funnelarealayer"/><g class="pielayer"/><g class="iciclelayer"/><g class="treemaplayer"/><g class="sunburstlayer"/><g class="glimages"/><defs id="topdefs-5709c4"><g class="clips"/><clipPath id="legend5709c4"><rect width="57" height="29" x="1" y="1"/></clipPath></defs><g class="layer-above"><g class="imagelayer"/><g class="shapelayer"/></g><g class="infolayer"><g class="legend" pointer-events="all" transform="translate(541,20)"><rect class="bg" shape-rendering="crispEdges" width="58" height="30" x="0.5" y="0.5" style="stroke: rgb(0, 0, 0); stroke-opacity: 1; fill: rgb(255, 255, 255); fill-opacity: 1; stroke-width: 1px;"/><g class="scrollbox" transform="" clip-path="url(#legend5709c4)"><g class="groups"><g class="traces" transform="translate(1,15.5)" style="opacity: 1;"><text class="legendtext" text-anchor="start" x="40" y="4.29" style="font-family: sans-serif; font-size: 11px; fill: rgb(0, 0, 0); fill-opacity: 1; white-space: pre;">y1</text><g class="layers" style="opacity: 1;"><g class="legendfill"/><g class="legendlines"><path class="js-line" d="M5,0h30" style="fill: none; stroke: rgb(0, 154, 250); stroke-opacity: 1; stroke-width: 1px;"/></g><g class="legendsymbols"><g class="legendpoints"/></g></g><rect class="legendtoggle" x="0" y="-9.5" width="51.625" height="19" style="fill: rgb(0, 0, 0); fill-opacity: 0;"/></g></g></g><rect class="scrollbar" rx="20" ry="3" width="0" height="0" x="0" y="0" style="fill: rgb(128, 139, 164); fill-opacity: 1;"/></g><g class="g-gtitle"/><g class="g-xtitle"/><g class="g-ytitle"/><g class="annotation" data-index="0" style="opacity: 1;"><g class="annotation-text-g" transform="rotate(0,322.22222222222223,33.5)"><g class="cursor-pointer" transform="translate(250,20)"><rect class="bg" x="0.5" y="0.5" width="144" height="26" style="stroke-width: 1px; stroke: rgb(0, 0, 0); stroke-opacity: 0; fill: rgb(0, 0, 0); fill-opacity: 0;"/><text class="annotation-text" text-anchor="middle" x="72.6015625" y="20" style="font-family: sans-serif; font-size: 20px; fill: rgb(0, 0, 0); fill-opacity: 1; white-space: pre;">Audio wave plot</text></g></g></g></g></svg>