<svg class="main-svg" xmlns="http://www.w3.org/2000/svg" xmlns:xlink="http://www.w3.org/1999/xlink" width="600" height="400" style=""><rect x="0" y="0" width="600" height="400" style="fill: rgb(255, 255, 255); fill-opacity: 1;"/><defs id="defs-c4e16f"><g class="clips"><clipPath id="clipc4e16fxyplot" class="plotclip"><rect width="556.5704286964129" height="311.6633858267717"/></clipPath><clipPath class="axesclip" id="clipc4e16fx"><rect x="39.4925634295713" y="0" width="556.5704286964129" height="400"/></clipPath><clipPath class="axesclip" id="clipc4e16fy"><rect x="0" y="41.04330708661415" width="600" height="311.6633858267717"/></clipPath><clipPath class="axesclip" id="clipc4e16fxy"><rect x="39.4925634295713" y="41.04330708661415" width="556.5704286964129" height="311.6633858267717"/></clipPath></g><g class="gradients"/><g class="patterns"/></defs><g class="bglayer"/><g class="layer-below"><g class="imagelayer"/><g class="shapelayer"/></g><g class="cartesianlayer"><g class="subplot xy"><g class="layer-subplot"><g class="shapelayer"/><g class="imagelayer"/></g><g class="gridlayer"><g class="x"><path class="xgrid crisp" transform="translate(55.2125634295713,0)" d="M0,41.04330708661415v311.6633858267717" style="stroke: rgb(0, 0, 0); stroke-opacity: 0.1; stroke-width: 0.5px;"/><path class="xgrid crisp" transform="translate(158.1525634295713,0)" d="M0,41.04330708661415v311.6633858267717" style="stroke: rgb(0, 0, 0); stroke-opacity: 0.1; stroke-width: 0.5px;"/><path class="xgrid crisp" transform="translate(261.1025634295713,0)" d="M0,41.04330708661415v311.6633858267717" style="stroke: rgb(0, 0, 0); stroke-opacity: 0.1; stroke-width: 0.5px;"/><path class="xgrid crisp" transform="translate(364.0525634295713,0)" d="M0,41.04330708661415v311.6633858267717" style="stroke: rgb(0, 0, 0); stroke-opacity: 0.1; stroke-width: 0.5px;"/><path class="xgrid crisp" transform="translate(467.0025634295713,0)" d="M0,41.04330708661415v311.6633858267717" style="stroke: rgb(0, 0, 0); stroke-opacity: 0.1; stroke-width: 0.5px;"/><path class="xgrid crisp" transform="translate(569.9425634295714,0)" d="M0,41.04330708661415v311.6633858267717" style="stroke: rgb(0, 0, 0); stroke-opacity: 0.1; stroke-width: 0.5px;"/></g><g class="y"><path class="ygrid crisp" transform="translate(0,344.07330708661414)" d="M39.4925634295713,0h556.5704286964129" style="stroke: rgb(0, 0, 0); stroke-opacity: 0.1; stroke-width: 0.5px;"/><path class="ygrid crisp" transform="translate(0,270.68330708661415)" d="M39.4925634295713,0h556.5704286964129" style="stroke: rgb(0, 0, 0); stroke-opacity: 0.1; stroke-width: 0.5px;"/><path class="ygrid crisp" transform="translate(0,197.30330708661415)" d="M39.4925634295713,0h556.5704286964129" style="stroke: rgb(0, 0, 0); stroke-opacity: 0.1; stroke-width: 0.5px;"/><path class="ygrid crisp" transform="translate(0,123.91330708661415)" d="M39.4925634295713,0h556.5704286964129" style="stroke: rgb(0, 0, 0); stroke-opacity: 0.1; stroke-width: 0.5px;"/><path class="ygrid crisp" transform="translate(0,50.53330708661415)" d="M39.4925634295713,0h556.5704286964129" style="stroke: rgb(0, 0, 0); stroke-opacity: 0.1; stroke-width: 0.5px;"/></g></g><g class="zerolinelayer"/><path class="xlines-below"/><path class="ylines-below"/><g class="overlines-below"/><g class="xaxislayer-below"/><g class="yaxislayer-below"/><g class="overaxes-below"/><g class="plot" transform="translate(39.4925634295713,41.04330708661415)" clip-path="url(#clipc4e16fxyplot)"><g class="scatterlayer mlayer"><g class="trace scatter trace5bb5b7" style="stroke-miterlimit: 2; opacity: 1;"><g class="fills"/><g class="errorbars"/><g class="lines"><path class="js-line" d="M15.75,300.53L16.42,302.58L16.52,302.48L16.56,302.52L16.63,301.85L17.08,302.59L17.26,302.41L17.29,302.62L18.03,302.04L18.06,302.39L18.1,302.65L18.31,301.92L18.9,302.48L18.94,302.5L19.01,302.1L19.6,302.71L19.67,302.3L19.71,302.62L19.95,301.87L20.44,302.61L20.48,302.57L20.93,302.03L21,302.66L21.21,302.65L21.25,302.41L21.6,301.4L21.84,302.58L21.98,302.33L22.02,302.53L22.69,302.12L22.86,302.34L22.9,302.59L23.25,301.8L23.42,302.66L23.67,302.42L23.7,302.4L23.84,301.82L23.91,302.56L24.44,302.49L24.47,302.45L25.38,302.19L25.42,302.51L25.84,302.04L26.19,302.47L26.22,302.69L26.92,301.86L26.96,302.18L26.99,302.62L27.8,302.06L27.83,302.47L28.18,301.82L28.39,302.67L28.6,302.41L28.64,302.35L29.06,302.69L29.16,301.99L29.34,302.37L29.37,302.62L29.83,301.68L30.18,302.34L30.21,302.45L30.32,302.54L30.6,301.92L30.95,302.38L30.98,302.38L31.3,300.33L31.54,302.09L31.58,302.45L31.79,301.97L32.66,302.52L32.7,302.36L32.73,302.12L33.12,301.61L33.37,302.59L33.54,302.24L33.58,302.15L33.82,301.88L34.31,302.53L34.35,302.46L34.38,302.42L34.45,302.63L34.77,301.82L35.05,302.4L35.08,301.81L35.64,302.58L35.85,302.41L35.89,302.22L36.24,302.02L36.31,302.64L36.52,302.08L36.55,301.84L36.9,301.37L37.15,302.54L37.32,302.46L37.36,302.16L38.06,301.87L38.13,302.56L38.16,302.49L38.2,302.27L38.44,301.59L38.97,302.48L39,302.4L39.49,301.82L39.6,302.68L39.67,302.44L39.7,301.85L39.77,302.61L40.23,300.91L40.3,301.23L40.33,300.21L40.37,299.67L40.86,302.38L40.96,301.65L41,302.21L41.07,302.67L41.35,301.28L41.73,302.09L41.77,302.01L42.15,301.58L42.5,302.46L42.54,302.17L42.71,302.51L43.03,301.34L43.31,302.32L43.34,302.11L43.41,301.54L43.59,302.5L44.05,302.2L44.08,302.13L44.57,302.56L44.64,301.77L44.78,302.12L44.82,301.86L45.31,301.67L45.48,302.53L45.59,302.1L45.62,302.21L45.69,302.48L45.9,301.4L45.97,301.55L46.01,299.46L46.36,234.53L46.46,291.52L46.5,292.29L46.95,301.51L47.27,299.97L47.3,300.54L47.34,300.23L47.79,302.04L47.86,302.03L47.9,302.07L48,301.56L48.53,302.51L48.63,302.13L48.67,302.25L49.12,302.65L49.19,301.83L49.33,302.14L49.37,301.67L49.47,300.46L49.82,302.5L50.1,302.28L50.14,301.43L50.49,302.43L50.7,301.41L50.91,302.1L50.94,302.05L51.22,301.14L51.57,302.54L51.64,301.9L51.68,301.9L51.89,302.27L51.99,301.57L52.45,302.18L52.48,301.7L52.9,300.74L53.15,302.42L53.25,301.87L53.29,301.55L53.5,302.53L53.57,301.48L54.06,302.04L54.09,301.72L54.34,302.31L54.55,301.25L54.58,301.91L54.62,302.32L54.97,291.85L55.04,298.47L55.08,300.49L55.15,295.16L55.18,274.01L55.25,247.72L55.81,301.39L55.85,299.46L56.3,302.21L56.65,301.5L56.69,301.87L56.79,301.01L57.32,302.34L57.42,302.05L57.46,302.09L57.53,302.59L57.91,301.03L58.09,301.34L58.12,301.36L58.23,301.99L58.37,300.09L58.4,300.33L58.44,297.2L58.54,299.71L58.75,239.45L59,298.23L59.03,299.78L59.1,299.08L59.31,302.23L59.49,301.44L59.52,302L59.77,302.46L60.15,298.8L60.29,300.9L60.33,301.92L60.43,300.42L61.1,300.8L61.13,301.2L61.41,302.12L61.9,301.65L61.94,301.34L62.6,302.42L62.71,302.07L62.74,302.02L63.02,301.09L63.2,302.28L63.44,301.73L63.48,302.17L63.51,301.75L64.07,302.48L64.21,302.2L64.25,302.34L64.42,301.9L65.02,302.6L65.09,302.34L65.12,301.91L65.54,301.68L65.93,302.58L65.97,302.25L66.07,301.76L66.6,302.61L66.63,302.53L66.67,300.91L66.98,299.1L67.26,302.45L67.44,301.73L67.47,300.8L67.86,287.03L68.07,291.55L68.1,209.48L68.14,212.23L68.17,193.39L68.21,285.73L68.28,281.95L68.66,301.57L68.7,300.71L68.73,299.41L69.12,302.6L69.4,302.2L69.43,302.32L69.57,302.5L69.64,301.24L70.17,301.96L70.2,302.26L70.73,301.14L70.8,302.43L71.01,301.52L71.04,301.87L71.22,302.42L71.43,300.97L71.6,301.83L71.64,302.24L72.09,301.44L72.13,302.55L72.41,302.07L72.44,302.43L72.55,301.04L72.93,302.6L73.21,301.41L73.25,302.16L73.6,302.44L74.05,299.37L74.09,300.88L74.12,301.97L74.23,302.34L74.3,300.89L74.86,301.08L74.89,301.85L75.56,297.61L75.59,291.27L75.77,293.7L75.84,251.5L75.87,153.51L75.91,128.52L76.36,298.04L76.4,296.09L76.54,293.43L76.82,299.57L77,297.36L77.03,299.31L77.1,299.92L77.35,295.6L77.49,297.95L77.52,300.39L77.66,298.15L78.12,301.9L78.15,301.68L78.19,301.66L78.47,301.19L78.92,302.3L78.96,302.27L78.99,301.46L79.17,302.12L79.73,299.52L79.76,299.83L79.8,299.95L80.18,302.2L80.64,302.15L80.67,302.18L81.09,298.34L81.44,298.97L81.48,301.33L81.72,286.65L81.86,289.78L81.9,242.28L81.97,68.62L82.6,301.75L82.63,300.93L82.67,299.79L82.77,299.78L83.51,302.13L83.54,301.45L83.65,302.37L84.17,300.24L84.31,301.22L84.35,301.66L84.59,301.98L84.87,298.55L85.05,298.73L85.08,295.47L85.5,301.93L85.85,300.03L85.89,299.36L86.45,297.52L86.59,301.91L86.69,301.13L86.73,299.89L86.87,301.41L87.22,294.99L87.25,292.99L87.46,295.61L87.53,286.27L87.57,129.44L87.64,8.82L88.38,301.42L88.41,301.11L88.73,299.47L88.83,301.91L89.15,300.92L89.18,301.46L89.22,299.42L89.57,302.1L89.88,300.67L89.92,302.03L90.37,298.78L90.65,301.9L90.69,301.49L91.04,302.1L91.21,300.58L91.35,301.12L91.39,299.61L91.56,302.05L91.63,299.21L91.95,301.03L91.98,301.91L92.75,297.7L92.86,297.98L92.89,289.08L92.96,278.74L93.1,293.05L93.14,191.25L93.21,36.98L93.8,301.61L93.84,301.57L94.19,302.03L94.57,299.33L94.61,300.5L94.64,301.77L94.71,300.34L95.17,302.17L95.38,301.72L95.41,301.38L95.73,300.73L96.18,302.41L96.22,302.01L96.25,301.82L96.43,299.93L96.95,302.16L97.09,300.39L97.13,300.92L97.3,298.83L97.65,302.31L97.86,301.03L97.9,299.82L97.93,300.53L98.28,296.25L98.32,289.26L98.35,283.82L98.5,294.06L98.53,289.61L98.57,126.74L98.64,9.2L99.23,301.43L99.44,300.96L99.48,300.59L99.76,302.16L100.11,300.06L100.21,301.27L100.25,300.8L100.6,302.15L100.81,300.45L100.95,300.55L100.98,301.75L101.47,300.71L101.61,302.23L101.72,301.67L101.75,302.46L102.45,300.93L102.56,301.93L102.59,301.92L103.12,300.16L103.19,300.36L103.22,298.18L103.29,290.3L103.47,292.07L103.5,134.99L103.57,11.11L104.34,301.71L104.38,300.13L104.9,302.45L105.18,302.1L105.22,301.77L105.29,302.49L105.74,301.37L105.95,302.06L105.99,302.11L106.2,302.49L106.41,297.82L106.62,300.57L106.65,301.66L106.69,299.83L107.07,302.35L107.39,301.53L107.42,301.45L107.67,302.2L107.88,299.68L107.95,300.91L107.98,299.48L108.02,299.98L108.05,293.76L108.09,290.87L108.16,292.95L108.3,237.43L108.33,132.66L108.37,71.3L108.75,291.3L108.96,288.86L109,295.62L109.14,289.87L109.63,298.56L109.7,297.15L109.74,299.31L109.84,295.97L110.4,302.28L110.54,301.53L110.58,302.08L110.61,302.41L110.86,300.92L111.31,302.08L111.35,302.25L111.42,302.66L111.73,300.7L112.05,302.1L112.08,301.99L112.43,298.7L112.47,291.35L112.5,290.71L112.54,297.51L112.68,292.44L112.71,151.9L112.78,37.85L113.55,302.69L113.59,302.43L113.62,302.34L113.73,302.75L113.83,301.83L114.36,302.53L114.39,302.04L114.43,301.47L114.78,302.65L115.13,301.61L115.16,301.99L115.2,302.65L115.79,301.53L115.9,302.18L115.93,302L116,302.28L116.49,286.96L116.63,293.77L116.67,268.79L116.77,62.4L117.37,296.84L117.4,296.61L117.44,301.16L117.47,299.13L117.68,302.59L118.17,302.25L118.21,301.98L118.24,301.56L118.52,302.53L118.91,302.54L118.94,302.37L119.26,302.62L119.78,300.88L119.82,300.33L120.31,261.89L120.35,158.98L120.38,94.49L120.87,296.4L121.01,292.91L121.05,292.6L121.64,300.41L121.85,300.12L121.89,301.1L122.03,299.49L122.41,302.42L122.55,301.62L122.59,302.07L122.83,302.48L123.01,301.36L123.25,301.8L123.29,301.07L123.64,287.84L123.78,290.57L123.81,209.12L123.88,67.31L124.37,299.09L124.44,297.74L124.48,299.29L124.86,302.56L125.32,302.29L125.35,301.91L125.91,302.59L126.19,302.29L126.23,302.08L126.75,295.56L126.79,291.33L126.89,287.47L126.96,294.64L127,291.51L127.03,245.87L127.1,86.19L127.73,299.36L127.77,300.45L127.8,299.2L128.22,302.71L128.47,301.79L128.5,302.19L128.64,301.53L128.89,302.59L129.06,302.3L129.1,302.63L129.73,300.27L129.76,298.94L129.8,299.56L130.04,294.25L130.08,295.03L130.11,291.13L130.15,290.86L130.18,285.43L130.22,286.07L130.25,275.94L130.29,284.5L130.32,242.63L130.39,104.65L131.02,301.14L131.06,302L131.13,302.53L131.52,301.12L131.8,301.93L131.83,302.07L131.97,300.99L132.08,302.47L132.29,302.15L132.32,302.64L133.06,296.49L133.09,296.59L133.13,294.75L133.27,287.06L133.3,280.86L133.37,257.81L133.44,273.71L133.48,144.78L133.55,66.37L134.32,301.87L134.39,301.86L134.42,302.12L134.56,301.58L135.09,302.62L135.12,302.32L135.16,301.95L135.19,301.24L135.3,302.71L135.89,302.14L135.93,302.05L136.52,293.31L136.7,295.62L136.73,144.1L136.8,35.33L137.57,301.43L137.61,302.05L137.64,301.54L137.75,302.71L138.34,302.18L138.38,302.07L138.76,302.69L139.08,301.53L139.11,301.86L139.15,302.02L139.32,302.19L139.5,300.72L139.53,298.5L139.57,300.05L139.88,286.4L139.99,289.88L140.02,263.65L140.13,54.73L140.69,297.13L140.72,293.37L140.76,297.58L141.28,302.47L141.56,302.28L141.6,302.31L142.02,302.59L142.41,301.21L142.44,301.82L142.48,302.54L142.9,297.19L142.97,298.94L143,295.47L143.14,291.07L143.21,294.79L143.25,263.79L143.35,84.44L143.98,301.19L144.02,301.81L144.16,302.79L144.79,302.61L144.82,302.28L145,301.9L145.24,302.67L145.56,302.46L145.59,302.23L145.63,302.47L145.91,299.76L145.94,298.87L146.22,289.05L146.26,285.24L146.43,265.13L146.47,160.52L146.54,53.41L147.24,302.46L147.38,301.73L147.41,302.15L147.45,302.57L147.66,301.55L148.11,302.02L148.15,301.91L148.22,302.55L148.71,301.76L148.81,302.44L148.85,302.34L149.23,295.33L149.3,296.06L149.34,290.16L149.37,292.68L149.51,256.9L149.55,269.99L149.58,216.65L149.65,82.88L150.11,292.22L150.14,289.69L150.18,287.82L150.63,302.5L150.95,302.14L150.98,301.66L151.16,299.6L151.61,302.58L151.82,302.33L151.86,302.02L151.96,302.4L152.24,299.66L152.28,299.92L152.31,297.81L152.35,299.94L152.66,290.12L152.7,261.32L152.81,102.09L153.44,302.23L153.47,302.49L153.89,302.77L154.07,302.46L154.1,302.05L154.56,301.69L154.84,302.57L154.87,302.43L154.91,302.02L155.12,302.42L155.43,299.68L155.47,298.19L155.5,300.29L155.78,277.51L155.82,142.79L155.89,95L156.69,302.33L156.73,302.44L156.8,301.85L157.11,302.63L157.46,302.31L157.5,302.56L158.23,293.76L158.41,297.02L158.44,289.4L158.48,287.88L158.55,294.09L158.62,289.73L158.65,234.6L158.72,106.67L159.18,300.64L159.35,298.23L159.39,298.6L159.74,302.27L160.23,302.22L160.26,301.77L160.61,302.11L160.72,300.33L160.79,301.38L160.82,299.54L160.93,300.96L161.17,295.03L161.21,289.82L161.31,296.14L161.42,244.6L161.45,150.72L161.49,117.99L162.01,299.31L162.05,297.08L162.12,295.81L162.64,302.62L162.99,301.05L163.03,300.76L163.27,294.13L163.41,294.55L163.45,218.25L163.52,183.62L163.7,296.76L163.77,289.46L163.8,291.4L164.57,302.7L164.64,302.43L164.68,302.5L165.38,300.52L165.48,301.29L165.52,301.95L165.8,302.52L166.29,301.53L166.32,301.8L166.36,301.32L166.64,302.23L167.06,301.82L167.09,301.96L167.3,302.07L167.9,294.46L167.93,291.27L168.04,230.55L168.53,300.8L168.56,300.54L168.6,301.2L168.74,302.36L169.37,301.9L169.4,301.52L170,301.27L170.21,302.42L170.24,302.13L170.49,301.93L170.7,302.7L171.01,302.35L171.05,302.18L171.19,302.64L171.26,301.51L171.71,302.27L171.75,301.95L172.38,302.69L172.52,302.52L172.55,302.42L172.73,302.75L173.15,301.58L173.32,302.3L173.36,302.58L174.55,300.37L174.59,299.23L174.9,246.89L174.94,221.36L175.57,301.82L175.71,301.25L175.74,302.07L175.81,301.89L176.16,302.62L176.34,302.5L176.37,302.63L177.11,302.03L177.14,302.49L177.56,301.95L177.67,302.68L177.95,302.29L177.98,302.4L178.26,302.52L178.61,301.77L178.72,302.09L178.75,302.57L179.52,301.66L179.59,301.82L179.63,302.23L179.73,301.55L179.8,302.49L180.15,302.33L180.19,302.65L180.54,302.71L181.45,291.68L181.48,292.57L181.52,188.55L181.59,130.96L182.29,302.47L182.39,302.34L182.43,302.53L182.74,301.78L183.09,302.64L183.16,302.39L183.2,302.5L183.3,302.62L184.04,294.87L184.07,291.35L184.14,296.14L184.25,289.3L184.28,207.23L184.35,152.71L185.16,301.82L185.19,301.65L185.79,302.69L186,302.43L186.04,302.57L186.21,302.65L187.16,297.28L187.19,294.6L187.23,292.36L187.3,295.02L187.4,293.97L187.44,232.14L187.51,158.09L187.93,301.3L187.96,299.87L188.1,299.48L188.24,301.44L188.42,300.52L188.45,301.51L188.56,302.03L188.7,299.94L189.19,301.7L189.22,301.51L189.33,301.04L190.06,302.38L190.1,302.43L190.59,300.54L190.62,301L190.66,298.12L190.76,300.23L190.87,295.09L190.9,209.01L190.97,164.1L191.64,302.16L191.78,301.8L191.81,301.75L191.85,301.6L191.92,302.59L192.34,302.66L192.37,302.59L192.9,301.64L193.14,302.4L193.18,302.33L193.39,302.5L193.49,301.5L193.91,302.36L193.95,302.42L194.09,302.51L194.37,297.6L194.51,297.71L194.54,259.58L194.61,173.02L195.14,301.5L195.24,300.85L195.28,301.74L195.35,301.37L195.66,302.62L195.91,302.27L195.94,302.62L196.75,301.86L196.79,302.4L197.07,302.76L197.87,299.22L197.91,298.95L197.94,296.6L198.15,298.29L198.19,218.08L198.26,173.47L198.96,301.19L198.99,300.16L199.03,300.46L199.1,299.75L199.55,301.76L199.62,301.2L199.66,301.78L199.69,301.15L200.15,302.44L200.36,302.1L200.39,302.47L200.6,302.73L200.95,302.15L200.99,301.71L201.09,302.39L201.55,300.3L201.58,300.68L201.62,297.7L201.79,300.71L201.83,299.89L201.86,215.17L201.93,174.04L202.6,302.09L202.67,301.95L202.7,301.92L202.77,301.57L202.98,302.54L203.33,301.94L203.37,302.69L204.07,302.13L204.14,302.32L204.17,302.55L204.98,298.57L205.01,299.37L205.05,297.32L205.12,299.14L205.19,297.01L205.22,227.47L205.26,229.97L205.29,181.95L206.06,301.9L206.1,301.55L206.13,301.48L206.45,302.72L206.9,302.26L206.94,302.46L207.71,301.37L207.75,300.97L208.03,301.23L208.13,298.61L208.17,296.23L208.27,293.36L208.34,298.09L208.38,296.5L208.41,227.93L208.48,178.91L208.52,262.53L209.29,301.61L209.32,301.09L210.09,302.61L210.13,302.52L210.16,302.61L210.27,302.71L210.9,300.25L210.93,300.31L210.97,298.08L211.28,299.24L211.53,295.76L211.56,227.12L211.6,225.09L211.63,180.09L212.33,302.33L212.44,302.24L212.47,301.74L212.72,301.7L212.86,302.6L213.24,302.12L213.28,302.02L213.84,301.68L213.91,302.57L214.01,302.17L214.05,301.59L214.12,302.11L214.47,300.33L214.5,299.41L214.78,285.12L214.82,201.07L214.85,198.38L214.89,206.4L214.92,289.09L215.73,302.54L215.83,302.39L215.87,302.38L216.32,302.6L216.57,302.07L216.6,302.11L216.64,302.58L217.02,301.82L217.34,302.17L217.37,302.53L217.76,296.27L217.79,293.83L217.93,299.11L218.08,289.57L218.18,290.98L218.22,212.35L218.29,193.85L218.92,302.6L219.02,301.67L219.06,302.26L219.51,302.5L219.62,301.55L219.76,302.39L219.79,302.55L220.14,301.48L220.56,302.36L220.6,302.26L221.44,295.65L221.58,297.65L221.61,206.36L221.68,176.96L222.42,302.03L222.45,302.15L222.63,301.41L223.08,302.44L223.19,302.24L223.22,302.15L223.71,302.61L223.92,301.85L223.99,302.14L224.03,302.45L224.76,296.03L224.8,296.73L224.83,293.45L224.97,285.29L225.01,203.46L225.08,181.03L225.88,301.21L225.92,300.56L225.95,299.63L226.55,302.38L226.62,301.6L226.65,302.27L227.11,299.56L227.42,301.73L227.46,301.57L227.67,302.31L228.33,293.81L228.37,258.95L228.4,204.86L229.04,300.4L229.07,300.22L229.11,301.95L229.25,302.62L229.74,301.34L229.91,302.47L229.95,302.38L230.3,302.6L230.37,301.95L230.61,302.37L230.65,302.63L231.07,301.47L231.1,300.36L231.24,300.74L231.52,296.84L231.7,297.53L231.73,262.22L231.8,197.14L232.33,302L232.43,301.42L232.47,301.68L232.68,301.37L233.24,302.66L233.27,302.63L233.31,302.54L234.08,301.79L234.11,302.19L234.15,302.42L234.29,302.45L234.74,298.37L234.78,294.61L234.81,293.01L234.95,296.85L234.99,295.99L235.02,203.47L235.09,190.17L235.86,302.29L235.9,302.6L236.84,302.07L236.88,302.35L237.3,302.21L237.51,302.59L237.61,302.41L237.65,302.2L238.1,294.52L238.24,297.73L238.28,288.5L238.31,192.35L239.01,301.56L239.05,302.04L239.12,301.78L239.86,302.62L239.89,302.2L240.49,302.49L240.59,302.17L240.63,301.86L240.73,302.36L240.91,300.98L240.94,300.53L241.47,291.81L241.5,205.22L242.27,302.75L242.34,302.71L242.38,302.73L243.81,302.38L243.85,301.91L243.88,302.23L244.23,299.72L244.3,299.96L244.34,298.21L244.58,287.53L244.62,207.47L245.46,302.6L245.49,302.45L245.77,301.72L246.23,302.28L246.26,302.56L246.33,301.36L247.07,301.5L247.1,301.32L247.56,293.88L247.59,292.44L247.63,288.2L247.66,202.95L247.73,202.87L248.5,302.08L248.54,302.38L248.71,302.53L248.78,301.24L249.27,302.32L249.31,302.19L249.48,302.39L250.22,297.56L250.36,298.44L250.39,296.29L250.53,298.08L250.64,289.67L250.68,208.32L251.48,302.14L251.52,301.94L251.55,302.13L252.01,302.64L252.08,301.21L252.29,302.22L252.32,302.05L252.6,302.47L252.81,301.68L252.92,301.97L252.95,301.06L252.99,301.61L253.44,298.31L253.48,299.24L253.51,296.21L253.65,299.47L253.69,269.72L253.72,211.56L254.42,301.53L254.46,301.63L254.7,302.75L255.23,302.13L255.26,301.79L255.37,301.44L255.75,302.5L255.86,301.93L255.89,300.9L256.03,301.55L256.35,297.34L256.38,297.14L256.42,299.36L256.77,281.74L256.8,218.55L257.64,302.36L257.68,302.11L257.71,302.28L258.06,301.89L258.34,302.11L258.38,301L258.41,300.12L258.73,302.39L259.08,301.68L259.11,302.37L259.67,293.39L259.81,293.7L259.85,281.3L259.88,221.54L260.51,302.03L260.58,302.02L260.62,302.38L260.69,301.21L261.35,301.82L261.39,302.31L261.6,302.42L261.78,300.86L262.16,301.21L262.2,301.97L262.76,296.75L262.9,299.93L262.93,265.64L263,221.73L263.63,302.17L263.67,302.31L263.95,301.59L263.98,302.48L264.23,301.91L264.26,301.44L264.54,301.04L264.96,302.29L265.03,301.7L265.07,301.73L265.14,301.89L265.77,294.92L265.91,296.51L265.94,278.48L265.98,223.73L266.64,300.47L266.68,301.19L266.78,302.49L267.45,302.06L267.48,301.77L267.73,302.42L268.25,300.68L268.29,301.18L268.95,295.3L268.99,230.74L269.06,218.35L269.79,302.1L269.83,301.34L269.93,302.38L270.35,301.13L270.56,301.63L270.6,301.01L271.09,302.57L271.33,301.16L271.37,300.64L272,293.73L272.03,249.54L272.1,222.76L272.28,298.27L272.31,295.72L272.35,296.16L272.38,292.65L272.88,302.48L273.05,301.91L273.09,301.84L273.58,301.5L273.93,302.68L273.96,302.63L274,302.34L274.14,302.58L274.31,301.88L274.38,302.23L274.42,301.65L274.63,301.76L275.01,297.05L275.05,233.85L275.12,223.76L275.75,302.57L275.85,302.53L275.89,302.48L275.96,302.12L276.17,302.73L276.66,302.38L276.69,302.34L276.9,301.94L277.15,302.66L277.46,302.3L277.5,302.14L277.85,296.08L277.99,297.99L278.02,247.7L278.09,225.79L278.93,302.69L278.97,302.67L280.02,302.21L280.05,302.62L280.79,297.49L281,297.77L281.03,242.51L281.1,224.61L281.56,302.04L281.84,301.74L281.87,302.11L282.05,302.02L282.12,302.34L282.15,301.31L282.78,302.61L282.99,302.55L283.03,302.38L283.1,302.62L283.42,301.73L283.45,300.78L283.59,301.52L283.7,297.74L283.8,299.46L283.84,298.23L283.91,299.89L284.01,295.85L284.05,245.69L284.12,228.5L284.75,302.45L284.85,302.27L284.89,302.16L285.13,301.77L285.59,302.61L285.66,302.4L285.69,302.33L285.8,301.96L286.36,302.64L286.39,302.55L286.43,302.05L286.46,302.29L286.85,299.38L286.88,298.61L287.02,299.52L287.09,295.56L287.13,243.95L287.2,238.34L287.97,302.58L288,302.66L288.21,302.8L288.46,302.13L288.77,302.55L288.81,302.49L289.09,302.27L289.23,302.62L289.47,302.25L289.51,302.12L289.54,302.36L289.82,300.24L289.86,300.25L289.89,298.19L289.93,297.91L290.03,300.09L290.1,299.41L290.14,277.98L290.21,236.13L290.8,300.64L290.84,300.53L290.87,300.64L291.22,302.76L291.68,302.46L291.71,302.16L291.96,302.61L292.13,302.03L292.41,302.39L292.45,301.39L292.55,302.2L293.01,296.68L293.15,298.79L293.18,269.09L293.25,235.63L293.78,302.17L293.81,301.53L293.85,301.54L294.45,302.7L294.62,302.1L294.66,302.39L295.04,301.97L295.36,302.54L295.39,302.5L295.43,302.38L296.13,297.98L296.2,298.09L296.23,296.89L296.34,234.91L296.97,302.51L297,302.3L297.25,301.88L297.6,302.65L297.81,302.56L297.84,302.58L298.89,300.82L298.93,300.93L298.96,299.83L299.14,297.2L299.21,300.31L299.28,300.06L299.31,254.68L299.38,234.92L300.05,302.78L300.12,302.7L300.15,302.58L300.4,302.78L300.78,302.15L300.92,302.42L300.96,302.38L301.45,300.86L301.55,302.53L301.69,302.44L301.73,302.03L301.8,302.17L301.9,301.04L301.97,301.01L302.01,300.61L302.29,297.66L302.32,255.08L302.39,236.47L303.13,302.7L303.23,302.62L303.27,302.38L303.48,302.22L304.07,302.53L304.11,302.48L304.14,302.26L304.49,302.61L304.63,301.86L304.7,301.95L304.74,301.5L305.13,297.88L305.27,298.31L305.3,259.35L305.37,234.26L306.11,302.44L306.18,302.04L306.21,302.05L306.56,301.73L306.91,302.67L306.98,302.56L307.02,301.96L307.44,302.7L307.72,301.73L307.75,301.94L307.79,301.94L308.24,295.18L308.28,254.57L308.35,238.65L309.08,302.49L309.19,302.45L309.22,302.55L309.82,301.98L309.99,302.3L310.03,302.38L310.17,302.67L310.8,301.77L310.83,301.82L310.87,302.04L311.08,299.7L311.11,297.93L311.22,301.12L311.29,298.53L311.32,268.25L311.39,238.68L311.43,276.38L311.46,295.38L312.2,302.49L312.3,302.27L312.34,302.2L312.48,302.8L313.07,302.27L313.11,302L313.14,301.6L313.42,302.63L313.84,301.99L313.88,301.98L314.3,296.71L314.44,298.64L314.47,259.4L314.54,241.43L315.38,302.66L315.42,302.21L315.45,301.69L315.59,302.63L316.16,302.06L316.19,302.45L316.58,302.12L316.72,302.63L316.93,302.46L316.96,302.43L317.49,298.56L317.52,296.99L317.56,298.77L317.73,296.45L317.77,262.75L317.84,243.48L318.5,302.47L318.57,302.03L318.61,301.88L318.64,302.53L318.75,301.56L319.38,302.36L319.41,302.33L319.73,301.77L320.08,302.63L320.18,302.15L320.22,302.24L320.57,302.57L320.67,301.64L320.71,301.49L321.3,295.78L321.34,264.75L321.41,238.58L322.04,302.66L322.14,302.25L322.18,302.47L322.6,302.69L322.84,302.16L322.95,302.42L322.98,302.57L323.02,301.9L323.47,302.7L323.72,302.43L323.75,302.45L323.89,302.55L324.77,300.44L324.8,300.01L324.87,301.26L325.12,298.28L325.15,299.38L325.19,276.73L325.26,245.57L325.75,301.23L325.78,301.1L325.82,301.81L326.06,302.64L326.55,302.09L326.59,301.57L326.91,302.55L327.36,302.2L327.4,302.23L327.43,302.57L327.99,301.58L328.13,302.24L328.17,302.22L328.52,302.58L328.8,301.05L328.83,301.06L328.97,296.95L329.11,298.27L329.15,268.5L329.22,242.76L329.92,302.09L329.95,301.94L329.99,302.38L330.27,301.3L330.72,302.02L330.76,301.85L330.97,302.68L331.25,301.65L331.6,302.54L331.63,302.22L332.02,302.57L332.16,301.38L332.37,302.24L332.4,302.08L332.51,302.4L332.65,301.38L332.86,301.48L332.89,299.86L332.93,300.56L333.17,296.62L333.21,268.25L333.28,241.97L333.94,302.23L334.01,301.92L334.05,301.92L334.43,301.76L334.78,302.48L334.82,302.28L334.85,302.1L335.59,302.56L335.62,302.4L335.66,302.3L336.04,302.6L336.15,301.68L336.39,302.33L336.43,302.24L336.5,302.55L336.88,301.16L336.92,300.5L336.99,302.05L337.3,297.38L337.41,299.06L337.44,267.09L337.51,245.88L338.11,302.41L338.32,301.52L338.36,302.6L338.71,302.01L339.13,302.24L339.16,302.49L340.18,302.3L340.21,302.6L340.63,301.89L341.02,302.15L341.05,302.42L341.3,302.54L341.89,298.03L342,299.14L342.03,272.64L342.1,244.6L342.7,302.32L342.91,302.19L342.94,302.13L343.12,301.14L343.43,302.52L343.64,302.51L343.68,302.53L344.45,301.85L344.48,302.22L344.52,302.34L344.59,302.04L344.83,302.59L345.25,302.48L345.29,302.39L345.67,302.66L346.09,301.82L346.13,302.19L346.37,302.43L346.72,301.39L346.76,299.27L347,299.31L347.04,293.82L347.07,273.47L347.14,258.1L347.74,301.59L347.77,301.93L348.62,302.54L348.65,302.42L348.69,302.21L348.9,302.06L349.28,302.61L349.39,302.1L349.42,302.02L349.74,301.97L349.84,302.64L350.19,302.35L350.23,302.57L350.37,302.68L351.03,301.75L351.07,302.36L351.1,302.7L351.35,302.16L351.8,302.18L351.84,301.78L352.26,302.54L352.47,301.71L352.54,301.94L352.57,301.02L352.61,301.41L352.75,296.3L352.89,299.59L352.92,287.11L352.99,254.19L353.52,301.85L353.55,301.66L353.59,301.27L353.69,302.15L353.73,300.73L354.11,302.2L354.15,302.22L354.32,301.26L354.88,302.37L354.92,302.21L355.06,301.39L355.27,302.59L355.51,302.41L355.55,302.39L355.97,301.56L356.11,302.39L356.14,302.62L356.77,302.05L356.88,302.47L356.91,302.6L357.61,301.44L357.79,302.14L357.82,302.38L358.28,302.04L358.52,302.65L358.59,302.37L358.63,302.32L358.66,302.6L358.91,301.74L359.36,302.2L359.4,301.99L359.54,298.76L359.75,300.74L359.79,280.26L359.86,255.24L360.1,300.28L360.14,299.03L360.17,300.41L360.28,299.81L360.66,302.07L360.94,300.85L360.98,301.19L361.75,302.52L361.78,302.2L362.52,302.51L362.55,301.89L362.8,302.71L363.32,302.31L363.36,301.98L363.85,302.59L364.13,302.44L364.16,302.53L364.34,301.01L364.9,302.28L364.93,302.23L365.21,301.92L365.25,302.64L365.67,302.23L365.7,302.19L365.84,301.89L366.23,302.71L366.47,302.57L366.51,302.3L367.45,302.35L367.49,301.31L368.12,302.68L368.22,302.39L368.26,301.74L368.29,302.29L368.43,298.49L368.64,301.67L368.68,284.85L368.75,265.18L368.85,301.89L369.03,299L369.06,299.23L369.55,302.59L369.83,302.23L369.87,302.46L370.04,302.53L370.5,301.56L370.71,301.96L370.75,302.11L370.78,301.5L371.2,302.55L371.52,301.57L371.55,301.52L371.8,301.23L372.11,302.25L372.32,301.82L372.36,301.96L372.5,302.16L372.64,301.41L372.95,301.99L372.99,302.3L373.62,301.37L373.65,302.02L373.69,302.24L373.72,301.68L374.18,302.46L374.42,302.26L374.46,302.19L374.56,301.14L374.81,302.66L375.26,301.7L375.3,301.56L375.72,300.75L376.03,302.3L376.07,301.87L376.1,302.1L376.56,301.18L376.8,301.61L376.84,302.24L377.26,301.12L377.57,302.35L377.61,302.04L377.85,301.46L378.06,302.67L378.34,301.91L378.38,301.84L378.59,301.63L378.94,302.55L379.11,302.25L379.15,301.83L379.5,301.77L379.78,302.46L379.95,302.42L379.99,301.73L380.41,302.27L380.69,301.52L380.72,301.52L381.6,302.62L381.67,302.25L381.71,302.1L381.88,300.82L381.95,301.12L381.99,298.64L382.13,301.09L382.2,300.08L382.23,293.42L382.3,284.25L382.86,302.09L382.9,302.06L382.93,302.16L383.21,302.36L383.6,301.74L383.7,302.13L383.74,302.05L383.98,301.36L384.23,302.28L384.44,302.19L384.47,302.31L384.51,301.73L385,302.38L385.21,302.04L385.24,302.25L385.63,301.94L385.91,302.67L386.05,302.26L386.08,302.07L386.15,302.38L386.19,300.62L386.22,298.03L386.68,302.12L387.03,300.95L387.06,299.67L387.9,302.51L387.94,302.3L388.08,300.91L388.53,302.43L388.6,302.1L388.64,302.25L388.92,301.61L389.09,302.46L389.13,301.3L389.3,299.66L389.83,302.52L389.93,302.07L389.97,302.07L390.21,300.9L390.42,302.33L390.67,301.75L390.7,302.32L390.81,301.93L391.37,302.59L391.44,302.44L391.47,302.49L391.58,302.64L392.21,301.67L392.25,302.17L392.28,302.36L392.77,301.94L392.88,302.69L393.02,302.45L393.05,302.6L393.86,301.88L393.89,302.42L394.03,302.59L394.14,301.82L394.63,302.54L394.66,302.55L395.5,301.8L395.54,302.6L395.96,302.12L396.31,302.24L396.34,302.48L397.15,301.68L397.29,301.9L397.32,302.3L398.09,302.64L398.13,302.52L398.16,302.16L398.58,302.69L398.79,301.63L398.9,302.05L398.93,302.02L399.63,302.6L399.77,302.5L399.81,302.21L400.3,302.56L400.44,301.62L400.51,302.22L400.54,301.93L400.86,301.51L401.31,302.6L401.38,302.45L401.42,302.37L401.52,302.62L402.08,301.9L402.12,302.19L402.15,302.68L402.78,301.27L402.93,302.07L402.96,302.43L403.14,302.53L403.28,301.38L403.66,302.49L403.7,302.61L403.73,301.67L404.08,302.63L404.43,302.36L404.47,302.34L404.64,302.14L404.89,302.66L405.2,302.46L405.24,302.23L405.38,301.76L405.94,302.66L406.11,302.48L406.15,302.31L406.18,302.6L406.67,302.13L406.88,302.37L406.92,302.46L406.99,302.65L407.2,301.75L407.65,302.21L407.69,302.48L408.28,301.94L408.6,302.37L408.63,302.51L408.67,301.73L409.26,302.68L409.37,302.44L409.4,302.52L410.14,302.14L410.21,302.5L410.24,302.69L410.31,301.48L410.91,302.54L410.94,302.5L411.26,302.08L411.64,302.71L411.68,302.59L411.71,302.19L411.96,301.57L412.24,302.62L412.48,302.37L412.52,302.52L413.39,302.2L413.43,302.33L413.46,302.56L413.6,301.59L414.24,302.52L414.27,302.45L415.22,302.34L415.25,301.66L416.02,302.58L416.06,302.32L416.83,302.8L416.86,302.42L416.9,301.91L416.97,302.72L417.67,302.44L417.7,301.45L418.47,302.59L418.51,302.34L418.54,301.98L418.58,301.73L418.86,302.79L419.24,302.32L419.28,302.48L419.56,302.67L419.87,302.38L420.01,302.53L420.05,302.46L420.33,302.06L420.54,302.64L420.82,302.38L420.85,302.44L421.38,302.1L421.59,302.57L421.62,302.38L421.83,301.96L422.39,302.52L422.43,302.34L423.23,302.51L423.27,302.43L423.3,302.42L423.51,302L423.93,302.4L423.97,302.67L424.74,302.2L424.78,302.35L424.81,302.45L425.16,301.7L425.55,302.71L425.58,302.4L425.62,302.42L425.97,302.16L426.18,302.53L426.28,302.39L426.32,302.14L426.81,301.92L427.09,302.66L427.12,302.5L427.16,302.14L427.89,302.66L427.93,302.19L428.14,301.32L428.52,302.51L428.66,302.21L428.7,302.35L428.98,302.21L429.43,302.69L429.47,302.66L429.5,302.43L429.92,302.17L429.99,302.58L430.06,302.41L430.1,301.77L430.73,302.66L430.87,302.57L430.9,302.57L431.74,302.06L431.92,302.44L431.95,302.58L432.34,302.68L432.72,301.75L432.79,302.15L432.83,302.47L433.21,302.81L433.39,302.08L433.6,302.42L433.63,302.52L433.77,302.34L434.37,302.59L434.47,302.39L434.51,302.42L434.93,302.73L435.03,301.88L435.21,302.45L435.24,302.73L436.05,302.38L436.09,302.56L436.12,302.65L436.68,301.83L437.03,302.17L437.07,302.47L437.17,302.73L437.8,302.17L437.84,302.48L438.33,302.16L438.57,302.6L438.61,302.51L438.64,302.43L438.96,302.22L439.34,302.63L439.45,302.44L439.48,302.3L439.73,302.77L439.97,301.89L440.25,302.62L440.29,302.32L441.09,302.6L441.13,302.57L441.16,302.55L441.27,302.61L441.62,302L442.07,302.22L442.11,302.41L442.63,302.14L442.88,302.68L442.91,302.35L443.26,301.71L443.51,302.68L443.61,302.2L443.65,302.5L444.84,302.56L444.87,302.36L444.91,301.65L445.54,302.72L445.68,302.37L445.71,302.55L446.13,302.75L446.45,301.86L446.49,302.49L446.63,302.6L447.05,301.41L447.19,302.23L447.22,302.6L447.61,302.7L447.71,302.05L447.96,302.6L447.99,302.59L448.2,301.72L448.73,302.63L448.76,302.65L450.09,302.15L450.16,302.53L450.2,302.7L450.97,302.4L451,302.52L451.39,302.62L451.46,302.29L451.49,301.92L452.09,302.7L452.26,302.32L452.3,302.19L452.54,302.68L453.03,302.45L453.07,302.27L453.17,302.08L453.63,302.6L453.84,302.4L453.87,302.24L454.36,302.6L454.47,302.01L454.5,301.06L454.78,300.69L455.31,302.47L455.38,302.23L455.41,301.9L455.45,301.6L455.69,302.68L456.04,302.44L456.08,302.66L456.46,301.84L456.85,302.39L456.88,302.45L457.38,302.18L457.66,302.66L457.69,302.33L458.08,302.11L458.46,302.51L458.5,302.54L458.74,302.66L459.16,302.4L459.3,302.51L459.34,302.5L459.86,301.86L460.07,302.41L460.11,302.61L460.46,301.77L460.74,302.71L460.84,302.67L460.88,302.67L461.4,301.81L461.65,302.48L461.68,302.47L461.82,302.62L462.42,302.22L462.59,302.41L462.63,302.49L463.57,302.25L463.61,301.11L464.34,302.61L464.41,302.6L464.45,302.7L464.8,301.93L465.18,302.17L465.22,302.52L465.36,302.7L466.3,301.95L466.34,302.18L466.37,302.46L466.55,302.63L466.93,301.9L467.07,302.61L467.11,302.67L467.98,301.98L468.02,302.62L468.23,302.09L468.79,302.43L468.83,302.64L469.63,301.93L469.67,302.62L470.09,302.11L470.47,302.36L470.51,302.6L471.28,301.46L471.38,302.15L471.42,302.28L471.56,302.24L471.94,302.69L472.19,302.32L472.22,302.16L472.33,302.68L472.92,301.75L472.99,302.5L473.03,302.3L473.17,302.03L473.76,302.73L473.8,302.48L473.83,302.39L474.32,302.77L474.53,302.28L474.57,301.91L475.34,302.67L475.37,302.72L476.21,301.78L476.25,302.19L476.28,302.57L476.84,301.62L477.19,302.22L477.23,302.26L477.4,302.57L477.82,301.53L477.86,301.05L478.56,302.6L478.63,301.94L478.66,301.79L478.87,302.38L479.05,300.74L479.33,302.16L479.37,301.37L479.79,302.47L480.14,301.89L480.17,301.94L480.21,302.37L480.52,301.72L480.94,302.18L480.98,301.87L481.15,301.42L481.43,302.49L481.75,302.04L481.78,301.74L481.99,301.52L482.17,302.68L482.48,301.71L482.52,301.52L482.8,301.01L483.22,302.44L483.39,301.86L483.43,301.25L484.06,302.36L484.2,302.29L484.23,301.8L484.58,301.6L484.93,302.44L485.07,302.33L485.11,302.21L485.35,302.31L485.88,301.52L485.91,302.28L486.05,302.48L486.09,301.61L486.58,302.42L486.61,302.49L486.82,301.28L487.35,302.17L487.38,302.28L487.73,302.01L488.05,302.46L488.08,302.29L488.12,302.23L488.64,302.61L488.71,302.05L488.89,302.4L488.92,302.23L489.41,301.75L489.55,302.56L489.73,302.5L489.76,302.38L489.98,302.23L490.47,302.67L490.5,302.57L490.54,302.4L490.85,302.61L491.03,301.86L491.27,302.38L491.31,302.36L491.38,300.97L491.62,302.69L492.04,302.68L492.08,302.7L492.6,299.37L492.71,301.26L492.74,301.74L492.81,301.46L493.13,302.62L493.37,302.36L493.41,302.7L493.76,302.2L494.14,302.74L494.18,302.69L494.32,301.8L494.84,302.55L494.88,302.67L495.82,302.13L495.86,302.51L496.49,301.98L496.56,302.31L496.59,302.44L497.15,302.26L497.19,302.56L497.43,302.64L497.61,301.69L498.03,302.36L498.06,302.42L498.31,301.31L498.59,302.5L498.8,302.45L498.83,302.6L499.25,301.96L499.57,302.18L499.6,302.55L500.48,301.29L500.51,301.87L500.94,301.74L501.18,302.56L501.29,302.35L501.32,302.4L501.95,302.25L502.02,302.42L502.06,302.61L502.55,301.96L502.86,302.26L502.9,302.44L503.74,302.54L503.77,302.07L503.84,302.72L504.54,302.39L504.58,302.5L504.93,302.64L505.07,301.93L505.35,302.39L505.38,302.51L505.45,302.56L505.7,301.64L506.15,302.23L506.19,302.3L506.36,302.24L506.75,302.71L506.92,302.52L506.96,302.46L507.9,302.1L507.94,302.56L508.71,302.28L508.85,302.45L508.88,302.52L509.16,302.05L509.65,302.6L509.69,302.69L509.76,302.19L510.46,302.47L510.49,302.65L510.84,302.7L511.16,301.88L511.26,302.4L511.3,302.05L511.58,302.65L512.07,302.59L512.11,302.55L512.21,302.71L512.46,301.49L512.84,302.46L512.88,302.49L513.16,302.61L513.65,302.2L513.68,302.19L514.1,301.78L514.42,302.64L514.45,302.41L514.49,302.39L514.94,302.71L515.01,302.29L515.26,302.59L515.29,302.43L515.36,302.7L515.75,302.1L516.06,302.29L516.1,302.47L516.2,302.76L516.34,302.07L516.87,302.47L516.9,302.55L517.39,301.85L517.67,302.58L517.71,302.5L517.74,301.83L518.3,302.67L518.44,302.36L518.48,302.53L518.55,302.72L519.04,301.81L519.21,302.6L519.25,302.51L519.46,302.34L519.95,302.53L519.98,302.14L520.51,302.72L520.68,301.82L520.79,302.42L520.82,302.21L521.59,302.63L521.63,302.48L522.26,302.5L522.29,302.02L522.96,302.71L523.1,302.38L523.14,302.43L523.49,302.74L523.66,301.37L523.94,301.91L523.98,302.01L524.71,302.61L524.75,302.49L524.78,302.52L524.89,302.39L524.96,302.61L524.99,301.38L525.17,302.09L525.69,299.71L525.73,301.02L525.76,302.12L525.8,301.55L526.01,302.55L526.46,302.58L526.5,302.58L527.23,302.07L527.27,301.73L527.86,302.67L528.04,302.36L528.07,302.53L528.49,302.65L528.74,302.2L528.81,302.51L528.84,302.57L528.91,301.59L529.3,302.73L529.47,302.49L529.51,302.48L529.68,302.25L530.31,302.51L530.35,302.27L530.42,302.72L530.56,302.14L531.12,302.6L531.15,302.46L531.61,302.09L531.64,302.55L531.78,302.24L531.82,302.12L531.99,302.66L532.2,301.73L532.59,302.4L532.62,302.27L533.15,302.66L533.32,302.35L533.36,302.04L533.85,301.82L534.13,302.62L534.17,302.57L534.24,302.08L534.27,302.73L534.94,302.41L534.97,302.58L535.5,301.83L535.74,302.49L535.78,302.69L536.44,301.98L536.58,302.32L536.62,302.6L536.69,302.8L537.14,301.89L537.25,302.21L537.28,302.14L537.74,302.71L538.05,302.66L538.09,302.41L538.75,302.57L538.79,301.96L538.93,301.92L539.56,302.68L539.59,302.26L540.22,302.72L540.33,302.45L540.36,302.3L540.43,301.37L540.54,302.61L540.82,302.47" style="vector-effect: non-scaling-stroke; fill: none; stroke: rgb(0, 154, 250); stroke-opacity: 1; stroke-width: 1px; opacity: 1;"/></g><g class="points"/><g class="text"/></g></g></g><g class="overplot"/><path class="xlines-above crisp" d="M38.4925634295713,353.20669291338584H596.0629921259842" style="fill: none; stroke-width: 1px; stroke: rgb(0, 0, 0); stroke-opacity: 1;"/><path class="ylines-above crisp" d="M38.9925634295713,41.04330708661415V352.70669291338584" style="fill: none; stroke-width: 1px; stroke: rgb(0, 0, 0); stroke-opacity: 1;"/><g class="overlines-above"/><g class="xaxislayer-above"><path class="xtick ticks crisp" d="M0,352.70669291338584v-5" transform="translate(55.2125634295713,0)" style="stroke: rgb(0, 0, 0); stroke-opacity: 1; stroke-width: 1px;"/><path class="xtick ticks crisp" d="M0,352.70669291338584v-5" transform="translate(158.1525634295713,0)" style="stroke: rgb(0, 0, 0); stroke-opacity: 1; stroke-width: 1px;"/><path class="xtick ticks crisp" d="M0,352.70669291338584v-5" transform="translate(261.1025634295713,0)" style="stroke: rgb(0, 0, 0); stroke-opacity: 1; stroke-width: 1px;"/><path class="xtick ticks crisp" d="M0,352.70669291338584v-5" transform="translate(364.0525634295713,0)" style="stroke: rgb(0, 0, 0); stroke-opacity: 1; stroke-width: 1px;"/><path class="xtick ticks crisp" d="M0,352.70669291338584v-5" transform="translate(467.0025634295713,0)" style="stroke: rgb(0, 0, 0); stroke-opacity: 1; stroke-width: 1px;"/><path class="xtick ticks crisp" d="M0,352.70669291338584v-5" transform="translate(569.9425634295714,0)" style="stroke: rgb(0, 0, 0); stroke-opacity: 1; stroke-width: 1px;"/><g class="xtick"><text text-anchor="middle" x="0" y="366.9066929133858" transform="translate(55.2125634295713,0)" style="font-family: sans-serif; font-size: 11px; fill: rgb(0, 0, 0); fill-opacity: 1; white-space: pre; opacity: 1;">0</text></g><g class="xtick"><text text-anchor="middle" x="0" y="366.9066929133858" style="font-family: sans-serif; font-size: 11px; fill: rgb(0, 0, 0); fill-opacity: 1; white-space: pre; opacity: 1;" transform="translate(158.1525634295713,0)">1</text></g><g class="xtick"><text text-anchor="middle" x="0" y="366.9066929133858" style="font-family: sans-serif; font-size: 11px; fill: rgb(0, 0, 0); fill-opacity: 1; white-space: pre; opacity: 1;" transform="translate(261.1025634295713,0)">2</text></g><g class="xtick"><text text-anchor="middle" x="0" y="366.9066929133858" style="font-family: sans-serif; font-size: 11px; fill: rgb(0, 0, 0); fill-opacity: 1; white-space: pre; opacity: 1;" transform="translate(364.0525634295713,0)">3</text></g><g class="xtick"><text text-anchor="middle" x="0" y="366.9066929133858" style="font-family: sans-serif; font-size: 11px; fill: rgb(0, 0, 0); fill-opacity: 1; white-space: pre; opacity: 1;" transform="translate(467.0025634295713,0)">4</text></g><g class="xtick"><text text-anchor="middle" x="0" y="366.9066929133858" style="font-family: sans-serif; font-size: 11px; fill: rgb(0, 0, 0); fill-opacity: 1; white-space: pre; opacity: 1;" transform="translate(569.9425634295714,0)">5</text></g></g><g class="yaxislayer-above"><path class="ytick ticks crisp" d="M39.4925634295713,0h5" transform="translate(0,344.07330708661414)" style="stroke: rgb(0, 0, 0); stroke-opacity: 1; stroke-width: 1px;"/><path class="ytick ticks crisp" d="M39.4925634295713,0h5" transform="translate(0,270.68330708661415)" style="stroke: rgb(0, 0, 0); stroke-opacity: 1; stroke-width: 1px;"/><path class="ytick ticks crisp" d="M39.4925634295713,0h5" transform="translate(0,197.30330708661415)" style="stroke: rgb(0, 0, 0); stroke-opacity: 1; stroke-width: 1px;"/><path class="ytick ticks crisp" d="M39.4925634295713,0h5" transform="translate(0,123.91330708661415)" style="stroke: rgb(0, 0, 0); stroke-opacity: 1; stroke-width: 1px;"/><path class="ytick ticks crisp" d="M39.4925634295713,0h5" transform="translate(0,50.53330708661415)" style="stroke: rgb(0, 0, 0); stroke-opacity: 1; stroke-width: 1px;"/><g class="ytick"><text text-anchor="end" x="36.292563429571295" y="3.8499999999999996" transform="translate(0,344.07330708661414)" style="font-family: sans-serif; font-size: 11px; fill: rgb(0, 0, 0); fill-opacity: 1; white-space: pre; opacity: 1;">0.00</text></g><g class="ytick"><text text-anchor="end" x="36.292563429571295" y="3.8499999999999996" style="font-family: sans-serif; font-size: 11px; fill: rgb(0, 0, 0); fill-opacity: 1; white-space: pre; opacity: 1;" transform="translate(0,270.68330708661415)">0.05</text></g><g class="ytick"><text text-anchor="end" x="36.292563429571295" y="3.8499999999999996" style="font-family: sans-serif; font-size: 11px; fill: rgb(0, 0, 0); fill-opacity: 1; white-space: pre; opacity: 1;" transform="translate(0,197.30330708661415)">0.10</text></g><g class="ytick"><text text-anchor="end" x="36.292563429571295" y="3.8499999999999996" style="font-family: sans-serif; font-size: 11px; fill: rgb(0, 0, 0); fill-opacity: 1; white-space: pre; opacity: 1;" transform="translate(0,123.91330708661415)">0.15</text></g><g class="ytick"><text text-anchor="end" x="36.292563429571295" y="3.8499999999999996" style="font-family: sans-serif; font-size: 11px; fill: rgb(0, 0, 0); fill-opacity: 1; white-space: pre; opacity: 1;" transform="translate(0,50.53330708661415)">0.20</text></g></g><g class="overaxes-above"/></g></g><g class="polarlayer"/><g class="ternarylayer"/><g class="geolayer"/><g class="funnelarealayer"/><g class="pielayer"/><g class="iciclelayer"/><g class="treemaplayer"/><g class="sunburstlayer"/><g class="glimages"/><defs id="topdefs-c4e16f"><g class="clips"/><clipPath id="legendc4e16f"><rect width="57" height="29" x="1" y="1"/></clipPath></defs><g class="layer-above"><g class="imagelayer"/><g class="shapelayer"/></g><g class="infolayer"><g class="legend" pointer-events="all" transform="translate(541,20)"><rect class="bg" shape-rendering="crispEdges" width="58" height="30" x="0.5" y="0.5" style="stroke: rgb(0, 0, 0); stroke-opacity: 1; fill: rgb(255, 255, 255); fill-opacity: 1; stroke-width: 1px;"/><g class="scrollbox" transform="" clip-path="url(#legendc4e16f)"><g class="groups"><g class="traces" transform="translate(1,15.5)" style="opacity: 1;"><text class="legendtext" text-anchor="start" x="40" y="4.29" style="font-family: sans-serif; font-size: 11px; fill: rgb(0, 0, 0); fill-opacity: 1; white-space: pre;">y1</text><g class="layers" style="opacity: 1;"><g class="legendfill"/><g class="legendlines"><path class="js-line" d="M5,0h30" style="fill: none; stroke: rgb(0, 154, 250); stroke-opacity: 1; stroke-width: 1px;"/></g><g class="legendsymbols"><g class="legendpoints"/></g></g><rect class="legendtoggle" x="0" y="-9.5" width="51.625" height="19" style="fill: rgb(0, 0, 0); fill-opacity: 0;"/></g></g></g><rect class="scrollbar" rx="20" ry="3" width="0" height="0" x="0" y="0" style="fill: rgb(128, 139, 164); fill-opacity: 1;"/></g><g class="g-gtitle"/><g class="g-xtitle" transform="translate(0,-10.706692913385837)"><text class="xtitle" x="317.77777777777777" y="407.70669291338584" text-anchor="middle" style="font-family: sans-serif; font-size: 15px; fill: rgb(0, 0, 0); opacity: 1; font-weight: normal; white-space: pre;">s</text></g><g class="g-ytitle"/><g class="annotation" data-index="0" style="opacity: 1;"><g class="annotation-text-g" transform="rotate(0,317.7777777777777,33.500000000000014)"><g class="cursor-pointer" transform="translate(111,20)"><rect class="bg" x="0.5" y="0.5" width="413" height="26" style="stroke-width: 1px; stroke: rgb(0, 0, 0); stroke-opacity: 0; fill: rgb(0, 0, 0); fill-opacity: 0;"/><text class="annotation-text" text-anchor="middle" x="207.109375" y="20" style="font-family: sans-serif; font-size: 20px; fill: rgb(0, 0, 0); fill-opacity: 1; white-space: pre;">Window standard deviation with highpass filter</text></g></g></g></g></svg>