<svg class="main-svg" xmlns="http://www.w3.org/2000/svg" xmlns:xlink="http://www.w3.org/1999/xlink" width="600" height="400" style=""><rect x="0" y="0" width="600" height="400" style="fill: rgb(255, 255, 255); fill-opacity: 1;"/><defs id="defs-58dac9"><g class="clips"><clipPath id="clip58dac9xyplot" class="plotclip"><rect width="556.5704286964129" height="311.6633858267717"/></clipPath><clipPath class="axesclip" id="clip58dac9x"><rect x="39.4925634295713" y="0" width="556.5704286964129" height="400"/></clipPath><clipPath class="axesclip" id="clip58dac9y"><rect x="0" y="41.04330708661415" width="600" height="311.6633858267717"/></clipPath><clipPath class="axesclip" id="clip58dac9xy"><rect x="39.4925634295713" y="41.04330708661415" width="556.5704286964129" height="311.6633858267717"/></clipPath></g><g class="gradients"/><g class="patterns"/></defs><g class="bglayer"/><g class="layer-below"><g class="imagelayer"/><g class="shapelayer"/></g><g class="cartesianlayer"><g class="subplot xy"><g class="layer-subplot"><g class="shapelayer"/><g class="imagelayer"/></g><g class="gridlayer"><g class="x"><path class="xgrid crisp" transform="translate(55.2125634295713,0)" d="M0,41.04330708661415v311.6633858267717" style="stroke: rgb(0, 0, 0); stroke-opacity: 0.1; stroke-width: 0.5px;"/><path class="xgrid crisp" transform="translate(158.1525634295713,0)" d="M0,41.04330708661415v311.6633858267717" style="stroke: rgb(0, 0, 0); stroke-opacity: 0.1; stroke-width: 0.5px;"/><path class="xgrid crisp" transform="translate(261.1025634295713,0)" d="M0,41.04330708661415v311.6633858267717" style="stroke: rgb(0, 0, 0); stroke-opacity: 0.1; stroke-width: 0.5px;"/><path class="xgrid crisp" transform="translate(364.0525634295713,0)" d="M0,41.04330708661415v311.6633858267717" style="stroke: rgb(0, 0, 0); stroke-opacity: 0.1; stroke-width: 0.5px;"/><path class="xgrid crisp" transform="translate(467.0025634295713,0)" d="M0,41.04330708661415v311.6633858267717" style="stroke: rgb(0, 0, 0); stroke-opacity: 0.1; stroke-width: 0.5px;"/><path class="xgrid crisp" transform="translate(569.9425634295714,0)" d="M0,41.04330708661415v311.6633858267717" style="stroke: rgb(0, 0, 0); stroke-opacity: 0.1; stroke-width: 0.5px;"/></g><g class="y"><path class="ygrid crisp" transform="translate(0,343.88330708661414)" d="M39.4925634295713,0h556.5704286964129" style="stroke: rgb(0, 0, 0); stroke-opacity: 0.1; stroke-width: 0.5px;"/><path class="ygrid crisp" transform="translate(0,270.38330708661414)" d="M39.4925634295713,0h556.5704286964129" style="stroke: rgb(0, 0, 0); stroke-opacity: 0.1; stroke-width: 0.5px;"/><path class="ygrid crisp" transform="translate(0,196.87330708661415)" d="M39.4925634295713,0h556.5704286964129" style="stroke: rgb(0, 0, 0); stroke-opacity: 0.1; stroke-width: 0.5px;"/><path class="ygrid crisp" transform="translate(0,123.37330708661415)" d="M39.4925634295713,0h556.5704286964129" style="stroke: rgb(0, 0, 0); stroke-opacity: 0.1; stroke-width: 0.5px;"/><path class="ygrid crisp" transform="translate(0,49.86330708661415)" d="M39.4925634295713,0h556.5704286964129" style="stroke: rgb(0, 0, 0); stroke-opacity: 0.1; stroke-width: 0.5px;"/></g></g><g class="zerolinelayer"/><path class="xlines-below"/><path class="ylines-below"/><g class="overlines-below"/><g class="xaxislayer-below"/><g class="yaxislayer-below"/><g class="overaxes-below"/><g class="plot" transform="translate(39.4925634295713,41.04330708661415)" clip-path="url(#clip58dac9xyplot)"><g class="scatterlayer mlayer"><g class="trace scatter tracee77aeb" style="stroke-miterlimit: 2; opacity: 1;"><g class="fills"/><g class="errorbars"/><g class="lines"><path class="js-line" d="M15.75,302.84L45.97,302.84L46.01,8.82L46.6,8.82L46.64,302.84L47.13,8.82L47.37,302.84L47.41,302.84L54.83,302.84L54.86,8.82L55.15,8.82L55.18,302.84L55.85,8.82L55.92,302.84L55.95,302.84L58.3,302.84L58.33,8.82L59.07,302.84L59.1,8.82L59.98,302.84L60.01,302.84L67.72,302.84L67.75,8.82L68.17,8.82L68.21,302.84L68.35,8.82L68.94,302.84L68.98,302.84L75.52,302.84L75.56,8.82L76.12,8.82L76.15,302.84L76.72,302.84L76.75,8.82L77.52,302.84L77.56,302.84L81.55,302.84L81.58,8.82L82.14,8.82L82.18,302.84L82.39,8.82L82.91,302.84L82.95,302.84L87.25,302.84L87.29,8.82L87.75,8.82L87.78,302.84L87.96,8.82L88.52,302.84L88.55,302.84L92.82,302.84L92.86,8.82L93.49,8.82L93.52,302.84L93.63,8.82L94.26,302.84L94.29,302.84L98.25,302.84L98.28,8.82L98.85,8.82L98.88,302.84L99.13,8.82L99.62,302.84L99.65,302.84L103.19,302.84L103.22,8.82L103.4,8.82L103.43,302.84L103.96,8.82L104.17,302.84L104.2,302.84L108.02,302.84L108.05,8.82L108.23,8.82L108.26,302.84L108.72,8.82L109,302.84L109.03,302.84L112.4,302.84L112.43,8.82L112.61,8.82L112.64,302.84L113.1,8.82L113.38,302.84L113.41,302.84L116.39,302.84L116.42,8.82L116.6,8.82L116.63,302.84L117.02,8.82L117.37,302.84L117.4,302.84L120.03,302.84L120.06,8.82L120.24,8.82L120.28,302.84L120.66,8.82L121.01,302.84L121.05,302.84L123.53,302.84L123.57,8.82L123.74,8.82L123.78,302.84L124.51,8.82L124.55,302.84L126.75,302.84L126.79,8.82L126.96,8.82L127,302.84L127.49,8.82L127.73,302.84L127.77,302.84L130.04,302.84L130.08,8.82L130.88,302.84L130.92,302.84L133.2,302.84L133.23,8.82L133.41,8.82L133.44,302.84L133.76,8.82L134.18,302.84L134.21,302.84L136.45,302.84L136.49,8.82L137.36,302.84L137.4,302.84L139.74,302.84L139.78,8.82L139.95,8.82L139.99,302.84L140.23,8.82L140.72,302.84L140.76,302.84L142.97,302.84L143,8.82L143.35,8.82L143.39,302.84L143.46,8.82L144.12,302.84L144.16,302.84L146.15,302.84L146.19,8.82L146.68,8.82L146.71,302.84L149.3,302.84L149.34,8.82L149.69,8.82L149.72,302.84L149.97,8.82L150.46,302.84L150.49,302.84L152.42,302.84L152.45,8.82L153.26,302.84L153.3,302.84L155.54,302.84L155.57,8.82L155.89,8.82L155.92,302.84L156.13,302.84L156.17,8.82L156.94,302.84L156.97,302.84L158.37,302.84L158.41,8.82L159.21,302.84L159.25,302.84L161.14,302.84L161.17,8.82L162.08,302.84L162.12,302.84L163.17,302.84L163.2,8.82L164.12,302.84L164.15,302.84L167.72,302.84L167.76,8.82L168.63,302.84L168.67,302.84L174.59,302.84L174.62,8.82L175.5,302.84L175.53,302.84L181.31,302.84L181.34,8.82L182.22,302.84L182.25,302.84L184.07,302.84L184.11,8.82L184.35,8.82L184.39,302.84L187.23,302.84L187.26,8.82L188.07,302.84L188.1,302.84L190.69,302.84L190.73,8.82L190.97,8.82L191.01,302.84L194.33,302.84L194.37,8.82L195.17,302.84L195.21,302.84L197.98,302.84L198.01,8.82L198.26,8.82L198.29,302.84L201.65,302.84L201.69,8.82L201.93,8.82L201.97,302.84L205.01,302.84L205.05,8.82L205.92,302.84L205.96,302.84L208.2,302.84L208.24,8.82L209.11,302.84L209.15,302.84L211.35,302.84L211.39,8.82L211.63,8.82L211.67,302.84L214.61,302.84L214.64,8.82L214.89,8.82L214.92,302.84L218,302.84L218.04,8.82L218.29,8.82L218.32,302.84L221.4,302.84L221.44,8.82L222.31,302.84L222.35,302.84L224.8,302.84L224.83,8.82L225.08,8.82L225.11,302.84L228.26,302.84L228.3,8.82L229.21,302.84L229.25,302.84L231.63,302.84L231.66,8.82L232.57,302.84L232.61,302.84L234.81,302.84L234.85,8.82L235.72,302.84L235.76,302.84L238.1,302.84L238.14,8.82L238.38,8.82L238.42,302.84L241.29,302.84L241.33,8.82L241.57,8.82L241.61,302.84L244.41,302.84L244.44,8.82L244.69,8.82L244.72,302.84L247.45,302.84L247.49,8.82L248.36,302.84L248.4,302.84L250.39,302.84L250.43,8.82L251.2,302.84L251.24,302.84L253.51,302.84L253.55,8.82L253.76,8.82L253.79,302.84L253.93,8.82L254.53,302.84L254.56,302.84L256.63,302.84L256.66,8.82L256.87,8.82L256.91,302.84L259.67,302.84L259.71,8.82L259.95,8.82L259.99,302.84L262.79,302.84L262.83,8.82L263,8.82L263.04,302.84L265.77,302.84L265.8,8.82L266.01,8.82L266.05,302.84L268.78,302.84L268.81,8.82L269.69,302.84L269.72,302.84L271.89,302.84L271.93,8.82L272.7,302.84L272.74,302.84L274.84,302.84L274.87,8.82L275.75,302.84L275.78,302.84L277.85,302.84L277.88,8.82L278.65,302.84L278.69,302.84L280.86,302.84L280.89,8.82L281.73,302.84L281.77,302.84L283.87,302.84L283.91,8.82L284.68,302.84L284.71,302.84L286.92,302.84L286.95,8.82L287.83,302.84L287.86,302.84L289.96,302.84L290,8.82L290.21,8.82L290.24,302.84L293.04,302.84L293.08,8.82L293.25,8.82L293.29,302.84L296.09,302.84L296.13,8.82L296.9,302.84L296.93,302.84L299.21,302.84L299.24,8.82L300.15,302.84L300.19,302.84L302.15,302.84L302.18,8.82L303.02,302.84L303.06,302.84L305.13,302.84L305.16,8.82L305.93,302.84L305.97,302.84L308.1,302.84L308.14,8.82L308.98,302.84L309.01,302.84L311.18,302.84L311.22,8.82L311.39,8.82L311.43,302.84L314.3,302.84L314.33,8.82L315.1,302.84L315.14,302.84L317.66,302.84L317.7,8.82L318.61,302.84L318.64,302.84L321.16,302.84L321.2,8.82L321.97,302.84L322,302.84L325.08,302.84L325.12,8.82L326.03,302.84L326.06,302.84L328.97,302.84L329.01,8.82L329.78,302.84L329.81,302.84L333.03,302.84L333.07,8.82L333.84,302.84L333.87,302.84L337.16,302.84L337.2,8.82L337.97,302.84L338.01,302.84L341.86,302.84L341.89,8.82L342.66,302.84L342.7,302.84L346.79,302.84L346.83,8.82L347.6,302.84L347.63,302.84L352.68,302.84L352.71,8.82L353.48,302.84L353.52,302.84L359.51,302.84L359.54,8.82L360.31,302.84L360.35,302.84L368.4,302.84L368.43,8.82L369.34,302.84L369.38,302.84L381.95,302.84L381.99,8.82L382.9,302.84L382.93,302.84L386.36,302.84L386.4,8.82L387.17,302.84L387.2,302.84L540.82,302.84" style="vector-effect: non-scaling-stroke; fill: none; stroke: rgb(0, 154, 250); stroke-opacity: 1; stroke-width: 1px; opacity: 1;"/></g><g class="points"/><g class="text"/></g></g></g><g class="overplot"/><path class="xlines-above crisp" d="M38.4925634295713,353.20669291338584H596.0629921259842" style="fill: none; stroke-width: 1px; stroke: rgb(0, 0, 0); stroke-opacity: 1;"/><path class="ylines-above crisp" d="M38.9925634295713,41.04330708661415V352.70669291338584" style="fill: none; stroke-width: 1px; stroke: rgb(0, 0, 0); stroke-opacity: 1;"/><g class="overlines-above"/><g class="xaxislayer-above"><path class="xtick ticks crisp" d="M0,352.70669291338584v-5" transform="translate(55.2125634295713,0)" style="stroke: rgb(0, 0, 0); stroke-opacity: 1; stroke-width: 1px;"/><path class="xtick ticks crisp" d="M0,352.70669291338584v-5" transform="translate(158.1525634295713,0)" style="stroke: rgb(0, 0, 0); stroke-opacity: 1; stroke-width: 1px;"/><path class="xtick ticks crisp" d="M0,352.70669291338584v-5" transform="translate(261.1025634295713,0)" style="stroke: rgb(0, 0, 0); stroke-opacity: 1; stroke-width: 1px;"/><path class="xtick ticks crisp" d="M0,352.70669291338584v-5" transform="translate(364.0525634295713,0)" style="stroke: rgb(0, 0, 0); stroke-opacity: 1; stroke-width: 1px;"/><path class="xtick ticks crisp" d="M0,352.70669291338584v-5" transform="translate(467.0025634295713,0)" style="stroke: rgb(0, 0, 0); stroke-opacity: 1; stroke-width: 1px;"/><path class="xtick ticks crisp" d="M0,352.70669291338584v-5" transform="translate(569.9425634295714,0)" style="stroke: rgb(0, 0, 0); stroke-opacity: 1; stroke-width: 1px;"/><g class="xtick"><text text-anchor="middle" x="0" y="366.9066929133858" transform="translate(55.2125634295713,0)" style="font-family: sans-serif; font-size: 11px; fill: rgb(0, 0, 0); fill-opacity: 1; white-space: pre; opacity: 1;">0</text></g><g class="xtick"><text text-anchor="middle" x="0" y="366.9066929133858" style="font-family: sans-serif; font-size: 11px; fill: rgb(0, 0, 0); fill-opacity: 1; white-space: pre; opacity: 1;" transform="translate(158.1525634295713,0)">1</text></g><g class="xtick"><text text-anchor="middle" x="0" y="366.9066929133858" style="font-family: sans-serif; font-size: 11px; fill: rgb(0, 0, 0); fill-opacity: 1; white-space: pre; opacity: 1;" transform="translate(261.1025634295713,0)">2</text></g><g class="xtick"><text text-anchor="middle" x="0" y="366.9066929133858" style="font-family: sans-serif; font-size: 11px; fill: rgb(0, 0, 0); fill-opacity: 1; white-space: pre; opacity: 1;" transform="translate(364.0525634295713,0)">3</text></g><g class="xtick"><text text-anchor="middle" x="0" y="366.9066929133858" style="font-family: sans-serif; font-size: 11px; fill: rgb(0, 0, 0); fill-opacity: 1; white-space: pre; opacity: 1;" transform="translate(467.0025634295713,0)">4</text></g><g class="xtick"><text text-anchor="middle" x="0" y="366.9066929133858" style="font-family: sans-serif; font-size: 11px; fill: rgb(0, 0, 0); fill-opacity: 1; white-space: pre; opacity: 1;" transform="translate(569.9425634295714,0)">5</text></g></g><g class="yaxislayer-above"><path class="ytick ticks crisp" d="M39.4925634295713,0h5" transform="translate(0,343.88330708661414)" style="stroke: rgb(0, 0, 0); stroke-opacity: 1; stroke-width: 1px;"/><path class="ytick ticks crisp" d="M39.4925634295713,0h5" transform="translate(0,270.38330708661414)" style="stroke: rgb(0, 0, 0); stroke-opacity: 1; stroke-width: 1px;"/><path class="ytick ticks crisp" d="M39.4925634295713,0h5" transform="translate(0,196.87330708661415)" style="stroke: rgb(0, 0, 0); stroke-opacity: 1; stroke-width: 1px;"/><path class="ytick ticks crisp" d="M39.4925634295713,0h5" transform="translate(0,123.37330708661415)" style="stroke: rgb(0, 0, 0); stroke-opacity: 1; stroke-width: 1px;"/><path class="ytick ticks crisp" d="M39.4925634295713,0h5" transform="translate(0,49.86330708661415)" style="stroke: rgb(0, 0, 0); stroke-opacity: 1; stroke-width: 1px;"/><g class="ytick"><text text-anchor="end" x="36.292563429571295" y="3.8499999999999996" transform="translate(0,343.88330708661414)" style="font-family: sans-serif; font-size: 11px; fill: rgb(0, 0, 0); fill-opacity: 1; white-space: pre; opacity: 1;">0.00</text></g><g class="ytick"><text text-anchor="end" x="36.292563429571295" y="3.8499999999999996" style="font-family: sans-serif; font-size: 11px; fill: rgb(0, 0, 0); fill-opacity: 1; white-space: pre; opacity: 1;" transform="translate(0,270.38330708661414)">0.25</text></g><g class="ytick"><text text-anchor="end" x="36.292563429571295" y="3.8499999999999996" style="font-family: sans-serif; font-size: 11px; fill: rgb(0, 0, 0); fill-opacity: 1; white-space: pre; opacity: 1;" transform="translate(0,196.87330708661415)">0.50</text></g><g class="ytick"><text text-anchor="end" x="36.292563429571295" y="3.8499999999999996" style="font-family: sans-serif; font-size: 11px; fill: rgb(0, 0, 0); fill-opacity: 1; white-space: pre; opacity: 1;" transform="translate(0,123.37330708661415)">0.75</text></g><g class="ytick"><text text-anchor="end" x="36.292563429571295" y="3.8499999999999996" style="font-family: sans-serif; font-size: 11px; fill: rgb(0, 0, 0); fill-opacity: 1; white-space: pre; opacity: 1;" transform="translate(0,49.86330708661415)">1.00</text></g></g><g class="overaxes-above"/></g></g><g class="polarlayer"/><g class="ternarylayer"/><g class="geolayer"/><g class="funnelarealayer"/><g class="pielayer"/><g class="iciclelayer"/><g class="treemaplayer"/><g class="sunburstlayer"/><g class="glimages"/><defs id="topdefs-58dac9"><g class="clips"/><clipPath id="legend58dac9"><rect width="57" height="29" x="1" y="1"/></clipPath></defs><g class="layer-above"><g class="imagelayer"/><g class="shapelayer"/></g><g class="infolayer"><g class="legend" pointer-events="all" transform="translate(541,20)"><rect class="bg" shape-rendering="crispEdges" width="58" height="30" x="0.5" y="0.5" style="stroke: rgb(0, 0, 0); stroke-opacity: 1; fill: rgb(255, 255, 255); fill-opacity: 1; stroke-width: 1px;"/><g class="scrollbox" transform="" clip-path="url(#legend58dac9)"><g class="groups"><g class="traces" transform="translate(1,15.5)" style="opacity: 1;"><text class="legendtext" text-anchor="start" x="40" y="4.29" style="font-family: sans-serif; font-size: 11px; fill: rgb(0, 0, 0); fill-opacity: 1; white-space: pre;">y1</text><g class="layers" style="opacity: 1;"><g class="legendfill"/><g class="legendlines"><path class="js-line" d="M5,0h30" style="fill: none; stroke: rgb(0, 154, 250); stroke-opacity: 1; stroke-width: 1px;"/></g><g class="legendsymbols"><g class="legendpoints"/></g></g><rect class="legendtoggle" x="0" y="-9.5" width="51.625" height="19" style="fill: rgb(0, 0, 0); fill-opacity: 0;"/></g></g></g><rect class="scrollbar" rx="20" ry="3" width="0" height="0" x="0" y="0" style="fill: rgb(128, 139, 164); fill-opacity: 1;"/></g><g class="g-gtitle"/><g class="g-xtitle" transform="translate(0,-10.706692913385837)"><text class="xtitle" x="317.77777777777777" y="407.70669291338584" text-anchor="middle" style="font-family: sans-serif; font-size: 15px; fill: rgb(0, 0, 0); opacity: 1; font-weight: normal; white-space: pre;">s</text></g><g class="g-ytitle"/><g class="annotation" data-index="0" style="opacity: 1;"><g class="annotation-text-g" transform="rotate(0,317.7777777777777,33.50000000000001)"><g class="cursor-pointer" transform="translate(193,20)"><rect class="bg" x="0.5" y="0.5" width="249" height="26" style="stroke-width: 1px; stroke: rgb(0, 0, 0); stroke-opacity: 0; fill: rgb(0, 0, 0); fill-opacity: 0;"/><text class="annotation-text" text-anchor="middle" x="124.84375" y="20" style="font-family: sans-serif; font-size: 20px; fill: rgb(0, 0, 0); fill-opacity: 1; white-space: pre;">Threshold met binary signal</text></g></g></g></g></svg>